<svg width="48" height="48" viewBox="0 0 48 48" fill="none" xmlns="http://www.w3.org/2000/svg">
    <rect width="48" height="48" rx="24" fill="#E8F4FF"/>
    <path d="M27.75 33H17.25C17.0511 33 16.8603 32.921 16.7197 32.7803C16.579 32.6397 16.5 32.4489 16.5 32.25V18.75C16.5 18.5511 16.579 18.3603 16.7197 18.2197C16.8603 18.079 17.0511 18 17.25 18H24.75L28.5 21.75V32.25C28.5 32.4489 28.421 32.6397 28.2803 32.7803C28.1397 32.921 27.9489 33 27.75 33Z" stroke="#1890FF" stroke-width="1.3" stroke-linecap="round" stroke-linejoin="round"/>
    <path d="M19.5 18V15.75C19.5 15.5511 19.579 15.3603 19.7197 15.2197C19.8603 15.079 20.0511 15 20.25 15H27.75L31.5 18.75V29.25C31.5 29.4489 31.421 29.6397 31.2803 29.7803C31.1397 29.921 30.9489 30 30.75 30H28.5" stroke="#1890FF" stroke-width="1.3" stroke-linecap="round" stroke-linejoin="round"/>
    <path d="M20.25 26.25H24.75" stroke="#1890FF" stroke-width="1.3" stroke-linecap="round" stroke-linejoin="round"/>
    <path d="M20.25 29.25H24.75" stroke="#1890FF" stroke-width="1.3" stroke-linecap="round" stroke-linejoin="round"/>
</svg>
