<svg width="48" height="48" viewBox="0 0 48 48" fill="none" xmlns="http://www.w3.org/2000/svg">
    <rect width="48" height="48" rx="24" fill="url(#paint0_linear_9109_223837)"/>
    <path d="M17.6015 23.4832V33.9964H12.287C12.129 33.9964 12 33.8673 12 33.7092V19.8594L17.6015 23.4832Z" fill="white"/>
    <path d="M20.1038 21.6326V33.5753C20.1038 33.7947 20.2811 33.9722 20.4972 33.9722H25.3828C25.4441 33.9722 25.4924 33.9238 25.4924 33.8625V18.7413C25.4924 18.6574 25.4054 18.6057 25.3312 18.6477L20.1586 21.539C20.1231 21.5584 20.1038 21.5938 20.1038 21.6326Z" fill="white"/>
    <path d="M28.2175 16.9811V33.6932C28.2175 33.8513 28.3465 33.9804 28.5045 33.9804H33.6481V14.0705C33.6481 14.0221 33.5965 13.993 33.5578 14.0156L28.2208 16.9843L28.2175 16.9811Z" fill="white"/>
    <path d="M17.6017 33.9946C17.5694 33.9946 17.5372 33.9882 17.5082 33.972C17.4372 33.9365 17.3953 33.8655 17.3953 33.7849V23.5395L12.1002 20.0319C12.026 19.9835 11.9905 19.8931 12.0131 19.8092C12.0324 19.7253 12.1066 19.6608 12.1937 19.6511L14.3221 19.4317C14.4349 19.422 14.5478 19.4478 14.6413 19.5091L19.0367 22.3714C19.0593 22.3843 19.0787 22.4036 19.098 22.4294C19.098 22.4294 19.1012 22.4359 19.1045 22.4359C19.127 22.4714 19.1367 22.5101 19.1367 22.5521V32.6619C19.1367 32.82 19.0625 32.9685 18.9335 33.0621L17.7242 33.9559C17.6888 33.9817 17.6436 33.9979 17.6017 33.9979V33.9946ZM17.8113 23.5395V33.3718L18.6885 32.7232C18.7078 32.7071 18.7207 32.6845 18.7207 32.6587V22.9328L17.8113 23.5363V23.5395ZM12.8128 20.0061L17.6017 23.1781L18.5498 22.5488L14.4156 19.8576C14.4156 19.8576 14.3833 19.8447 14.364 19.8447L12.8161 20.0061H12.8128Z" fill="white"/>
    <path d="M25.4476 33.9566C25.4154 33.9566 25.3831 33.9502 25.3541 33.934C25.2831 33.8985 25.2412 33.8275 25.2412 33.7469L25.2573 18.8257C25.2573 18.7515 25.296 18.6838 25.3605 18.645C25.425 18.6095 25.5024 18.6063 25.5669 18.645L26.8085 19.3517C26.9633 19.4388 27.06 19.6066 27.06 19.7841V32.5884C27.06 32.7465 26.9826 32.895 26.8568 32.9886L25.5701 33.9179C25.5347 33.9437 25.4927 33.9566 25.4476 33.9566ZM25.6701 19.1839L25.654 33.3403L26.6085 32.6465C26.6279 32.6336 26.6408 32.611 26.6408 32.5852V19.7841C26.6408 19.7551 26.6247 19.7293 26.6021 19.7164L25.6701 19.1871V19.1839Z" fill="white"/>
    <path d="M33.6544 33.9779C33.6221 33.9779 33.5867 33.9682 33.5576 33.9521C33.4899 33.9166 33.448 33.8456 33.448 33.7682V14.2068C33.448 14.1229 33.4996 14.0487 33.5738 14.0164C33.6479 13.9841 33.7382 14.0002 33.7995 14.0583L35.212 15.4201C35.3087 15.5137 35.3635 15.6427 35.3635 15.7783V32.6C35.3635 32.7646 35.2829 32.9163 35.1475 33.0099L33.7737 33.9457C33.7382 33.9682 33.6963 33.9812 33.6576 33.9812L33.6544 33.9779ZM33.8608 14.6973V33.3777L34.9088 32.6646C34.9314 32.6484 34.9443 32.6259 34.9443 32.6V15.7783C34.9443 15.7557 34.9346 15.7363 34.9217 15.7202L33.8608 14.6973Z" fill="white"/>
    <defs>
        <linearGradient id="paint0_linear_9109_223837" x1="20.8334" y1="47.8022" x2="20.8499" y2="0.195634" gradientUnits="userSpaceOnUse">
            <stop stop-color="#FF6931"/>
            <stop offset="1" stop-color="#FF9839"/>
        </linearGradient>
    </defs>
</svg>
