<svg width="48" height="48" viewBox="0 0 48 48" fill="none" xmlns="http://www.w3.org/2000/svg">
    <rect width="48" height="48" rx="24" fill="#FDEEE7"/>
    <g clip-path="url(#clip0_9109_223814)">
        <path d="M15.1499 25.6406C14.7594 23.5328 15.1341 21.3548 16.2065 19.4986C17.2789 17.6425 18.9787 16.2301 20.9999 15.5156V22.2656L15.1499 25.6406Z" stroke="#E85912" stroke-width="1.3" stroke-linecap="round" stroke-linejoin="round"/>
        <path d="M23.9999 24.0394V15C25.5767 15.0002 27.1258 15.4147 28.492 16.202C29.8583 16.9893 30.9937 18.1217 31.7846 19.4858C32.5755 20.85 32.9941 22.398 32.9985 23.9748C33.0029 25.5516 32.593 27.1019 31.8097 28.4705C31.0265 29.839 29.8974 30.9778 28.5356 31.7727C27.1738 32.5676 25.6271 32.9908 24.0503 32.9999C22.4735 33.0089 20.922 32.6036 19.5511 31.8243C18.1803 31.0451 17.0382 29.9195 16.2393 28.56L31.7943 19.5" stroke="#E85912" stroke-width="1.3" stroke-linecap="round" stroke-linejoin="round"/>
    </g>
    <defs>
        <clipPath id="clip0_9109_223814">
            <rect width="24" height="24" fill="white" transform="translate(12 12)"/>
        </clipPath>
    </defs>
</svg>
