<svg width="48" height="48" viewBox="0 0 48 48" fill="none" xmlns="http://www.w3.org/2000/svg">
    <rect width="48" height="48" rx="24" fill="#E7F9F9"/>
    <path opacity="0.2" d="M17.2769 23.3575L17.2769 23.3575C17.2567 19.6768 20.195 16.6136 23.8375 16.5288L23.8376 16.5288C25.2493 16.4942 26.636 16.9096 27.8009 17.716C28.9658 18.5223 29.8497 19.6788 30.3272 21.0212C30.8048 22.3637 30.8516 23.824 30.4611 25.1948C30.0706 26.5657 29.2627 27.7775 28.1519 28.6583C27.9027 28.8535 27.7009 29.1033 27.5616 29.3889C27.4222 29.6746 27.3491 29.9885 27.3478 30.3069V30.307V30.8183C27.3478 30.9921 27.2794 31.1587 27.1578 31.2815C27.0363 31.4043 26.8714 31.4732 26.6996 31.4732H21.2999C21.1281 31.4732 20.9632 31.4043 20.8417 31.2815C20.7201 31.1587 20.6517 30.9921 20.6517 30.8183V30.307V30.3069C20.6514 29.9906 20.5796 29.6784 20.4419 29.3942C20.3042 29.11 20.1041 28.8612 19.8568 28.6668C19.0577 28.0362 18.4103 27.2309 17.9635 26.3114C17.5166 25.3918 17.2819 24.3819 17.2769 23.3575Z" stroke="#13C2C2" stroke-width="0.0535714"/>
    <path d="M20.25 34.5H27.75" stroke="#13C2C2" stroke-width="0.557143" stroke-linecap="round" stroke-linejoin="round"/>
    <path d="M19.8403 28.6879C19.0379 28.0548 18.388 27.2463 17.9394 26.3231C17.4907 25.3999 17.2551 24.386 17.2501 23.3576C17.2299 19.6627 20.1794 16.5872 23.8369 16.502C25.2543 16.4673 26.6466 16.8844 27.8161 17.6939C28.9857 18.5035 29.8731 19.6645 30.3525 21.0123C30.8319 22.36 30.8789 23.826 30.4869 25.2022C30.0949 26.5784 29.2837 27.795 28.1685 28.6794C27.9225 28.872 27.7232 29.1187 27.5856 29.4007C27.4481 29.6827 27.3759 29.9926 27.3746 30.307V30.8183C27.3746 30.9991 27.3035 31.1725 27.1769 31.3003C27.0503 31.4282 26.8786 31.5 26.6996 31.5H21.2999C21.1209 31.5 20.9492 31.4282 20.8226 31.3003C20.696 31.1725 20.6249 30.9991 20.6249 30.8183V30.307C20.6246 29.9946 20.5538 29.6864 20.4178 29.4059C20.2818 29.1253 20.0843 28.8798 19.8403 28.6879Z" stroke="#13C2C2" stroke-width="0.557143" stroke-linecap="round" stroke-linejoin="round"/>
    <path d="M24 14.25V13.5" stroke="#13C2C2" stroke-width="0.557143" stroke-linecap="round" stroke-linejoin="round"/>
    <path d="M30.75 16.5L31.875 15.375" stroke="#13C2C2" stroke-width="0.557143" stroke-linecap="round" stroke-linejoin="round"/>
    <path d="M17.25 16.5L16.125 15.375" stroke="#13C2C2" stroke-width="0.557143" stroke-linecap="round" stroke-linejoin="round"/>
    <path d="M24 30.75V27" stroke="#13C2C2" stroke-width="0.557143" stroke-linecap="round" stroke-linejoin="round"/>
    <path d="M21.75 24.75L24 27L26.25 24.75" stroke="#13C2C2" stroke-width="0.557143" stroke-linecap="round" stroke-linejoin="round"/>
</svg>
