<svg width="187" height="37" viewBox="0 0 187 37" fill="none" xmlns="http://www.w3.org/2000/svg"><g id="Group 1"><g id="Group 2"><path id="Vector" d="M57.8965 34.6502L64.6426 1.04297L76.7347 27.7331L88.864 1.04297L95.6102 34.6502H91.8201L87.5385 13.1433H87.4513L76.7347 35.9569L66.0616 13.1433H65.9744L61.6928 34.6502H57.8965Z" fill="#1A1945" stroke="#191944" stroke-width="0.193021" stroke-miterlimit="10"/><path id="Vector_2" d="M103.812 25.4603C103.791 26.3471 103.953 27.2287 104.289 28.0505C104.624 28.8723 105.126 29.6167 105.762 30.2375C106.399 30.8583 107.157 31.3422 107.99 31.6592C108.822 31.9762 109.712 32.1195 110.602 32.0802C113.203 32.0802 115.319 30.7302 116.906 27.9869L119.906 29.6341C117.834 33.3497 114.616 35.2075 110.334 35.2075C107.291 35.2075 104.827 34.2352 102.972 32.2969C102.047 31.3203 101.325 30.1715 100.848 28.9164C100.371 27.6613 100.147 26.3247 100.19 24.9835C100.087 22.2323 101.017 19.5414 102.798 17.4347C104.603 15.323 107.117 14.2703 110.266 14.2703C113.49 14.2703 116.004 15.4097 117.809 17.6452C119.533 19.7074 120.298 22.3268 120.105 25.4479L103.812 25.4603ZM116.377 22.5931C116.14 21.1532 115.399 19.8431 114.285 18.8936C113.172 17.9442 111.757 17.4166 110.291 17.4037C108.758 17.399 107.274 17.9368 106.103 18.9209C104.948 19.8279 104.19 21.1434 103.987 22.5931H116.377Z" fill="#1A1945" stroke="#191944" stroke-width="0.193021" stroke-miterlimit="10"/><path id="Vector_3" d="M130.877 17.9491V34.6691H127.348V17.9491H125.188V14.8528H127.348V7.70654H130.877V14.8342H134.58V17.9305L130.877 17.9491Z" fill="#1A1945" stroke="#191944" stroke-width="0.193021" stroke-miterlimit="10"/><path id="Vector_4" d="M143.288 14.8346V16.9835H143.376C144.788 15.169 146.332 14.2835 147.962 14.2835C149.082 14.3193 150.175 14.639 151.136 15.2124L149.462 18.3087C148.844 17.8393 148.116 17.5345 147.346 17.4231C144.651 17.4231 143.288 19.8692 143.288 24.7614V34.6695H139.76V14.8532L143.288 14.8346Z" fill="#1A1945" stroke="#191944" stroke-width="0.193021" stroke-miterlimit="10"/><path id="Vector_5" d="M161.852 7.36576C161.852 8.02929 161.587 8.66563 161.115 9.13481C160.644 9.60399 160.004 9.86757 159.337 9.86757C158.671 9.86757 158.031 9.60399 157.56 9.13481C157.088 8.66563 156.823 8.02929 156.823 7.36576C156.823 6.70224 157.088 6.0659 157.56 5.59672C158.031 5.12754 158.671 4.86395 159.337 4.86395C160.004 4.86395 160.644 5.12754 161.115 5.59672C161.587 6.0659 161.852 6.70224 161.852 7.36576ZM161.105 14.834V34.6504H157.576V14.834H161.105Z" fill="#1A1945" stroke="#191944" stroke-width="0.193021" stroke-miterlimit="10"/><path id="Vector_6" d="M186.067 20.7354H185.98C184.169 18.4999 182.01 17.4038 179.539 17.4038C178.562 17.3748 177.589 17.5511 176.685 17.9214C175.781 18.2917 174.966 18.8475 174.293 19.5526C173.615 20.2347 173.082 21.0458 172.725 21.9374C172.369 22.829 172.198 23.7829 172.22 24.742C172.17 26.6434 172.867 28.4892 174.162 29.8881C174.818 30.607 175.622 31.1754 176.521 31.554C177.419 31.9325 178.39 32.1121 179.365 32.0803C180.681 32.0855 181.98 31.778 183.154 31.1835C184.327 30.589 185.341 29.7246 186.111 28.6619H186.198V33.1764C184.258 34.4846 181.97 35.1894 179.626 35.2013C178.18 35.2531 176.737 35.0187 175.383 34.5116C174.028 34.0046 172.788 33.235 171.735 32.2475C170.716 31.2839 169.912 30.1176 169.376 28.8244C168.84 27.5313 168.583 26.1403 168.623 24.742C168.592 23.3502 168.859 21.9677 169.406 20.6864C169.953 19.4052 170.768 18.2545 171.797 17.3109C173.722 15.5663 176.18 14.5174 178.777 14.3331C181.374 14.1489 183.957 14.8401 186.111 16.2953L186.067 20.7354Z" fill="#1A1945" stroke="#191944" stroke-width="0.193021" stroke-miterlimit="10"/></g><g id="Group 3"><path id="Vector_7" d="M10.3495 17.4156V36.7489H0.528987C0.38869 36.7489 0.254141 36.6934 0.154936 36.5947C0.0557321 36.496 0 36.3621 0 36.2225V10.74L10.3495 17.4156Z" fill="#E38425"/><path id="Vector_8" d="M14.9727 14.0164V35.963C14.9727 36.0589 14.9917 36.154 15.0286 36.2426C15.0655 36.3313 15.1196 36.4118 15.1878 36.4797C15.256 36.5475 15.3369 36.6014 15.426 36.6381C15.5151 36.6748 15.6106 36.6937 15.7071 36.6937H24.731C24.7838 36.6937 24.8344 36.6728 24.8718 36.6357C24.9091 36.5985 24.9301 36.5481 24.9301 36.4955V8.70314C24.9318 8.66839 24.9239 8.63384 24.9074 8.60319C24.8908 8.57254 24.8662 8.54693 24.8362 8.52912C24.8061 8.51132 24.7718 8.50197 24.7368 8.50208C24.7018 8.50219 24.6675 8.51175 24.6376 8.52975L15.0785 13.8368C15.0459 13.854 15.0187 13.88 15 13.9117C14.9813 13.9434 14.9719 13.9796 14.9727 14.0164Z" fill="#F05C25"/><path id="Vector_9" d="M29.9785 5.47063V36.1859C29.9785 36.3255 30.0342 36.4594 30.1334 36.5581C30.2327 36.6569 30.3672 36.7123 30.5075 36.7123H40.0168V0.114029C40.0173 0.0942477 40.0124 0.0747042 40.0028 0.0574006C39.9932 0.0400971 39.9791 0.0256614 39.9619 0.0155739C39.9448 0.00548647 39.9253 0.000111028 39.9055 1.70206e-06C39.8856 -0.000107624 39.866 0.00505155 39.8488 0.0149503L29.9785 5.46444V5.47063Z" fill="#ED3224"/><path id="Vector_10" d="M10.3477 36.7499C10.2872 36.7473 10.228 36.7326 10.1734 36.7066C10.1117 36.6733 10.06 36.6241 10.0239 36.5642C9.98778 36.5043 9.96849 36.4359 9.96804 36.366V17.5529L0.184885 11.0754C0.118458 11.0326 0.0671491 10.9701 0.0381364 10.8969C0.00912371 10.8236 0.00385996 10.7431 0.0230779 10.6667C0.0427908 10.59 0.0854982 10.521 0.145526 10.469C0.205553 10.4171 0.280057 10.3845 0.359139 10.3756L4.29232 9.97312C4.51027 9.94353 4.73159 9.99418 4.91465 10.1155L13.0424 15.3731C13.0855 15.4016 13.1234 15.4372 13.1544 15.4783C13.1964 15.5405 13.2181 15.614 13.2167 15.6889V34.2667C13.2162 34.4091 13.1821 34.5493 13.1173 34.6763C13.0524 34.8032 12.9586 34.9132 12.8432 34.9974L10.6091 36.6385C10.5387 36.7064 10.4456 36.746 10.3477 36.7499ZM10.7646 17.5529V35.6291L12.3889 34.4339C12.4069 34.4215 12.4214 34.4048 12.4312 34.3853C12.441 34.3658 12.4457 34.3442 12.4449 34.3224V16.4134L10.7646 17.5529ZM1.49802 11.0259L10.3477 16.8593L12.1027 15.6951L4.46035 10.741C4.42782 10.7317 4.39331 10.7317 4.36077 10.741L1.49802 11.0259Z" fill="#E38425"/><path id="Vector_11" d="M24.8514 36.6566C24.7905 36.657 24.7306 36.6421 24.6771 36.6133C24.6145 36.5811 24.5621 36.5322 24.5258 36.472C24.4895 36.4119 24.4708 36.3428 24.4717 36.2727V8.84565C24.4706 8.77934 24.4873 8.71394 24.5201 8.65622C24.553 8.59851 24.6007 8.55059 24.6584 8.51744C24.7171 8.48375 24.7836 8.466 24.8514 8.466C24.9191 8.466 24.9856 8.48375 25.0443 8.51744L27.3407 9.81789C27.481 9.89776 27.5975 10.0132 27.6784 10.1524C27.7593 10.2916 27.8017 10.4497 27.8012 10.6105V34.1424C27.8011 34.2855 27.7665 34.4265 27.7005 34.5536C27.6344 34.6807 27.5388 34.7903 27.4216 34.8732L25.0816 36.5823C25.0147 36.6306 24.9341 36.6567 24.8514 36.6566ZM25.2683 9.50207V35.511L27.0358 34.2415C27.0537 34.2291 27.0683 34.2124 27.0781 34.1929C27.0879 34.1734 27.0926 34.1518 27.0918 34.1301V10.5982C27.0922 10.5734 27.0861 10.5489 27.0741 10.5272C27.0621 10.5055 27.0446 10.4872 27.0233 10.4743L25.2683 9.50207Z" fill="#F05C25"/><path id="Vector_12" d="M40.0157 36.7057C39.9145 36.7057 39.8173 36.6661 39.7451 36.5954C39.6729 36.5248 39.6315 36.4287 39.6299 36.3279V0.361295C39.6332 0.291064 39.6561 0.223146 39.6961 0.165178C39.7361 0.10721 39.7915 0.0614937 39.8562 0.033178C39.9209 0.00486225 39.9922 -0.00492905 40.0622 0.00490137C40.1321 0.0147318 40.198 0.0437964 40.2522 0.0888241L42.866 2.56587C42.9553 2.65045 43.0262 2.75232 43.0744 2.86522C43.1225 2.97811 43.1469 3.09963 43.1461 3.22228V34.1419C43.1457 34.2905 43.1093 34.4367 43.04 34.5682C42.9706 34.6998 42.8704 34.8127 42.7478 34.8974L40.2024 36.6128C40.1505 36.6611 40.0857 36.6933 40.0157 36.7057ZM40.3954 1.26541V35.6034L42.3371 34.2906C42.3583 34.2791 42.3759 34.2621 42.388 34.2413C42.4001 34.2206 42.4061 34.1969 42.4055 34.1729V3.25324C42.406 3.23306 42.4018 3.21303 42.3931 3.19475C42.3845 3.17648 42.3717 3.16046 42.3557 3.14797L40.3954 1.26541Z" fill="#ED3224"/></g></g></svg>