<svg width="24" height="25" viewBox="0 0 24 25" fill="none" xmlns="http://www.w3.org/2000/svg"><g id="Icon/Social" clip-path="url(#clip0_4045_2644)"><path id="Vector" d="M15 12.75L10.5 9.75V15.75L15 12.75Z" stroke="#241E46" stroke-width="1.3" stroke-linecap="round" stroke-linejoin="round"/><path id="Vector_2" d="M2.25 12.75C2.25 15.5541 2.53781 17.1985 2.75719 18.0441C2.8152 18.2741 2.92694 18.4871 3.08322 18.6655C3.23951 18.844 3.43589 18.9828 3.65625 19.0707C6.79875 20.2828 12 20.25 12 20.25C12 20.25 17.2012 20.2828 20.3438 19.0707C20.5648 18.9833 20.7619 18.8447 20.9189 18.6662C21.0759 18.4877 21.1882 18.2745 21.2466 18.0441C21.4659 17.2003 21.7537 15.5541 21.7537 12.75C21.7537 9.94596 21.4659 8.30159 21.2466 7.45596C21.1888 7.22471 21.0768 7.01053 20.9198 6.83119C20.7628 6.65185 20.5653 6.51251 20.3438 6.42471C17.2012 5.21721 12 5.25003 12 5.25003C12 5.25003 6.79875 5.21721 3.65625 6.4294C3.43466 6.5172 3.23718 6.65654 3.08017 6.83588C2.92317 7.01522 2.81116 7.22939 2.75344 7.46065C2.53781 8.30065 2.25 9.94596 2.25 12.75Z" stroke="#241E46" stroke-width="1.3" stroke-linecap="round" stroke-linejoin="round"/></g><defs><clipPath id="clip0_4045_2644"><rect width="24" height="24" fill="white" transform="translate(0 0.75)"/></clipPath></defs></svg>