<svg xmlns="http://www.w3.org/2000/svg" width="40" height="41" viewBox="0 0 40 41" fill="none">
  <g clip-path="url(#clip0_4334_24485)">
    <path d="M33.125 20.75C34.8509 20.75 36.25 19.3509 36.25 17.625C36.25 15.8991 34.8509 14.5 33.125 14.5C31.3991 14.5 30 15.8991 30 17.625C30 19.3509 31.3991 20.75 33.125 20.75Z" stroke="currentColor" stroke-width="1.3" stroke-linecap="round" stroke-linejoin="round"/>
    <path d="M6.875 20.75C8.60089 20.75 10 19.3509 10 17.625C10 15.8991 8.60089 14.5 6.875 14.5C5.14911 14.5 3.75 15.8991 3.75 17.625C3.75 19.3509 5.14911 20.75 6.875 20.75Z" stroke="currentColor" stroke-width="1.3" stroke-linecap="round" stroke-linejoin="round"/>
    <path d="M14.375 13.25C16.1009 13.25 17.5 11.8509 17.5 10.125C17.5 8.39911 16.1009 7 14.375 7C12.6491 7 11.25 8.39911 11.25 10.125C11.25 11.8509 12.6491 13.25 14.375 13.25Z" stroke="currentColor" stroke-width="1.3" stroke-linecap="round" stroke-linejoin="round"/>
    <path d="M25.625 13.25C27.3509 13.25 28.75 11.8509 28.75 10.125C28.75 8.39911 27.3509 7 25.625 7C23.8991 7 22.5 8.39911 22.5 10.125C22.5 11.8509 23.8991 13.25 25.625 13.25Z" stroke="currentColor" stroke-width="1.3" stroke-linecap="round" stroke-linejoin="round"/>
    <path d="M19.9995 17C18.7806 17.0004 17.5947 17.3968 16.6206 18.1295C15.6464 18.8622 14.9366 19.8915 14.598 21.0625C14.0976 22.7848 12.9367 24.2395 11.3683 25.1094C10.2297 25.7165 9.36985 26.7402 8.9686 27.9666C8.56735 29.193 8.65575 30.527 9.2153 31.6897C9.77486 32.8524 10.7622 33.7537 11.971 34.2053C13.1798 34.6568 14.5163 34.6236 15.7011 34.1125C18.4544 32.9836 21.5415 32.9836 24.2948 34.1125C25.4797 34.6236 26.8162 34.6568 28.0249 34.2053C29.2337 33.7537 30.2211 32.8524 30.7806 31.6897C31.3402 30.527 31.4286 29.193 31.0273 27.9666C30.6261 26.7402 29.7663 25.7165 28.6277 25.1094C27.0601 24.2393 25.9002 22.7845 25.4011 21.0625C25.0625 19.8915 24.3527 18.8622 23.3785 18.1295C22.4043 17.3968 21.2185 17.0004 19.9995 17Z" stroke="currentColor" stroke-width="1.3" stroke-linecap="round" stroke-linejoin="round"/>
  </g>
  <defs>
    <clipPath id="clip0_4334_24485">
      <rect width="40" height="40" fill="white" transform="translate(0 0.75)"/>
    </clipPath>
  </defs>
</svg>