<svg xmlns="http://www.w3.org/2000/svg" width="40" height="41" viewBox="0 0 40 41" fill="none">
  <path d="M35 5.75L28.6875 12.0625" stroke="currentColor" stroke-width="1.5" stroke-linecap="round" stroke-linejoin="round"/>
  <path d="M6.84545 35.5937C6.60926 35.7184 6.33933 35.7642 6.07522 35.7244C5.81111 35.6845 5.56671 35.5611 5.37784 35.3723C5.18897 35.1834 5.06556 34.939 5.02571 34.6749C4.98586 34.4108 5.03166 34.1408 5.15639 33.9046C5.15639 33.9046 10.0001 18.25 16.3126 12.0625C17.9537 10.4214 20.1794 9.49951 22.5001 9.49951C24.8209 9.49951 27.0466 10.4214 28.6876 12.0625C30.3287 13.7035 31.2506 15.9292 31.2506 18.25C31.2506 20.5707 30.3287 22.7964 28.6876 24.4375C22.5001 30.75 6.84545 35.5937 6.84545 35.5937Z" stroke="currentColor" stroke-width="1.5" stroke-linecap="round" stroke-linejoin="round"/>
  <path d="M36.2496 12H28.623" stroke="currentColor" stroke-width="1.5" stroke-linecap="round" stroke-linejoin="round"/>
  <path d="M28.75 12.1266V4.5" stroke="currentColor" stroke-width="1.5" stroke-linecap="round" stroke-linejoin="round"/>
  <path d="M17.5 24.5L22.1406 29.1406" stroke="currentColor" stroke-width="1.5" stroke-linecap="round" stroke-linejoin="round"/>
  <path d="M16.3125 12.0625L22.5 18.25" stroke="currentColor" stroke-width="1.3" stroke-linecap="round" stroke-linejoin="round"/>
</svg>