<svg xmlns="http://www.w3.org/2000/svg" width="40" height="41" viewBox="0 0 40 41" fill="none">
  <g clip-path="url(#clip0_4334_24461)">
    <path d="M5 19.5C12.8719 19.5 19.6109 24.3875 22.3906 31.2313C22.486 31.4598 22.6471 31.6549 22.8535 31.7918C23.0599 31.9287 23.3023 32.0011 23.55 32H37.5C37.8315 32 38.1495 31.8683 38.3839 31.6339C38.6183 31.3995 38.75 31.0815 38.75 30.75V30.0109C38.7467 29.1615 38.4541 28.3384 37.9204 27.6775C37.3867 27.0166 36.6438 26.5572 35.8141 26.375L27.5 24.5L10 7C6.96719 10.3156 5 14.6562 5 19.5Z" stroke="currentColor" stroke-width="1.3" stroke-linecap="round" stroke-linejoin="round"/>
    <path d="M12.5 21.0625V30.75C12.5 31.0815 12.3683 31.3995 12.1339 31.6339C11.8995 31.8683 11.5815 32 11.25 32H6.25C5.91848 32 5.60054 31.8683 5.36612 31.6339C5.1317 31.3995 5 31.0815 5 30.75V19.5" stroke="currentColor" stroke-width="1.3" stroke-linecap="round" stroke-linejoin="round"/>
  </g>
  <defs>
    <clipPath id="clip0_4334_24461">
      <rect width="40" height="40" fill="white" transform="translate(0 0.75)"/>
    </clipPath>
  </defs>
</svg>