<svg xmlns="http://www.w3.org/2000/svg" width="40" height="41" viewBox="0 0 40 41" fill="none">
  <g clip-path="url(#clip0_4334_24458)">
    <path d="M5 30.75C5 31.0816 5.1317 31.3995 5.36612 31.6339C5.60054 31.8683 5.91848 32 6.25 32H37.5C37.8315 32 38.1495 31.8683 38.3839 31.6339C38.6183 31.3995 38.75 31.0816 38.75 30.75V26.8532C38.7498 25.804 38.4195 24.7814 37.8059 23.9304C37.1923 23.0793 36.3266 22.4428 35.3313 22.111L25.8422 18.9469C25.1831 18.7272 24.577 18.3725 24.0627 17.9054C23.5483 17.4384 23.1369 16.8693 22.8547 16.2344L19.2188 7.74222C19.0903 7.4546 18.858 7.22607 18.5683 7.10237C18.2786 6.97867 17.9528 6.9689 17.6563 7.07504L5.82344 11.375C5.58164 11.4628 5.37282 11.6231 5.22545 11.8339C5.07808 12.0447 4.99935 12.2959 5 12.5532V30.75Z" stroke="currentColor" stroke-width="1.3" stroke-linecap="round" stroke-linejoin="round"/>
    <path d="M5 27H38.75" stroke="currentColor" stroke-width="1.3" stroke-linecap="round" stroke-linejoin="round"/>
    <path d="M18.75 17L22.5859 15.6047" stroke="currentColor" stroke-width="1.3" stroke-linecap="round" stroke-linejoin="round"/>
    <path d="M16.25 13.25L20.8609 11.5735" stroke="currentColor" stroke-width="1.3" stroke-linecap="round" stroke-linejoin="round"/>
    <path d="M21.25 20.75L26.0328 19.011" stroke="currentColor" stroke-width="1.3" stroke-linecap="round" stroke-linejoin="round"/>
  </g>
  <defs>
    <clipPath id="clip0_4334_24458">
      <rect width="40" height="40" fill="white" transform="translate(0 0.75)"/>
    </clipPath>
  </defs>
</svg>