<svg xmlns="http://www.w3.org/2000/svg" width="40" height="41" viewBox="0 0 40 41" fill="none">
  <g clip-path="url(#clip0_4334_24445)">
    <path d="M26.25 18.25C28.3211 18.25 30 16.5711 30 14.5C30 12.4289 28.3211 10.75 26.25 10.75C24.1789 10.75 22.5 12.4289 22.5 14.5C22.5 16.5711 24.1789 18.25 26.25 18.25Z" stroke="currentColor" stroke-width="1.3" stroke-linecap="round" stroke-linejoin="round"/>
    <path d="M3.75 18.4406V10.5594C3.75001 10.2636 3.85489 9.97745 4.046 9.75173C4.2371 9.52601 4.50205 9.37536 4.79375 9.32656L26.25 5.75C28.5706 5.75 30.7962 6.67187 32.4372 8.31282C34.0781 9.95376 35 12.1794 35 14.5C35 16.8206 34.0781 19.0462 32.4372 20.6872C30.7962 22.3281 28.5706 23.25 26.25 23.25L4.79375 19.6734C4.50205 19.6246 4.2371 19.474 4.046 19.2483C3.85489 19.0225 3.75001 18.7364 3.75 18.4406Z" stroke="currentColor" stroke-width="1.3" stroke-linecap="round" stroke-linejoin="round"/>
    <path d="M23.75 33.25V34.5C23.75 35.8261 24.2768 37.0979 25.2145 38.0355C26.1521 38.9732 27.4239 39.5 28.75 39.5H31.25" stroke="currentColor" stroke-width="1.3" stroke-linecap="round" stroke-linejoin="round"/>
    <path d="M31.6391 21.3938L26.5828 32.5172C26.4835 32.7357 26.3235 32.9209 26.1218 33.0509C25.9201 33.1808 25.6852 33.25 25.4453 33.25H22.5C22.1685 33.25 21.8505 33.1184 21.6161 32.8839C21.3817 32.6495 21.25 32.3316 21.25 32V22.4172" stroke="currentColor" stroke-width="1.3" stroke-linecap="round" stroke-linejoin="round"/>
  </g>
  <defs>
    <clipPath id="clip0_4334_24445">
      <rect width="40" height="40" fill="white" transform="translate(0 0.75)"/>
    </clipPath>
  </defs>
</svg>