<svg xmlns="http://www.w3.org/2000/svg" width="40" height="41" viewBox="0 0 40 41" fill="none">
  <g clip-path="url(#clip0_4334_24467)">
    <path d="M14.375 22C15.0654 22 15.625 21.4404 15.625 20.75C15.625 20.0596 15.0654 19.5 14.375 19.5C13.6846 19.5 13.125 20.0596 13.125 20.75C13.125 21.4404 13.6846 22 14.375 22Z" fill="#241E46"/>
    <path d="M25.625 22C26.3154 22 26.875 21.4404 26.875 20.75C26.875 20.0596 26.3154 19.5 25.625 19.5C24.9346 19.5 24.375 20.0596 24.375 20.75C24.375 21.4404 24.9346 22 25.625 22Z" fill="#241E46"/>
    <path d="M24.375 27C23.062 27.817 21.5464 28.25 20 28.25C18.4536 28.25 16.938 27.817 15.625 27" stroke="currentColor" stroke-width="1.3" stroke-linecap="round" stroke-linejoin="round"/>
    <path d="M20 35.75C28.2843 35.75 35 29.0343 35 20.75C35 12.4657 28.2843 5.75 20 5.75C11.7157 5.75 5 12.4657 5 20.75C5 29.0343 11.7157 35.75 20 35.75Z" stroke="currentColor" stroke-width="1.3" stroke-linecap="round" stroke-linejoin="round"/>
    <path d="M20 5.75C17.5 8.875 17.5 12 17.5 12C17.5 12.663 17.7634 13.2989 18.2322 13.7678C18.7011 14.2366 19.337 14.5 20 14.5C20.663 14.5 21.2989 14.2366 21.7678 13.7678C22.2366 13.2989 22.5 12.663 22.5 12" stroke="currentColor" stroke-width="1.3" stroke-linecap="round" stroke-linejoin="round"/>
  </g>
  <defs>
    <clipPath id="clip0_4334_24467">
      <rect width="40" height="40" fill="white" transform="translate(0 0.75)"/>
    </clipPath>
  </defs>
</svg>