<svg xmlns="http://www.w3.org/2000/svg" width="40" height="41" viewBox="0 0 40 41" fill="none">
  <g clip-path="url(#clip0_4334_24498)">
    <path d="M23.75 17H27.5" stroke="currentColor" stroke-width="1.3" stroke-linecap="round" stroke-linejoin="round"/>
    <path d="M11.25 17H16.25" stroke="currentColor" stroke-width="1.3" stroke-linecap="round" stroke-linejoin="round"/>
    <path d="M13.75 14.5V19.5" stroke="currentColor" stroke-width="1.3" stroke-linecap="round" stroke-linejoin="round"/>
    <path d="M16.5485 24.5L9.96885 31.9688C9.3109 32.6264 8.46045 33.0572 7.54099 33.1986C6.62153 33.34 5.68094 33.1846 4.85578 32.7551C4.03063 32.3255 3.36388 31.6441 2.95235 30.8098C2.54082 29.9755 2.40594 29.0318 2.56729 28.1156L5.12354 14.9688C5.45375 13.0896 6.43473 11.3866 7.89457 10.1582C9.35441 8.92975 11.2 8.25423 13.1079 8.25H26.8751C29.03 8.25 31.0966 9.10602 32.6203 10.6298C34.1441 12.1535 35.0001 14.2201 35.0001 16.375C35.0001 18.5299 34.1441 20.5965 32.6203 22.1202C31.0966 23.644 29.03 24.5 26.8751 24.5H16.5485Z" stroke="currentColor" stroke-width="1.3" stroke-linecap="round" stroke-linejoin="round"/>
    <path d="M23.4512 24.5L30.0309 31.9687C30.6888 32.6264 31.5393 33.0572 32.4587 33.1986C33.3782 33.34 34.3188 33.1846 35.1439 32.7551C35.9691 32.3255 36.6358 31.6441 37.0474 30.8098C37.4589 29.9755 37.5938 29.0318 37.4324 28.1156L34.8762 14.9688" stroke="currentColor" stroke-width="1.3" stroke-linecap="round" stroke-linejoin="round"/>
  </g>
  <defs>
    <clipPath id="clip0_4334_24498">
      <rect width="40" height="40" fill="white" transform="translate(0 0.75)"/>
    </clipPath>
  </defs>
</svg>