<svg xmlns="http://www.w3.org/2000/svg" width="40" height="41" viewBox="0 0 40 41" fill="none">
  <g clip-path="url(#clip0_4334_24501)">
    <path d="M26.25 24.5C31.7728 24.5 36.25 20.0228 36.25 14.5C36.25 8.97715 31.7728 4.5 26.25 4.5C20.7272 4.5 16.25 8.97715 16.25 14.5C16.25 20.0228 20.7272 24.5 26.25 24.5Z" stroke="currentColor" stroke-width="1.3" stroke-linecap="round" stroke-linejoin="round"/>
    <path d="M33.3203 21.5703L19.1797 7.42969" stroke="currentColor" stroke-width="1.3" stroke-linecap="round" stroke-linejoin="round"/>
    <path d="M15 25.75L16.25 24.5" stroke="currentColor" stroke-width="1.3" stroke-linecap="round" stroke-linejoin="round"/>
    <path d="M16.4058 16.2969L5.24177 31.5312C5.06544 31.7718 4.98097 32.0676 5.00361 32.365C5.02624 32.6624 5.1545 32.942 5.36521 33.1531L7.59959 35.3875C7.81073 35.5982 8.09026 35.7265 8.3877 35.7491C8.68513 35.7717 8.98086 35.6873 9.22146 35.5109L24.4527 24.3437" stroke="currentColor" stroke-width="1.3" stroke-linecap="round" stroke-linejoin="round"/>
  </g>
  <defs>
    <clipPath id="clip0_4334_24501">
      <rect width="40" height="40" fill="white" transform="translate(0 0.75)"/>
    </clipPath>
  </defs>
</svg>