<svg xmlns="http://www.w3.org/2000/svg" width="40" height="41" viewBox="0 0 40 41" fill="none">
  <g clip-path="url(#clip0_4334_24504)">
    <path d="M13.75 35.75L17.5 32V28.25L21.25 24.5L28.75 35.75L32.5 32L27.5 18.25L32.6562 13.4063C33.3607 12.7018 33.7565 11.7463 33.7565 10.75C33.7565 9.75375 33.3607 8.79827 32.6562 8.09378C31.9518 7.3893 30.9963 6.99353 30 6.99353C29.0037 6.99353 28.0482 7.3893 27.3438 8.09378L22.5 13.25L8.75 8.25003L5 12L16.25 19.5L12.5 23.25H8.75L5 27L11.25 29.5L13.75 35.75Z" stroke="currentColor" stroke-width="1.3" stroke-linecap="round" stroke-linejoin="round"/>
  </g>
  <defs>
    <clipPath id="clip0_4334_24504">
      <rect width="40" height="40" fill="white" transform="translate(0 0.75)"/>
    </clipPath>
  </defs>
</svg>