<svg xmlns="http://www.w3.org/2000/svg" width="40" height="41" viewBox="0 0 40 41" fill="none">
  <g clip-path="url(#clip0_4334_24451)">
    <path d="M20 13.25L25 5.75L27.5 8.25V17C27.5001 17.2376 27.4325 17.4703 27.305 17.6708C27.1776 17.8714 26.9957 18.0314 26.7805 18.1323C26.5654 18.2331 26.326 18.2706 26.0903 18.2402C25.8547 18.2099 25.6326 18.113 25.45 17.9609L20 13.25Z" stroke="currentColor" stroke-width="1.3" stroke-linecap="round" stroke-linejoin="round"/>
    <path d="M14.55 17.9578C14.3676 18.1097 14.1458 18.2065 13.9104 18.237C13.6751 18.2675 13.4359 18.2303 13.2209 18.1298C13.0059 18.0294 12.8239 17.8698 12.6962 17.6697C12.5686 17.4696 12.5005 17.2373 12.5 17V8.25L15 5.75L20 13.25L14.55 17.9578Z" stroke="currentColor" stroke-width="1.3" stroke-linecap="round" stroke-linejoin="round"/>
    <path d="M20 13.25V34.5" stroke="currentColor" stroke-width="1.3" stroke-linecap="round" stroke-linejoin="round"/>
    <path d="M27.5 8.25H31.25C31.5815 8.25 31.8995 8.3817 32.1339 8.61612C32.3683 8.85054 32.5 9.16848 32.5 9.5V33.25C32.5 33.5815 32.3683 33.8995 32.1339 34.1339C31.8995 34.3683 31.5815 34.5 31.25 34.5H8.75C8.41848 34.5 8.10054 34.3683 7.86612 34.1339C7.6317 33.8995 7.5 33.5815 7.5 33.25V9.5C7.5 9.16848 7.6317 8.85054 7.86612 8.61612C8.10054 8.3817 8.41848 8.25 8.75 8.25H12.5" stroke="currentColor" stroke-width="1.3" stroke-linecap="round" stroke-linejoin="round"/>
    <path d="M15 5.75H25" stroke="currentColor" stroke-width="1.3" stroke-linecap="round" stroke-linejoin="round"/>
  </g>
  <defs>
    <clipPath id="clip0_4334_24451">
      <rect width="40" height="40" fill="white" transform="translate(0 0.75)"/>
    </clipPath>
  </defs>
</svg>