<svg xmlns="http://www.w3.org/2000/svg" width="40" height="41" viewBox="0 0 40 41" fill="none">
  <g clip-path="url(#clip0_4334_24507)">
    <path d="M31.2497 5.75V23.4641C31.2498 23.7926 31.1851 24.1179 31.0593 24.4214C30.9336 24.7249 30.7493 25.0006 30.5169 25.2328L19.8294 35.9203C18.3374 37.4118 16.3141 38.2497 14.2044 38.2497C12.0947 38.2497 10.0714 37.4118 8.57941 35.9203C7.08789 34.4283 6.25 32.405 6.25 30.2953C6.25 28.1856 7.08789 26.1623 8.57941 24.6703L14.9997 18.25V5.75C14.9997 5.41848 15.1314 5.10054 15.3658 4.86612C15.6003 4.6317 15.9182 4.5 16.2497 4.5H29.9997C30.3312 4.5 30.6492 4.6317 30.8836 4.86612C31.118 5.10054 31.2497 5.41848 31.2497 5.75Z" stroke="currentColor" stroke-width="1.3" stroke-linecap="round" stroke-linejoin="round"/>
    <path d="M31.25 9.5H15" stroke="currentColor" stroke-width="1.3" stroke-linecap="round" stroke-linejoin="round"/>
    <path d="M31.2496 18.25C29.8414 18.2497 28.4615 18.6459 27.268 19.3932C26.0744 20.1405 25.1153 21.2088 24.5005 22.4757C23.8858 23.7426 23.6401 25.157 23.7916 26.557C23.9431 27.9571 24.4857 29.2861 25.3574 30.3922" stroke="currentColor" stroke-width="1.3" stroke-linecap="round" stroke-linejoin="round"/>
  </g>
  <defs>
    <clipPath id="clip0_4334_24507">
      <rect width="40" height="40" fill="white" transform="translate(0 0.75)"/>
    </clipPath>
  </defs>
</svg>