<svg xmlns="http://www.w3.org/2000/svg" width="40" height="41" viewBox="0 0 40 41" fill="none">
  <g clip-path="url(#clip0_4334_24464)">
    <path d="M32.7608 33.25H7.23895C6.9317 33.2501 6.63504 33.1378 6.40482 32.9343C6.17459 32.7309 6.02669 32.4503 5.98895 32.1453L3.76238 13.3953C3.74179 13.2194 3.75882 13.0411 3.81235 12.8723C3.86588 12.7034 3.95468 12.5479 4.07287 12.4159C4.19107 12.284 4.33595 12.1787 4.49792 12.107C4.65989 12.0353 4.83526 11.9988 5.01239 12H34.9874C35.1645 11.9988 35.3399 12.0353 35.5018 12.107C35.6638 12.1787 35.8087 12.284 35.9269 12.4159C36.0451 12.5479 36.1339 12.7034 36.1874 12.8723C36.2409 13.0411 36.258 13.2194 36.2374 13.3953L34.0108 32.1453C33.9731 32.4503 33.8252 32.7309 33.595 32.9343C33.3647 33.1378 33.0681 33.2501 32.7608 33.25Z" stroke="currentColor" stroke-width="1.3" stroke-linecap="round" stroke-linejoin="round"/>
    <path d="M13.75 17V10.75C13.75 9.0924 14.4085 7.50269 15.5806 6.33058C16.7527 5.15848 18.3424 4.5 20 4.5C21.6576 4.5 23.2473 5.15848 24.4194 6.33058C25.5915 7.50269 26.25 9.0924 26.25 10.75V17" stroke="currentColor" stroke-width="1.3" stroke-linecap="round" stroke-linejoin="round"/>
  </g>
  <defs>
    <clipPath id="clip0_4334_24464">
      <rect width="40" height="40" fill="white" transform="translate(0 0.75)"/>
    </clipPath>
  </defs>
</svg>