<svg xmlns="http://www.w3.org/2000/svg" width="40" height="41" viewBox="0 0 40 41" fill="none">
  <g clip-path="url(#clip0_4334_24511)">
    <path d="M6.25 9.5V29.5C6.25 30.163 6.51339 30.7989 6.98223 31.2678C7.45107 31.7366 8.08696 32 8.75 32H33.75C34.0815 32 34.3995 31.8683 34.6339 31.6339C34.8683 31.3995 35 31.0815 35 30.75V13.25C35 12.9185 34.8683 12.6005 34.6339 12.3661C34.3995 12.1317 34.0815 12 33.75 12H8.75C8.08696 12 7.45107 11.7366 6.98223 11.2678C6.51339 10.7989 6.25 10.163 6.25 9.5ZM6.25 9.5C6.25 8.83696 6.51339 8.20107 6.98223 7.73223C7.45107 7.26339 8.08696 7 8.75 7H30" stroke="currentColor" stroke-width="1.3" stroke-linecap="round" stroke-linejoin="round"/>
    <path d="M28.125 22.625C28.8154 22.625 29.375 22.0654 29.375 21.375C29.375 20.6846 28.8154 20.125 28.125 20.125C27.4346 20.125 26.875 20.6846 26.875 21.375C26.875 22.0654 27.4346 22.625 28.125 22.625Z" fill="#241E46"/>
  </g>
  <defs>
    <clipPath id="clip0_4334_24511">
      <rect width="40" height="40" fill="white" transform="translate(0 0.75)"/>
    </clipPath>
  </defs>
</svg>