<svg xmlns="http://www.w3.org/2000/svg" width="40" height="41" viewBox="0 0 40 41" fill="none">
  <g clip-path="url(#clip0_4334_24478)">
    <path d="M20 25.75C22.7614 25.75 25 23.5114 25 20.75C25 17.9886 22.7614 15.75 20 15.75C17.2386 15.75 15 17.9886 15 20.75C15 23.5114 17.2386 25.75 20 25.75Z" stroke="currentColor" stroke-width="1.5" stroke-linecap="round" stroke-linejoin="round"/>
    <path d="M37.5 10.75H2.5V30.75H37.5V10.75Z" stroke="currentColor" stroke-width="1.5" stroke-linecap="round" stroke-linejoin="round"/>
    <path d="M37.5 17C35.9386 16.7354 34.4981 15.9916 33.3783 14.8717C32.2584 13.7519 31.5146 12.3114 31.25 10.75" stroke="currentColor" stroke-width="1.5" stroke-linecap="round" stroke-linejoin="round"/>
    <path d="M31.25 30.75C31.5146 29.1886 32.2584 27.7481 33.3783 26.6283C34.4981 25.5084 35.9386 24.7646 37.5 24.5" stroke="currentColor" stroke-width="1.5" stroke-linecap="round" stroke-linejoin="round"/>
    <path d="M2.5 24.5C4.06143 24.7646 5.50188 25.5084 6.62173 26.6283C7.74157 27.7481 8.48535 29.1886 8.75 30.75" stroke="currentColor" stroke-width="1.3" stroke-linecap="round" stroke-linejoin="round"/>
    <path d="M8.75 10.75C8.48535 12.3114 7.74157 13.7519 6.62173 14.8717C5.50188 15.9916 4.06143 16.7354 2.5 17" stroke="currentColor" stroke-width="1.3" stroke-linecap="round" stroke-linejoin="round"/>
  </g>
  <defs>
    <clipPath id="clip0_4334_24478">
      <rect width="40" height="40" fill="white" transform="translate(0 0.75)"/>
    </clipPath>
  </defs>
</svg>