<svg xmlns="http://www.w3.org/2000/svg" width="40" height="41" viewBox="0 0 40 41" fill="none">
  <path d="M10 32C12.0711 32 13.75 30.3211 13.75 28.25C13.75 26.1789 12.0711 24.5 10 24.5C7.92893 24.5 6.25 26.1789 6.25 28.25C6.25 30.3211 7.92893 32 10 32Z" stroke="currentColor" stroke-width="1.5" stroke-linecap="round" stroke-linejoin="round"/>
  <path d="M30 32C32.0711 32 33.75 30.3211 33.75 28.25C33.75 26.1789 32.0711 24.5 30 24.5C27.9289 24.5 26.25 26.1789 26.25 28.25C26.25 30.3211 27.9289 32 30 32Z" stroke="currentColor" stroke-width="1.3" stroke-linecap="round" stroke-linejoin="round"/>
  <path d="M13.75 28.25H26.25" stroke="currentColor" stroke-width="1.3" stroke-linecap="round" stroke-linejoin="round"/>
  <path d="M33.75 28.25H37.5C37.8315 28.25 38.1495 28.1183 38.3839 27.8839C38.6183 27.6495 38.75 27.3315 38.75 27V20.75C38.75 20.4185 38.6183 20.1005 38.3839 19.8661C38.1495 19.6317 37.8315 19.5 37.5 19.5H32.5L25.3656 12.3656C25.1314 12.1316 24.8139 12.0002 24.4828 12H6.91875C6.71317 12.0001 6.51079 12.0509 6.32955 12.148C6.1483 12.245 5.99379 12.3852 5.87969 12.5562L1.25 19.5V27C1.25 27.3315 1.3817 27.6495 1.61612 27.8839C1.85054 28.1183 2.16848 28.25 2.5 28.25H6.25" stroke="currentColor" stroke-width="1.3" stroke-linecap="round" stroke-linejoin="round"/>
  <path d="M32.5 19.5H1.25" stroke="currentColor" stroke-width="1.3" stroke-linecap="round" stroke-linejoin="round"/>
</svg>