<svg xmlns="http://www.w3.org/2000/svg" width="40" height="41" viewBox="0 0 40 41" fill="none">
  <g clip-path="url(#clip0_4334_24432)">
    <path d="M30 34.5L30 7C30 5.61929 28.8807 4.5 27.5 4.5L12.5 4.5C11.1193 4.5 10 5.61929 10 7L10 34.5C10 35.8807 11.1193 37 12.5 37H27.5C28.8807 37 30 35.8807 30 34.5Z" stroke="currentColor" stroke-width="1.5" stroke-linecap="round" stroke-linejoin="round"/>
    <path d="M21.125 10.125C21.125 10.7463 20.6213 11.25 20 11.25C19.3787 11.25 18.875 10.7463 18.875 10.125C18.875 9.50368 19.3787 9 20 9C20.6213 9 21.125 9.50368 21.125 10.125Z" fill="#241E46" stroke="currentColor" stroke-width="1.5"/>
  </g>
  <defs>
    <clipPath id="clip0_4334_24432">
      <rect width="40" height="40" fill="white" transform="translate(0 0.75)"/>
    </clipPath>
  </defs>
</svg>