<svg xmlns="http://www.w3.org/2000/svg" width="40" height="41" viewBox="0 0 40 41" fill="none">
  <g clip-path="url(#clip0_4334_24520)">
    <path d="M12.5 25.75V35.75" stroke="currentColor" stroke-width="1.3" stroke-linecap="round" stroke-linejoin="round"/>
    <path d="M12.5 19.5C15.2614 19.5 17.5 18.1009 17.5 16.375C17.5 14.6491 15.2614 13.25 12.5 13.25C9.73858 13.25 7.5 14.6491 7.5 16.375C7.5 18.1009 9.73858 19.5 12.5 19.5Z" stroke="currentColor" stroke-width="1.3" stroke-linecap="round" stroke-linejoin="round"/>
    <path d="M25 13.25C27.7614 13.25 30 11.8509 30 10.125C30 8.39911 27.7614 7 25 7C22.2386 7 20 8.39911 20 10.125C20 11.8509 22.2386 13.25 25 13.25Z" stroke="currentColor" stroke-width="1.3" stroke-linecap="round" stroke-linejoin="round"/>
    <path d="M2.5 20.75L12.5 25.75L37.5 13.25L29.8797 9.43909" stroke="currentColor" stroke-width="1.3" stroke-linecap="round" stroke-linejoin="round"/>
    <path d="M20.6551 11.6719L15.8691 14.0656" stroke="currentColor" stroke-width="1.3" stroke-linecap="round" stroke-linejoin="round"/>
    <path d="M37.5 13.25V23.25L12.5 35.75L2.5 30.75V20.75L8.15469 17.9219" stroke="currentColor" stroke-width="1.3" stroke-linecap="round" stroke-linejoin="round"/>
  </g>
  <defs>
    <clipPath id="clip0_4334_24520">
      <rect width="40" height="40" fill="white" transform="translate(0 0.75)"/>
    </clipPath>
  </defs>
</svg>