<svg width="630" height="335" viewBox="0 0 630 335" fill="none" xmlns="http://www.w3.org/2000/svg">
<g filter="url(#filter0_d_1_125203)">
<g clip-path="url(#clip0_1_125203)">
<rect x="46.3359" y="32" width="529.667" height="323.685" rx="13.2685" fill="white"/>
<rect x="78.5596" y="63.2761" width="111.075" height="14.455" rx="7.22751" fill="#F5F5F5"/>
<rect x="78.5596" y="87.6213" width="190.198" height="11.4119" rx="5.70593" fill="#F5F5F5"/>
<line x1="78.5596" y1="125.483" x2="692.703" y2="125.483" stroke="#F5F5F5" stroke-width="0.687923"/>
<g clip-path="url(#clip1_1_125203)">
<line x1="118.303" y1="151.49" x2="494.809" y2="151.49" stroke="#D7D1F9" stroke-width="0.343962"/>
<line x1="118.303" y1="178.32" x2="494.809" y2="178.32" stroke="#D7D1F9" stroke-width="0.343962"/>
<line x1="118.303" y1="205.836" x2="494.809" y2="205.836" stroke="#D7D1F9" stroke-width="0.343962"/>
<line x1="118.303" y1="233.353" x2="494.809" y2="233.353" stroke="#D7D1F9" stroke-width="0.343962"/>
<line x1="118.303" y1="260.87" x2="494.809" y2="260.87" stroke="#D7D1F9" stroke-width="0.343962"/>
<line x1="118.303" y1="288.388" x2="494.809" y2="288.388" stroke="#D7D1F9" stroke-width="0.343962"/>
<rect x="71.5229" y="144.783" width="38.8578" height="8.52976" rx="4.26488" fill="#F5F5F5"/>
<rect x="71.5229" y="172.933" width="38.8578" height="8.52976" rx="4.26488" fill="#F5F5F5"/>
<rect x="73.4185" y="201.083" width="36.9623" height="8.52976" rx="4.26488" fill="#F5F5F5"/>
<rect x="73.4185" y="229.233" width="36.9623" height="8.52976" rx="4.26488" fill="#F5F5F5"/>
<rect x="77.2095" y="257.383" width="33.1713" height="8.52976" rx="4.26488" fill="#F5F5F5"/>
<rect x="98.0601" y="285.532" width="12.3208" height="8.52976" rx="4.26488" fill="#F5F5F5"/>
<rect x="126.851" y="213.216" width="29.6218" height="22.7015" rx="0.687923" fill="#FAAD14" stroke="#FAAD14" stroke-width="0.687923"/>
<rect x="126.507" y="236.949" width="30.3097" height="32.3324" rx="1.03188" fill="#E85912"/>
<rect x="126.507" y="269.969" width="30.3097" height="24.0773" rx="1.03188" fill="#1890FF"/>
<rect x="132.267" y="311.245" width="18.791" height="7.58201" rx="3.79101" fill="#F5F5F5"/>
<rect x="173.571" y="200.146" width="29.6218" height="15.1343" rx="0.687923" fill="#FAAD14" stroke="#FAAD14" stroke-width="0.687923"/>
<rect x="173.227" y="216.312" width="30.3097" height="42.6512" rx="1.03188" fill="#E85912"/>
<rect x="173.227" y="259.651" width="30.3097" height="34.3962" rx="1.03188" fill="#1890FF"/>
<rect x="178.986" y="311.246" width="18.791" height="7.58201" rx="3.79101" fill="#F5F5F5"/>
<rect x="220.291" y="188.451" width="29.6218" height="23.3894" rx="0.687923" fill="#FAAD14" stroke="#FAAD14" stroke-width="0.687923"/>
<rect x="219.947" y="212.872" width="30.3097" height="58.4735" rx="1.03188" fill="#E85912"/>
<rect x="219.947" y="272.033" width="30.3097" height="22.0135" rx="1.03188" fill="#1890FF"/>
<rect x="225.184" y="311.246" width="19.8349" height="7.58201" rx="3.79101" fill="#F5F5F5"/>
<rect x="267.009" y="207.026" width="29.6218" height="22.7015" rx="0.687923" fill="#FAAD14" stroke="#FAAD14" stroke-width="0.687923"/>
<rect x="266.665" y="230.759" width="30.3097" height="25.4532" rx="1.03188" fill="#E85912"/>
<rect x="266.665" y="256.9" width="30.3097" height="37.1479" rx="1.03188" fill="#1890FF"/>
<rect x="272.948" y="311.246" width="17.747" height="7.58201" rx="3.79101" fill="#F5F5F5"/>
<rect x="313.73" y="176.07" width="29.6218" height="27.5169" rx="0.687923" fill="#FAAD14" stroke="#FAAD14" stroke-width="0.687923"/>
<rect x="313.386" y="204.619" width="30.3097" height="39.8995" rx="1.03188" fill="#E85912"/>
<rect x="313.386" y="245.206" width="30.3097" height="48.8426" rx="1.03188" fill="#1890FF"/>
<rect x="317.58" y="311.246" width="21.9228" height="7.58201" rx="3.79101" fill="#F5F5F5"/>
<rect x="360.447" y="171.942" width="29.6218" height="38.5237" rx="0.687923" fill="#FAAD14" stroke="#FAAD14" stroke-width="0.687923"/>
<rect x="360.104" y="211.497" width="30.3097" height="39.8995" rx="1.03188" fill="#E85912"/>
<rect x="360.104" y="252.085" width="30.3097" height="41.9633" rx="1.03188" fill="#1890FF"/>
<rect x="365.863" y="311.246" width="18.791" height="7.58201" rx="3.79101" fill="#F5F5F5"/>
<rect x="407.167" y="207.026" width="29.6218" height="34.3962" rx="0.687923" fill="#FAAD14" stroke="#FAAD14" stroke-width="0.687923"/>
<rect x="406.823" y="242.454" width="30.3097" height="13.7585" rx="1.03188" fill="#E85912"/>
<rect x="406.823" y="256.9" width="30.3097" height="37.1479" rx="1.03188" fill="#1890FF"/>
<rect x="411.539" y="311.246" width="20.8789" height="7.58201" rx="3.79101" fill="#F5F5F5"/>
<rect x="453.886" y="225.599" width="29.6218" height="15.1343" rx="0.687923" fill="#FAAD14" stroke="#FAAD14" stroke-width="0.687923"/>
<rect x="453.542" y="241.765" width="30.3097" height="22.0135" rx="1.03188" fill="#E85912"/>
<rect x="453.542" y="264.467" width="30.3097" height="29.5807" rx="1.03188" fill="#1890FF"/>
<rect x="458.782" y="311.246" width="19.8349" height="7.58201" rx="3.79101" fill="#F5F5F5"/>
<circle cx="515.634" cy="148.574" r="2.40773" fill="#FAAD14" stroke="#FAAD14" stroke-width="0.687923"/>
<rect x="524.072" y="144.783" width="24.6415" height="7.58201" rx="3.79101" fill="#F5F5F5"/>
<circle cx="515.634" cy="161.659" r="2.75169" fill="#E85912"/>
<rect x="524.072" y="157.868" width="19.9028" height="7.58201" rx="3.79101" fill="#F5F5F5"/>
<circle cx="515.634" cy="174.745" r="2.75169" fill="#1890FF"/>
<rect x="524.072" y="170.954" width="27.4848" height="7.58201" rx="3.79101" fill="#F5F5F5"/>
</g>
</g>
<rect x="45.591" y="31.255" width="531.157" height="325.175" rx="14.0135" stroke="#F5F5F5" stroke-width="1.48996"/>
</g>
<defs>
<filter id="filter0_d_1_125203" x="0.147463" y="-14.1887" width="651.843" height="445.862" filterUnits="userSpaceOnUse" color-interpolation-filters="sRGB">
<feFlood flood-opacity="0" result="BackgroundImageFix"/>
<feColorMatrix in="SourceAlpha" type="matrix" values="0 0 0 0 0 0 0 0 0 0 0 0 0 0 0 0 0 0 127 0" result="hardAlpha"/>
<feOffset dx="14.8996" dy="14.8996"/>
<feGaussianBlur stdDeviation="29.7992"/>
<feColorMatrix type="matrix" values="0 0 0 0 0 0 0 0 0 0 0 0 0 0 0 0 0 0 0.05 0"/>
<feBlend mode="normal" in2="BackgroundImageFix" result="effect1_dropShadow_1_125203"/>
<feBlend mode="normal" in="SourceGraphic" in2="effect1_dropShadow_1_125203" result="shape"/>
</filter>
<clipPath id="clip0_1_125203">
<rect x="46.3359" y="32" width="529.667" height="323.685" rx="13.2685" fill="white"/>
</clipPath>
<clipPath id="clip1_1_125203">
<rect width="480.034" height="174.045" fill="white" transform="translate(71.5229 144.783)"/>
</clipPath>
</defs>
</svg>
