<svg width="630" height="335" viewBox="0 0 630 335" fill="none" xmlns="http://www.w3.org/2000/svg">
    <g filter="url(#filter0_d_2024_24361)">
        <g clip-path="url(#clip0_2024_24361)">
            <rect x="46.334" y="32" width="529.667" height="323.685" rx="13.2685" fill="white"/>
            <rect x="78.5576" y="63.2759" width="111.075" height="14.455" rx="7.22751" fill="#F5F5F5"/>
            <rect x="78.5576" y="87.6211" width="190.198" height="11.4119" rx="5.70593" fill="#F5F5F5"/>
            <line x1="78.5576" y1="125.483" x2="692.701" y2="125.483" stroke="#F5F5F5" stroke-width="0.687923"/>
            <g clip-path="url(#clip1_2024_24361)">
                <line x1="118.301" y1="151.49" x2="494.807" y2="151.49" stroke="#D7D1F9" stroke-width="0.343962"/>
                <line x1="118.301" y1="178.32" x2="494.807" y2="178.32" stroke="#D7D1F9" stroke-width="0.343962"/>
                <line x1="118.301" y1="205.836" x2="494.807" y2="205.836" stroke="#D7D1F9" stroke-width="0.343962"/>
                <line x1="118.301" y1="233.353" x2="494.807" y2="233.353" stroke="#D7D1F9" stroke-width="0.343962"/>
                <line x1="118.301" y1="260.87" x2="494.807" y2="260.87" stroke="#D7D1F9" stroke-width="0.343962"/>
                <line x1="118.301" y1="288.388" x2="494.807" y2="288.388" stroke="#D7D1F9" stroke-width="0.343962"/>
                <rect x="71.5215" y="144.783" width="38.8578" height="8.52976" rx="4.26488" fill="#F5F5F5"/>
                <rect x="71.5215" y="172.933" width="38.8578" height="8.52976" rx="4.26488" fill="#F5F5F5"/>
                <rect x="73.417" y="201.083" width="36.9623" height="8.52976" rx="4.26488" fill="#F5F5F5"/>
                <rect x="73.417" y="229.232" width="36.9623" height="8.52976" rx="4.26488" fill="#F5F5F5"/>
                <rect x="77.208" y="257.382" width="33.1713" height="8.52976" rx="4.26488" fill="#F5F5F5"/>
                <rect x="98.0586" y="285.532" width="12.3208" height="8.52976" rx="4.26488" fill="#F5F5F5"/>
                <rect x="126.849" y="213.217" width="29.6218" height="22.7015" rx="0.687923" fill="#FAAD14" stroke="#FAAD14" stroke-width="0.687923"/>
                <rect x="126.505" y="236.949" width="30.3097" height="32.3324" rx="1.03188" fill="#E85912"/>
                <rect x="126.505" y="269.97" width="30.3097" height="24.0773" rx="1.03188" fill="#1890FF"/>
                <rect x="132.265" y="311.246" width="18.791" height="7.58201" rx="3.79101" fill="#F5F5F5"/>
                <rect x="173.569" y="200.146" width="29.6218" height="15.1343" rx="0.687923" fill="#FAAD14" stroke="#FAAD14" stroke-width="0.687923"/>
                <rect x="173.225" y="216.312" width="30.3097" height="42.6512" rx="1.03188" fill="#E85912"/>
                <rect x="173.225" y="259.651" width="30.3097" height="34.3962" rx="1.03188" fill="#1890FF"/>
                <rect x="178.984" y="311.246" width="18.791" height="7.58201" rx="3.79101" fill="#F5F5F5"/>
                <rect x="220.289" y="188.451" width="29.6218" height="23.3894" rx="0.687923" fill="#FAAD14" stroke="#FAAD14" stroke-width="0.687923"/>
                <rect x="219.945" y="212.872" width="30.3097" height="58.4735" rx="1.03188" fill="#E85912"/>
                <rect x="219.945" y="272.033" width="30.3097" height="22.0135" rx="1.03188" fill="#1890FF"/>
                <rect x="225.182" y="311.245" width="19.8349" height="7.58201" rx="3.79101" fill="#F5F5F5"/>
                <rect x="267.007" y="207.026" width="29.6218" height="22.7015" rx="0.687923" fill="#FAAD14" stroke="#FAAD14" stroke-width="0.687923"/>
                <rect x="266.663" y="230.759" width="30.3097" height="25.4532" rx="1.03188" fill="#E85912"/>
                <rect x="266.663" y="256.9" width="30.3097" height="37.1479" rx="1.03188" fill="#1890FF"/>
                <rect x="272.946" y="311.246" width="17.747" height="7.58201" rx="3.79101" fill="#F5F5F5"/>
                <rect x="313.728" y="176.07" width="29.6218" height="27.5169" rx="0.687923" fill="#FAAD14" stroke="#FAAD14" stroke-width="0.687923"/>
                <rect x="313.384" y="204.619" width="30.3097" height="39.8995" rx="1.03188" fill="#E85912"/>
                <rect x="313.384" y="245.206" width="30.3097" height="48.8426" rx="1.03188" fill="#1890FF"/>
                <rect x="317.577" y="311.246" width="21.9228" height="7.58201" rx="3.79101" fill="#F5F5F5"/>
                <rect x="360.446" y="171.942" width="29.6218" height="38.5237" rx="0.687923" fill="#FAAD14" stroke="#FAAD14" stroke-width="0.687923"/>
                <rect x="360.102" y="211.497" width="30.3097" height="39.8995" rx="1.03188" fill="#E85912"/>
                <rect x="360.102" y="252.085" width="30.3097" height="41.9633" rx="1.03188" fill="#1890FF"/>
                <rect x="365.861" y="311.247" width="18.791" height="7.58201" rx="3.79101" fill="#F5F5F5"/>
                <rect x="407.165" y="207.026" width="29.6218" height="34.3962" rx="0.687923" fill="#FAAD14" stroke="#FAAD14" stroke-width="0.687923"/>
                <rect x="406.821" y="242.454" width="30.3097" height="13.7585" rx="1.03188" fill="#E85912"/>
                <rect x="406.821" y="256.9" width="30.3097" height="37.1479" rx="1.03188" fill="#1890FF"/>
                <rect x="411.537" y="311.246" width="20.8789" height="7.58201" rx="3.79101" fill="#F5F5F5"/>
                <rect x="453.884" y="225.599" width="29.6218" height="15.1343" rx="0.687923" fill="#FAAD14" stroke="#FAAD14" stroke-width="0.687923"/>
                <rect x="453.541" y="241.765" width="30.3097" height="22.0135" rx="1.03188" fill="#E85912"/>
                <rect x="453.541" y="264.466" width="30.3097" height="29.5807" rx="1.03188" fill="#1890FF"/>
                <rect x="458.78" y="311.246" width="19.8349" height="7.58201" rx="3.79101" fill="#F5F5F5"/>
                <circle cx="515.632" cy="148.574" r="2.40773" fill="#FAAD14" stroke="#FAAD14" stroke-width="0.687923"/>
                <rect x="524.07" y="144.783" width="24.6415" height="7.58201" rx="3.79101" fill="#F5F5F5"/>
                <circle cx="515.632" cy="161.659" r="2.75169" fill="#E85912"/>
                <rect x="524.07" y="157.868" width="19.9028" height="7.58201" rx="3.79101" fill="#F5F5F5"/>
                <circle cx="515.632" cy="174.745" r="2.75169" fill="#1890FF"/>
                <rect x="524.07" y="170.954" width="27.4848" height="7.58201" rx="3.79101" fill="#F5F5F5"/>
            </g>
        </g>
        <rect x="45.589" y="31.255" width="531.157" height="325.175" rx="14.0135" stroke="#F5F5F5" stroke-width="1.48996"/>
    </g>
    <defs>
        <filter id="filter0_d_2024_24361" x="0.145021" y="-14.1885" width="651.844" height="445.862" filterUnits="userSpaceOnUse" color-interpolation-filters="sRGB">
            <feFlood flood-opacity="0" result="BackgroundImageFix"/>
            <feColorMatrix in="SourceAlpha" type="matrix" values="0 0 0 0 0 0 0 0 0 0 0 0 0 0 0 0 0 0 127 0" result="hardAlpha"/>
            <feOffset dx="14.8996" dy="14.8996"/>
            <feGaussianBlur stdDeviation="29.7992"/>
            <feColorMatrix type="matrix" values="0 0 0 0 0 0 0 0 0 0 0 0 0 0 0 0 0 0 0.05 0"/>
            <feBlend mode="normal" in2="BackgroundImageFix" result="effect1_dropShadow_2024_24361"/>
            <feBlend mode="normal" in="SourceGraphic" in2="effect1_dropShadow_2024_24361" result="shape"/>
        </filter>
        <clipPath id="clip0_2024_24361">
            <rect x="46.334" y="32" width="529.667" height="323.685" rx="13.2685" fill="white"/>
        </clipPath>
        <clipPath id="clip1_2024_24361">
            <rect width="480.034" height="174.045" fill="white" transform="translate(71.5215 144.783)"/>
        </clipPath>
    </defs>
</svg>
