<svg width="270" height="254" viewBox="0 0 270 254" fill="none" xmlns="http://www.w3.org/2000/svg">
<g filter="url(#filter0_d_1_125283)">
<rect x="28" y="28.7695" width="195.445" height="195.823" rx="8.03006" fill="white"/>
<rect x="27.5491" y="28.3187" width="196.347" height="196.725" rx="8.48092" stroke="#F5F5F5" stroke-width="0.901717"/>
<rect x="47.8228" y="47.9412" width="67.2224" height="8.74812" rx="4.37406" fill="#F5F5F5"/>
<rect x="47.8228" y="62.6748" width="115.107" height="6.90641" rx="3.45321" fill="#F5F5F5"/>
<path d="M47.6821 85.7974L203.947 85.7974" stroke="#F5F5F5" stroke-width="0.437105"/>
<rect x="59.4722" y="204.731" width="3.44146" height="3.49684" rx="1.72073" fill="#1890FF"/>
<rect x="67.2847" y="203.612" width="26.6634" height="5.73576" rx="2.86788" fill="#F5F5F5"/>
<rect x="104.438" y="204.731" width="3.44146" height="3.49684" rx="1.72073" fill="#FAAD14"/>
<rect x="112.251" y="203.612" width="26.6634" height="5.73576" rx="2.86788" fill="#F5F5F5"/>
<rect x="149.405" y="204.731" width="3.44146" height="3.49684" rx="1.72073" fill="#E85912"/>
<rect x="157.218" y="203.612" width="26.6634" height="5.73576" rx="2.86788" fill="#F5F5F5"/>
<rect x="40.6182" y="104.152" width="12.2389" height="5.16218" rx="2.58109" fill="#F5F5F5"/>
<rect x="40.6182" y="115.623" width="12.2389" height="5.16218" rx="2.58109" fill="#F5F5F5"/>
<rect x="40.6182" y="127.095" width="12.2389" height="5.16218" rx="2.58109" fill="#F5F5F5"/>
<rect x="40.6182" y="138.566" width="12.2389" height="5.16218" rx="2.58109" fill="#F5F5F5"/>
<rect x="40.6182" y="150.038" width="12.2389" height="5.16218" rx="2.58109" fill="#F5F5F5"/>
<rect x="40.6182" y="161.51" width="12.2389" height="5.16218" rx="2.58109" fill="#F5F5F5"/>
<rect x="40.6182" y="172.981" width="12.2389" height="5.16218" rx="2.58109" fill="#F5F5F5"/>
<rect x="62.5308" y="183.305" width="12.2389" height="6.55658" rx="3.27829" fill="#F5F5F5"/>
<rect x="86.2412" y="183.305" width="12.2389" height="6.55658" rx="3.27829" fill="#F5F5F5"/>
<rect x="109.952" y="183.305" width="12.2389" height="6.55658" rx="3.27829" fill="#F5F5F5"/>
<rect x="133.662" y="183.305" width="12.2389" height="6.55658" rx="3.27829" fill="#F5F5F5"/>
<rect x="157.373" y="183.305" width="12.2389" height="6.55658" rx="3.27829" fill="#F5F5F5"/>
<rect x="181.083" y="183.305" width="12.2389" height="6.55658" rx="3.27829" fill="#F5F5F5"/>
<rect x="60.9432" y="105.044" width="145.465" height="72.5595" stroke="#F5F5F5" stroke-width="0.437105"/>
<path d="M60.7246 128.866H206.627" stroke="#F5F5F5" stroke-width="0.437105"/>
<path d="M60.7246 117.064H206.627" stroke="#F5F5F5" stroke-width="0.437105"/>
<path d="M60.7246 140.668H206.627" stroke="#F5F5F5" stroke-width="0.437105"/>
<path d="M60.7246 152.47H206.627" stroke="#F5F5F5" stroke-width="0.437105"/>
<path d="M60.7246 164.272H206.627" stroke="#F5F5F5" stroke-width="0.437105"/>
<path d="M85.2695 104.825L85.2695 177.822" stroke="#F5F5F5" stroke-width="0.437105"/>
<path d="M109.358 104.825L109.358 177.822" stroke="#F5F5F5" stroke-width="0.437105"/>
<path d="M133.448 104.825L133.448 177.822" stroke="#F5F5F5" stroke-width="0.437105"/>
<path d="M157.539 104.825L157.539 177.822" stroke="#F5F5F5" stroke-width="0.437105"/>
<path d="M181.628 104.825L181.628 177.822" stroke="#F5F5F5" stroke-width="0.437105"/>
<path d="M60.9526 117.065V140.668H157.766L133.222 105.263L109.359 117.065L85.2696 128.648L60.9526 117.065Z" fill="#1890FF"/>
<path d="M181.401 152.689L157.766 140.668H206.173V177.385L181.401 152.689Z" fill="#1890FF"/>
<ellipse cx="60.9526" cy="152.689" rx="1.59083" ry="1.52987" fill="#FAAD14"/>
<ellipse cx="85.4976" cy="129.085" rx="1.59083" ry="1.52987" fill="#FAAD14"/>
<ellipse cx="109.587" cy="152.689" rx="1.59083" ry="1.52987" fill="#FAAD14"/>
<ellipse cx="133.676" cy="164.054" rx="1.59083" ry="1.52987" fill="#FAAD14"/>
<ellipse cx="157.766" cy="129.085" rx="1.59083" ry="1.52987" fill="#FAAD14"/>
<ellipse cx="181.856" cy="117.283" rx="1.59083" ry="1.52987" fill="#FAAD14"/>
<ellipse cx="206.4" cy="129.085" rx="1.59083" ry="1.52987" fill="#FAAD14"/>
<path d="M60.9526 152.907L85.4969 129.085L109.587 152.907L133.676 164.053L157.993 129.085L182.083 117.064L205.946 129.085" stroke="#FAAD14" stroke-width="0.874211"/>
<path d="M60.9526 140.668L85.2696 152.47L110.041 140.668L133.222 127.555L156.857 117.064L181.629 128.866L206.173 140.668" stroke="#E85912" stroke-width="0.874211" stroke-dasharray="1.75 1.75"/>
<ellipse cx="60.9526" cy="140.887" rx="1.59083" ry="1.52987" fill="#E85912"/>
<ellipse cx="85.4976" cy="152.689" rx="1.59083" ry="1.52987" fill="#E85912"/>
<ellipse cx="109.587" cy="140.887" rx="1.59083" ry="1.52987" fill="#E85912"/>
<ellipse cx="133.676" cy="127.337" rx="1.59083" ry="1.52987" fill="#E85912"/>
<ellipse cx="157.766" cy="117.283" rx="1.59083" ry="1.52987" fill="#E85912"/>
<ellipse cx="181.402" cy="129.085" rx="1.59083" ry="1.52987" fill="#E85912"/>
<ellipse cx="206.4" cy="140.887" rx="1.59083" ry="1.52987" fill="#E85912"/>
</g>
<defs>
<filter id="filter0_d_1_125283" x="0.046629" y="0.816404" width="269.386" height="269.764" filterUnits="userSpaceOnUse" color-interpolation-filters="sRGB">
<feFlood flood-opacity="0" result="BackgroundImageFix"/>
<feColorMatrix in="SourceAlpha" type="matrix" values="0 0 0 0 0 0 0 0 0 0 0 0 0 0 0 0 0 0 127 0" result="hardAlpha"/>
<feOffset dx="9.01717" dy="9.01717"/>
<feGaussianBlur stdDeviation="18.0343"/>
<feColorMatrix type="matrix" values="0 0 0 0 0 0 0 0 0 0 0 0 0 0 0 0 0 0 0.05 0"/>
<feBlend mode="normal" in2="BackgroundImageFix" result="effect1_dropShadow_1_125283"/>
<feBlend mode="normal" in="SourceGraphic" in2="effect1_dropShadow_1_125283" result="shape"/>
</filter>
</defs>
</svg>
