<svg xmlns="http://www.w3.org/2000/svg" width="156" height="38" viewBox="0 0 156 38" fill="none">
    <path d="M48.2561 14.5628C46.9088 14.5628 45.8346 15.0019 45.0336 15.8795C44.2317 16.7579 43.7599 17.9722 43.6173 19.5234H52.3898C52.3898 17.9216 52.0324 16.6938 51.3182 15.8415C50.6034 14.9893 49.5827 14.5628 48.2561 14.5628ZM48.945 29.8281C46.4649 29.8281 44.5074 29.0731 43.0738 27.5621C41.6397 26.0511 40.9226 23.9541 40.9226 21.269C40.9226 18.5645 41.5885 16.4157 42.9209 14.8236C44.2524 13.2313 46.0411 12.4351 48.2869 12.4351C50.389 12.4351 52.0531 13.1266 53.2777 14.5099C54.5025 15.893 55.1149 17.7168 55.1149 19.9829V21.5908H43.556C43.6066 23.561 44.1046 25.0565 45.0485 26.0766C45.9925 27.0974 47.3223 27.6078 49.037 27.6078C50.8435 27.6078 52.6296 27.2305 54.3956 26.4746V28.7407C53.4971 29.1291 52.6474 29.4069 51.8461 29.5757C51.0448 29.7436 50.0781 29.8281 48.945 29.8281Z" fill="#241E46"/>
    <path d="M62.4313 17.9775H65.9985C67.8358 17.9775 69.1828 17.6123 70.0402 16.8825C70.8976 16.1528 71.3263 15.0578 71.3263 13.5986C71.3263 12.1183 70.8901 11.0519 70.0172 10.3983C69.1449 9.74559 67.7438 9.41838 65.8148 9.41838H62.4313V17.9775ZM62.4313 20.2128V29.5217H59.8286V7.13735H65.9678C68.7133 7.13735 70.7421 7.66326 72.0537 8.71391C73.3648 9.76572 74.0209 11.3475 74.0209 13.4603C74.0209 16.421 72.5207 18.4211 69.5198 19.4623L75.598 29.5217H72.5207L67.1009 20.2128H62.4313Z" fill="#241E46"/>
    <path d="M85.229 14.5628C83.8817 14.5628 82.8075 15.0019 82.0065 15.8795C81.2046 16.7579 80.7328 17.9722 80.5902 19.5234H89.3627C89.3627 17.9216 89.0053 16.6938 88.2911 15.8415C87.5763 14.9893 86.5556 14.5628 85.229 14.5628ZM85.9179 29.8281C83.4378 29.8281 81.4803 29.0731 80.0467 27.5621C78.6126 26.0511 77.8955 23.9541 77.8955 21.269C77.8955 18.5645 78.5614 16.4157 79.8938 14.8236C81.2253 13.2313 83.014 12.4351 85.2598 12.4351C87.3619 12.4351 89.026 13.1266 90.2506 14.5099C91.4754 15.893 92.0878 17.7168 92.0878 19.9829V21.5908H80.5289C80.5795 23.561 81.0775 25.0565 82.0214 26.0766C82.9654 27.0974 84.2952 27.6078 86.0099 27.6078C87.8164 27.6078 89.6025 27.2305 91.3685 26.4746V28.7407C90.47 29.1291 89.6203 29.4069 88.819 29.5757C88.0177 29.7436 87.051 29.8281 85.9179 29.8281Z" fill="#241E46"/>
    <path d="M103.86 14.5933C102.145 14.5933 100.905 15.0683 100.14 16.0174C99.3743 16.9669 98.9812 18.4776 98.9611 20.5496V21.1157C98.9611 23.4735 99.3539 25.1608 100.14 26.1763C100.925 27.1922 102.186 27.6994 103.921 27.6994C105.371 27.6994 106.506 27.1131 107.328 25.9388C108.149 24.7648 108.56 23.1472 108.56 21.0849C108.56 18.9931 108.149 17.3881 107.328 16.2699C106.506 15.1528 105.35 14.5933 103.86 14.5933ZM104.228 29.8278C103.135 29.8278 102.138 29.6262 101.234 29.2228C100.331 28.8197 99.5733 28.1997 98.9611 27.3624H98.7774C98.8999 28.3424 98.9611 29.2714 98.9611 30.1489V37.0547H96.4194V12.7409H98.4864L98.8386 15.0378H98.9611C99.6141 14.1191 100.374 13.4558 101.242 13.0472C102.109 12.6386 103.105 12.4347 104.228 12.4347C106.452 12.4347 108.17 13.1953 109.379 14.7157C110.589 16.2371 111.194 18.37 111.194 21.1157C111.194 23.8715 110.579 26.0127 109.349 27.5387C108.119 29.0646 106.412 29.8278 104.228 29.8278Z" fill="#241E46"/>
    <path d="M117.335 21.1158C117.335 23.2594 117.763 24.8926 118.621 26.0151C119.478 27.1385 120.738 27.6995 122.402 27.6995C124.066 27.6995 125.329 27.1408 126.192 26.0235C127.054 24.9055 127.485 23.2697 127.485 21.1158C127.485 18.9829 127.054 17.3629 126.192 16.2553C125.329 15.1477 124.056 14.5933 122.372 14.5933C120.708 14.5933 119.452 15.1402 118.605 16.232C117.758 17.3241 117.335 18.9521 117.335 21.1158ZM130.118 21.1158C130.118 23.8517 129.429 25.9875 128.052 27.5238C126.674 29.0601 124.77 29.8281 122.341 29.8281C120.841 29.8281 119.509 29.4756 118.345 28.7711C117.181 28.067 116.283 27.0563 115.651 25.7397C115.017 24.423 114.701 22.8821 114.701 21.1158C114.701 18.3808 115.385 16.2498 116.753 14.7242C118.12 13.1982 120.019 12.4351 122.448 12.4351C124.795 12.4351 126.661 13.2155 128.044 14.7771C129.427 16.339 130.118 18.4518 130.118 21.1158Z" fill="#241E46"/>
    <path d="M142.228 12.4352C142.973 12.4352 143.641 12.4964 144.233 12.6189L143.881 14.9767C143.187 14.8237 142.575 14.7467 142.044 14.7467C140.686 14.7467 139.526 15.2979 138.561 16.4003C137.597 17.5027 137.114 18.8762 137.114 20.5192V29.522H134.573V12.7414H136.67L136.961 15.8491H137.084C137.706 14.7573 138.456 13.9154 139.334 13.3231C140.212 12.731 141.176 12.4352 142.228 12.4352Z" fill="#241E46"/>
    <path d="M155.667 27.474V29.3944C155.395 29.5244 154.993 29.6334 154.464 29.7179C153.934 29.8056 153.46 29.8481 153.036 29.8481C149.834 29.8481 148.231 28.1606 148.231 24.7855V14.9354H145.86V12.6831H148.267V0.945335H150.741V12.6831H155.546V14.9354H150.741V24.6797C150.741 25.6774 150.977 26.4426 151.452 26.978C151.923 27.5102 152.573 27.7764 153.399 27.7764C153.844 27.7764 154.27 27.7463 154.684 27.6795C155.096 27.6131 155.425 27.5464 155.667 27.474Z" fill="#241E46"/>
    <path d="M19.2058 8.05469H0V1.05469H21.9782C22.7368 1.05469 23.2303 1.82335 22.8909 2.4768L20.3468 7.37569C20.1307 7.79183 19.689 8.05469 19.2058 8.05469Z" fill="#E48939"/>
    <path d="M24.3955 22.6343H0V29.8276H27.5468C28.1097 29.8276 28.4757 29.2352 28.2241 28.7318L25.5243 23.3321C25.3105 22.9044 24.8736 22.6343 24.3955 22.6343Z" fill="#EF4438"/>
    <path d="M19.0008 11.8438H0V19.0371H22.1522C22.7151 19.0371 23.0811 18.4446 22.8294 17.9413L20.1297 12.5415C19.9159 12.1139 19.4789 11.8438 19.0008 11.8438Z" fill="#F26539"/>
</svg>