<svg width="1350" height="176" viewBox="0 0 1350 176" fill="none" xmlns="http://www.w3.org/2000/svg">
    <g clip-path="url(#clip0_8586_219041)">
        <path d="M217.961 130.788L243.366 3.65723L288.856 104.626L334.527 3.65723L359.932 130.788H345.658L329.545 49.4298H329.208L288.856 135.725L248.685 49.4298H248.348L232.234 130.788H217.961Z" fill="#191946" stroke="#191945" stroke-miterlimit="10"/>
        <path d="M390.834 96.0101C390.992 103.19 393.326 109.248 398.151 114.027C402.976 118.65 408.945 121.05 416.419 121.05C426.226 121.05 434.193 115.957 440.163 105.568L451.451 111.784C443.641 125.83 431.523 132.83 415.431 132.83C403.963 132.83 394.672 129.173 387.693 121.813C380.713 114.476 377.234 105.232 377.234 94.2151C377.234 82.57 380.556 73.1686 387.042 65.6521C393.842 57.6868 403.312 53.6929 415.095 53.6929C426.877 53.6929 436.684 58.0009 443.484 66.4598C449.948 74.2681 452.776 84.163 452.125 95.9652H390.857L390.834 96.0101ZM438.143 85.1727C436.325 74.1559 426.697 65.5623 415.229 65.5623C409.417 65.5623 404.098 67.4695 399.452 71.3063C394.964 74.9861 392.316 79.6082 391.485 85.1952H438.143V85.1727Z" fill="#191946" stroke="#191945" stroke-miterlimit="10"/>
        <path d="M492.611 67.6265V130.788H479.325V67.6265H471.201V55.8244H479.325V28.8545H492.611V55.8244H506.548V67.6265H492.611Z" fill="#191946" stroke="#191945" stroke-miterlimit="10"/>
        <path d="M539.448 55.802V63.9469H539.785C545.104 57.081 550.916 53.7378 557.043 53.7378C560.701 53.7378 564.673 54.8597 569.005 57.238L562.698 68.8831C559.22 66.6618 556.549 65.5399 554.731 65.5399C544.61 65.5399 539.448 74.7842 539.448 93.2952V130.788H526.162V55.802H539.448Z" fill="#191946" stroke="#191945" stroke-miterlimit="10"/>
        <path d="M609.334 27.5757C609.334 32.669 605.182 36.6629 599.863 36.6629C594.544 36.6629 590.393 32.669 590.393 27.5757C590.393 22.4824 594.702 18.4885 599.863 18.4885C605.025 18.4885 609.334 22.6395 609.334 27.5757ZM606.506 55.8021V130.766H593.22V55.8021H606.506Z" fill="#191946" stroke="#191945" stroke-miterlimit="10"/>
        <path d="M700.495 78.1498H700.158C693.358 69.6909 685.211 65.5399 675.92 65.5399C667.953 65.5399 661.31 68.2549 656.171 73.6848C651.031 78.9576 648.361 85.4869 648.361 93.2952C648.361 101.103 650.852 107.498 655.677 112.749C660.816 118.335 667.302 121.05 675.269 121.05C685.391 121.05 693.874 116.742 700.674 108.126H701.011V125.201C693.201 130.295 684.897 132.853 676.279 132.853C664.317 132.853 654.353 129.195 646.565 121.679C638.756 114.184 634.783 104.761 634.783 93.2952C634.783 81.8296 638.778 72.5629 646.745 65.0687C654.869 57.5746 664.676 53.7378 676.459 53.7378C685.256 53.7378 693.223 56.2957 700.539 61.2319V78.1498H700.495Z" fill="#191946" stroke="#191945" stroke-miterlimit="10"/>
        <path d="M38.9824 65.9456V139.047H1.99737C0.897696 139.047 0 138.15 0 137.05V40.7483L38.9824 65.9456Z" fill="#E28225"/>
        <path d="M56.3984 53.0665V136.108C56.3984 137.634 57.6328 138.868 59.1364 138.868H93.1366C93.563 138.868 93.8997 138.531 93.8997 138.105V32.9624C93.8997 32.3791 93.2937 32.0201 92.7776 32.3117L56.78 52.4158C56.5331 52.5504 56.3984 52.7972 56.3984 53.0665Z" fill="#EF5C25"/>
        <path d="M112.863 20.7341V136.938C112.863 138.037 113.761 138.935 114.861 138.935H150.656V0.495418C150.656 0.158855 150.297 -0.0430833 150.028 0.113979L112.886 20.7565L112.863 20.7341Z" fill="#EC3324"/>
        <path d="M38.9825 139.047C38.7581 139.047 38.5337 139.002 38.3317 138.89C37.8379 138.643 37.5462 138.15 37.5462 137.589V66.3494L0.695775 41.9599C0.1796 41.6233 -0.0672667 40.995 0.0898301 40.4117C0.224484 39.8283 0.74066 39.3795 1.3466 39.3122L16.1586 37.7865C16.9441 37.7192 17.7296 37.8987 18.3804 38.325L48.9694 58.2271C49.1265 58.3168 49.2611 58.4514 49.3958 58.6309C49.3958 58.6309 49.4182 58.6758 49.4407 58.6758C49.5978 58.9226 49.6651 59.1919 49.6651 59.4836V129.78C49.6651 130.88 49.1489 131.912 48.2512 132.563L39.8353 138.778C39.5885 138.957 39.2743 139.069 38.9825 139.069V139.047ZM40.4413 66.3494V134.717L46.5456 130.207C46.6803 130.094 46.77 129.937 46.77 129.758V62.1312L40.4413 66.327V66.3494ZM5.65555 41.7804L38.9825 63.8364L45.5806 59.4611L16.8094 40.7482C16.8094 40.7482 16.585 40.6585 16.4503 40.6585L5.67799 41.7804H5.65555Z" fill="#E28225"/>
        <path d="M93.5847 138.733C93.3603 138.733 93.1359 138.688 92.9339 138.576C92.4402 138.329 92.1484 137.835 92.1484 137.274L92.2606 33.5234C92.2606 33.0073 92.53 32.5361 92.9788 32.2669C93.4277 32.02 93.9663 31.9976 94.4151 32.2669L103.055 37.1807C104.133 37.7865 104.806 38.9532 104.806 40.1873V129.219C104.806 130.319 104.267 131.351 103.392 132.002L94.4376 138.464C94.1907 138.643 93.8989 138.733 93.5847 138.733ZM95.1333 36.0139L95.0211 134.447L101.664 129.623C101.799 129.534 101.888 129.376 101.888 129.197V40.1873C101.888 39.9854 101.776 39.8059 101.619 39.7161L95.1333 36.0364V36.0139Z" fill="#EF5C25"/>
        <path d="M150.7 138.912C150.476 138.912 150.229 138.845 150.027 138.733C149.555 138.486 149.264 137.993 149.264 137.454V1.43772C149.264 0.854346 149.623 0.338283 150.139 0.113908C150.655 -0.110468 151.283 0.00172001 151.71 0.405596L161.54 9.87423C162.213 10.5249 162.594 11.4224 162.594 12.3648V129.332C162.594 130.476 162.033 131.531 161.091 132.181L151.53 138.688C151.283 138.845 150.992 138.935 150.722 138.935L150.7 138.912ZM152.136 4.84823V134.739L159.43 129.78C159.587 129.668 159.677 129.511 159.677 129.332V12.3648C159.677 12.2077 159.61 12.0731 159.52 11.9609L152.136 4.84823Z" fill="#EC3324"/>
        <path d="M834.679 94.8209H775.318C775.431 101.821 777.652 107.88 781.961 112.995C786.293 118.111 791.881 120.669 798.748 120.669C808.174 120.669 815.939 115.62 822.021 105.501L834.656 112.659C830.998 119.323 825.949 124.551 819.575 128.32C813.179 132.09 806.154 133.997 798.479 133.997C786.809 133.997 777.406 130.07 770.291 122.195C763.514 114.656 760.125 104.94 760.125 93.0708C760.125 80.5282 763.289 70.5435 769.618 63.1166C776.283 55.1289 785.799 51.135 798.142 51.135C810.486 51.135 819.261 55.1289 825.814 63.0942C831.716 70.521 834.656 80.3038 834.656 92.4874V94.8209H834.679ZM775.969 83.4675H819.665C818.767 77.5215 816.478 72.8097 812.752 69.3318C809.027 65.854 804.157 64.1263 798.165 64.1263C792.173 64.1263 787.46 65.9213 783.398 69.4889C779.336 73.0789 776.867 77.7235 775.969 83.4675Z" fill="url(#paint0_linear_8586_219041)"/>
        <path d="M896.215 76.6466L935.893 131.327H916.885L879.855 78.1499H873.346V131.327H857.682V5.60938H876.69C892.041 5.60938 903.083 7.56144 909.883 11.4431C915.112 14.4498 919.174 18.6456 922.046 24.0306C924.941 29.4156 926.378 35.2269 926.378 41.4421C926.378 50.6639 923.595 58.562 918.052 65.1137C912.486 71.6655 905.215 75.5023 896.215 76.6242V76.6466ZM873.369 19.6328V65.1362H878.374C900.614 65.1362 911.723 57.4625 911.723 42.1377C911.723 26.8128 900.322 19.6328 877.543 19.6328H873.369Z" fill="url(#paint1_linear_8586_219041)"/>
        <path d="M1020.61 94.8209H961.254C961.366 101.821 963.588 107.88 967.897 112.995C972.228 118.111 977.817 120.669 984.684 120.669C994.11 120.669 1001.87 115.62 1007.96 105.501L1020.59 112.659C1016.93 119.323 1011.88 124.551 1005.51 128.32C999.114 132.09 992.09 133.997 984.415 133.997C972.745 133.997 963.341 130.07 956.227 122.195C949.449 114.656 946.061 104.94 946.061 93.0708C946.061 80.5282 949.225 70.5435 955.554 63.1166C962.219 55.1289 971.735 51.135 984.056 51.135C996.376 51.135 1005.17 55.1289 1011.73 63.0942C1017.63 70.521 1020.57 80.3038 1020.57 92.4874V94.8209H1020.61ZM961.905 83.4675H1005.6C1004.7 77.5215 1002.41 72.8097 998.688 69.3318C994.963 65.854 990.093 64.1263 984.1 64.1263C978.108 64.1263 973.395 65.9213 969.333 69.4889C965.271 73.0789 962.803 77.7235 961.905 83.4675Z" fill="url(#paint2_linear_8586_219041)"/>
        <path d="M1055.67 53.289V66.3028C1062.47 56.1835 1071.56 51.135 1082.91 51.135C1094.27 51.135 1102.98 55.2411 1110 63.4532C1116.46 71.2166 1119.7 80.7077 1119.7 91.904C1119.7 103.773 1116.46 113.579 1110 121.342C1103.09 129.779 1093.84 133.997 1082.24 133.997C1070.64 133.997 1062.33 129.061 1055.65 119.166V176.022H1040.47V53.289H1055.65H1055.67ZM1079.28 120.646C1087.13 120.646 1093.39 117.887 1098.06 112.345C1102.37 107.027 1104.55 100.385 1104.55 92.3976C1104.55 84.4099 1102.33 77.8805 1097.9 72.7872C1093.26 67.2452 1087.04 64.4853 1079.3 64.4853C1071.56 64.4853 1065.79 67.2227 1061.35 72.7199C1056.9 78.2171 1054.7 84.7689 1054.7 92.4201C1054.7 100.071 1056.81 106.825 1061.01 112.03C1065.54 117.797 1071.65 120.669 1079.3 120.669L1079.28 120.646Z" fill="url(#paint3_linear_8586_219041)"/>
        <path d="M1180.9 51.135C1192.68 51.135 1202.58 55.1065 1210.59 63.0269C1218.6 70.9698 1222.6 80.7974 1222.6 92.5547C1222.6 104.312 1218.6 114.162 1210.59 122.082C1202.58 130.003 1192.68 133.974 1180.9 133.974C1169.11 133.974 1159.22 130.003 1151.21 122.082C1143.19 114.162 1139.2 104.312 1139.2 92.5547C1139.2 80.7974 1143.19 70.9473 1151.21 63.0269C1159.22 55.1065 1169.09 51.135 1180.9 51.135ZM1180.9 65.4726C1173.49 65.4726 1167.23 68.1427 1162.09 73.4604C1156.95 78.7781 1154.39 85.1503 1154.39 92.5771C1154.39 100.004 1157 106.376 1162.18 111.694C1167.36 117.012 1173.6 119.659 1180.9 119.659C1188.19 119.659 1194.43 117.012 1199.61 111.694C1204.8 106.376 1207.4 100.004 1207.4 92.5771C1207.4 85.1503 1204.82 78.7781 1199.7 73.4604C1194.56 68.1427 1188.3 65.4726 1180.9 65.4726Z" fill="url(#paint4_linear_8586_219041)"/>
        <path d="M1257.63 53.289V65.9662H1258.12C1262.09 56.0713 1269.18 51.135 1279.35 51.135C1283.55 51.135 1287.66 52.3915 1291.63 54.9269L1284.83 68.4568C1282.4 66.4598 1279.35 65.4502 1275.69 65.4502C1263.64 65.4502 1257.6 74.6495 1257.6 93.0483V131.304H1242.43V53.289H1257.6H1257.63Z" fill="url(#paint5_linear_8586_219041)"/>
        <path d="M1335.5 67.3127V131.327H1320.33V67.3127H1312.16V53.3116H1320.33V23.4697H1335.5V53.3116H1350V67.3127H1335.5Z" fill="url(#paint6_linear_8586_219041)"/>
    </g>
    <defs>
        <linearGradient id="paint0_linear_8586_219041" x1="760.147" y1="90.8046" x2="1350" y2="90.8046" gradientUnits="userSpaceOnUse">
            <stop stop-color="#E28225"/>
            <stop offset="0.5" stop-color="#EF5C25"/>
            <stop offset="1" stop-color="#EC3324"/>
        </linearGradient>
        <linearGradient id="paint1_linear_8586_219041" x1="760.147" y1="90.8047" x2="1350" y2="90.8047" gradientUnits="userSpaceOnUse">
            <stop stop-color="#E28225"/>
            <stop offset="0.5" stop-color="#EF5C25"/>
            <stop offset="1" stop-color="#EC3324"/>
        </linearGradient>
        <linearGradient id="paint2_linear_8586_219041" x1="760.148" y1="90.8046" x2="1350" y2="90.8046" gradientUnits="userSpaceOnUse">
            <stop stop-color="#E28225"/>
            <stop offset="0.5" stop-color="#EF5C25"/>
            <stop offset="1" stop-color="#EC3324"/>
        </linearGradient>
        <linearGradient id="paint3_linear_8586_219041" x1="760.146" y1="90.8046" x2="1350" y2="90.8046" gradientUnits="userSpaceOnUse">
            <stop stop-color="#E28225"/>
            <stop offset="0.5" stop-color="#EF5C25"/>
            <stop offset="1" stop-color="#EC3324"/>
        </linearGradient>
        <linearGradient id="paint4_linear_8586_219041" x1="760.147" y1="90.8046" x2="1350" y2="90.8046" gradientUnits="userSpaceOnUse">
            <stop stop-color="#E28225"/>
            <stop offset="0.5" stop-color="#EF5C25"/>
            <stop offset="1" stop-color="#EC3324"/>
        </linearGradient>
        <linearGradient id="paint5_linear_8586_219041" x1="760.145" y1="90.8046" x2="1350" y2="90.8046" gradientUnits="userSpaceOnUse">
            <stop stop-color="#E28225"/>
            <stop offset="0.5" stop-color="#EF5C25"/>
            <stop offset="1" stop-color="#EC3324"/>
        </linearGradient>
        <linearGradient id="paint6_linear_8586_219041" x1="760.149" y1="90.8048" x2="1350" y2="90.8048" gradientUnits="userSpaceOnUse">
            <stop stop-color="#E28225"/>
            <stop offset="0.5" stop-color="#EF5C25"/>
            <stop offset="1" stop-color="#EC3324"/>
        </linearGradient>
        <clipPath id="clip0_8586_219041">
            <rect width="1350" height="176" fill="white"/>
        </clipPath>
    </defs>
</svg>
