<svg width="1065" height="1065" viewBox="0 0 1065 1065" fill="none" xmlns="http://www.w3.org/2000/svg">
    <rect width="1065" height="1065" fill="url(#paint0_linear_8586_219021)"/>
    <path d="M397.04 521.108V755.9H278.351C274.822 755.9 271.941 753.017 271.941 749.486V440.178L397.04 521.108Z" fill="white"/>
    <path d="M452.926 479.742V746.459C452.926 751.359 456.887 755.323 461.712 755.323H570.822C572.191 755.323 573.271 754.242 573.271 752.873V415.171C573.271 413.297 571.326 412.144 569.67 413.081L454.15 477.652C453.358 478.085 452.926 478.877 452.926 479.742Z" fill="white"/>
    <path d="M634.125 375.895V749.126C634.125 752.657 637.006 755.539 640.535 755.539H755.406V310.891C755.406 309.81 754.254 309.162 753.39 309.666L634.197 375.967L634.125 375.895Z" fill="white"/>
    <path d="M397.043 755.9C396.323 755.9 395.602 755.756 394.954 755.395C393.37 754.603 392.434 753.017 392.434 751.216V522.406L274.177 444.07C272.52 442.989 271.728 440.971 272.232 439.097C272.665 437.223 274.321 435.782 276.266 435.566L323.799 430.665C326.319 430.449 328.84 431.026 330.929 432.395L429.092 496.318C429.596 496.606 430.028 497.038 430.46 497.615C430.46 497.615 430.532 497.759 430.604 497.759C431.108 498.552 431.324 499.416 431.324 500.353V726.137C431.324 729.668 429.668 732.983 426.787 735.073L399.78 755.035C398.987 755.612 397.979 755.972 397.043 755.972V755.9ZM401.724 522.406V741.991L421.314 727.506C421.746 727.145 422.034 726.641 422.034 726.064V508.857L401.724 522.333V522.406ZM290.093 443.493L397.043 514.334L418.217 500.281L325.887 440.178C325.887 440.178 325.167 439.89 324.735 439.89L290.165 443.493H290.093Z" fill="white"/>
    <path d="M572.267 754.891C571.547 754.891 570.827 754.747 570.179 754.386C568.594 753.593 567.658 752.008 567.658 750.206L568.018 416.973C568.018 415.315 568.883 413.802 570.323 412.937C571.763 412.144 573.492 412.072 574.932 412.937L602.66 428.719C606.117 430.665 608.277 434.413 608.277 438.376V724.335C608.277 727.866 606.549 731.181 603.74 733.271L575.004 754.026C574.212 754.602 573.276 754.891 572.267 754.891ZM577.237 424.972L576.877 741.126L598.195 725.632C598.627 725.344 598.915 724.839 598.915 724.263V438.376C598.915 437.728 598.555 437.151 598.051 436.863L577.237 425.044V424.972Z" fill="white"/>
    <path d="M755.553 755.467C754.832 755.467 754.04 755.251 753.392 754.891C751.88 754.098 750.943 752.513 750.943 750.783V313.918C750.943 312.044 752.096 310.387 753.752 309.666C755.409 308.945 757.425 309.306 758.793 310.603L790.338 341.015C792.499 343.105 793.723 345.987 793.723 349.014V724.695C793.723 728.37 791.923 731.758 788.898 733.848L758.217 754.747C757.425 755.251 756.489 755.539 755.625 755.539L755.553 755.467ZM760.162 324.872V742.063L783.568 726.136C784.072 725.776 784.361 725.272 784.361 724.695V349.014C784.361 348.51 784.145 348.077 783.856 347.717L760.162 324.872Z" fill="white"/>
    <defs>
        <linearGradient id="paint0_linear_8586_219021" x1="462.241" y1="1060.61" x2="462.606" y2="4.34063" gradientUnits="userSpaceOnUse">
            <stop stop-color="#FF6931"/>
            <stop offset="1" stop-color="#FF9839"/>
        </linearGradient>
    </defs>
</svg>
