<svg width="167" height="32" viewBox="0 0 167 32" fill="none" xmlns="http://www.w3.org/2000/svg">
<g id="Logo" clip-path="url(#clip0_1_12224)">
<path id="XMLID_111_" d="M51.8154 30.1804L57.8645 0.907715L68.6852 24.1441L79.5435 0.907715L85.5926 30.1804H82.2112L78.3788 11.4532H78.3037L68.7228 31.3077L59.1795 11.4532H59.1044L55.2345 30.1804H51.8154Z" fill="white" stroke="white" stroke-miterlimit="10"/>
<path id="XMLID_106_" d="M92.9158 22.1841C92.9533 23.8205 93.5169 25.2387 94.6441 26.3296C95.7712 27.3841 97.199 27.9296 99.0024 27.9296C101.332 27.9296 103.21 26.766 104.638 24.366L107.306 25.7841C105.465 29.0205 102.572 30.6205 98.7394 30.6205C95.9967 30.6205 93.8175 29.7841 92.1643 28.0751C90.5112 26.4023 89.6846 24.2569 89.6846 21.7114C89.6846 19.0205 90.4736 16.8751 92.014 15.1296C93.6296 13.3114 95.884 12.366 98.7018 12.366C101.595 12.366 103.849 13.3478 105.465 15.3114C107.005 17.0932 107.682 19.3841 107.531 22.1114H92.9158V22.1841ZM104.187 19.6751C103.736 17.1296 101.482 15.166 98.7394 15.166C97.3492 15.166 96.1094 15.6023 94.9822 16.4751C93.9302 17.3114 93.2915 18.4023 93.1036 19.6751H104.187Z" fill="white" stroke="white" stroke-miterlimit="10"/>
<path id="XMLID_102_" d="M117.114 15.6413V30.1867H113.958V15.6413H112.042V12.914H113.958V6.73218H117.114V12.9504H120.421V15.6413H117.114Z" fill="white" stroke="white" stroke-miterlimit="10"/>
<path id="XMLID_100_" d="M128.269 12.9437V14.7982H128.344C129.622 13.2346 130.975 12.4346 132.44 12.4346C133.304 12.4346 134.243 12.6891 135.295 13.2346L133.792 15.9255C132.966 15.4164 132.327 15.1618 131.914 15.1618C129.509 15.1618 128.269 17.3073 128.269 21.5618V30.18H125.113V12.9437H128.269Z" fill="white" stroke="white" stroke-miterlimit="10"/>
<path id="XMLID_90_" d="M144.878 6.44234C144.878 7.60598 143.901 8.55143 142.623 8.55143C141.346 8.55143 140.369 7.64234 140.369 6.44234C140.369 5.31507 141.384 4.33325 142.623 4.33325C143.863 4.33325 144.878 5.31507 144.878 6.44234ZM144.201 12.9514V30.1878H141.045V12.9514H144.201Z" fill="white" stroke="white" stroke-miterlimit="10"/>
<path id="XMLID_87_" d="M166.559 18.0787H166.484C164.868 16.1151 162.914 15.1696 160.735 15.1696C158.856 15.1696 157.278 15.7878 156.038 17.0242C154.799 18.2242 154.197 19.7514 154.197 21.5333C154.197 23.3151 154.799 24.806 155.926 26.006C157.166 27.2787 158.706 27.8969 160.585 27.8969C162.989 27.8969 165.018 26.9151 166.634 24.9151H166.709V28.8423C164.868 30.006 162.877 30.5878 160.81 30.5878C157.955 30.5878 155.588 29.7514 153.747 28.006C151.906 26.2605 150.929 24.1151 150.929 21.4605C150.929 18.8423 151.868 16.6969 153.784 14.9514C155.7 13.2423 158.03 12.3333 160.848 12.3333C162.952 12.3333 164.83 12.9151 166.559 14.0423V18.0787Z" fill="white" stroke="white" stroke-miterlimit="10"/>
<g id="XMLID_73_">
<g id="XMLID_75_">
<path id="XMLID_84_" d="M9.28028 15.1659V32.0022H0.488436C0.225432 32.0022 0 31.784 0 31.5295V9.38403L9.28028 15.1659Z" fill="#E48525"/>
</g>
</g>
<g id="XMLID_66_">
<g id="XMLID_68_">
<path id="XMLID_69_" d="M13.4111 12.2177V31.345C13.4111 31.7086 13.7117 31.9632 14.0499 31.9632H22.1278C22.2405 31.9632 22.3157 31.8904 22.3157 31.7813V7.59952C22.3157 7.45407 22.1654 7.38134 22.0527 7.45407L13.4863 12.0723C13.4487 12.1086 13.4111 12.145 13.4111 12.2177Z" fill="#F15D25"/>
</g>
</g>
<g id="XMLID_62_">
<g id="Group">
<path id="XMLID_64_" d="M26.8271 4.76547V31.4927C26.8271 31.7473 27.0526 31.9655 27.3156 31.9655H35.8069V0.110919C35.8069 0.0381914 35.7317 0.00182777 35.6566 0.0381914L26.8271 4.76547Z" fill="#EE3324"/>
</g>
</g>
<g id="XMLID_38_">
<path id="XMLID_41_" d="M9.28419 31.9995C9.24662 31.9995 9.17148 31.9995 9.1339 31.9632C9.02119 31.8904 8.94604 31.7813 8.94604 31.6722V15.2722L0.154202 9.67225C0.0414862 9.59952 -0.0336578 9.45407 0.00391421 9.30861C0.0414862 9.16316 0.154202 9.05407 0.30449 9.05407L3.83626 8.69043C4.02412 8.69043 4.21198 8.72679 4.36226 8.79952L11.6512 13.4177C11.6888 13.4541 11.7264 13.4541 11.7639 13.4904C11.8015 13.5632 11.8015 13.5995 11.8015 13.6722V29.8541C11.8015 30.1086 11.6888 30.3268 11.4634 30.5086L9.47205 31.9268C9.43448 31.9632 9.35934 31.9995 9.28419 31.9995ZM9.62234 15.2722V31.0177L11.0876 29.9632C11.1252 29.9268 11.1252 29.8904 11.1252 29.8541V14.2904L9.62234 15.2722ZM1.35651 9.59952L9.28419 14.6904L10.8622 13.6722L3.98654 9.38134C3.94897 9.38134 3.94897 9.34498 3.9114 9.34498L1.35651 9.59952Z" fill="#E48525"/>
</g>
<g id="XMLID_12_">
<path id="XMLID_13_" d="M22.2424 31.9296C22.2049 31.9296 22.1297 31.9296 22.0922 31.8932C21.9794 31.8205 21.9043 31.7114 21.9043 31.6023L21.9419 7.71142C21.9419 7.60233 22.017 7.49324 22.1297 7.42051C22.2424 7.34778 22.3552 7.34778 22.4679 7.42051L24.5343 8.54779C24.7973 8.69324 24.9476 8.94778 24.9476 9.23869V29.7114C24.9476 29.966 24.8349 30.1841 24.6095 30.366L22.4679 31.8569C22.3927 31.8932 22.3176 31.9296 22.2424 31.9296ZM22.6182 8.29324L22.5806 30.9478L24.1586 29.8569C24.1962 29.8205 24.1962 29.7841 24.1962 29.7478V9.23869C24.1962 9.20233 24.1586 9.16597 24.121 9.1296L22.6182 8.29324Z" fill="#F15D25"/>
</g>
<g id="XMLID_1_">
<path id="XMLID_2_" d="M35.844 31.9668C35.8064 31.9668 35.7313 31.9668 35.6937 31.9305C35.581 31.8578 35.5059 31.7487 35.5059 31.6396V0.33048C35.5059 0.185025 35.581 0.0759341 35.7313 0.0395705C35.844 0.00320685 35.9943 0.00320686 36.107 0.112298L38.4365 2.29412C38.5868 2.43957 38.6995 2.65775 38.6995 2.87593V29.785C38.6995 30.0396 38.5492 30.2941 38.3238 30.4396L36.0319 31.9305C35.9567 31.9668 35.8816 31.9668 35.844 31.9668ZM36.1822 1.13048V31.0214L37.9105 29.8941C37.948 29.8578 37.9856 29.8214 37.9856 29.785V2.87593C37.9856 2.83957 37.9856 2.80321 37.948 2.76684L36.1822 1.13048Z" fill="#EE3324"/>
</g>
</g>
<defs>
<clipPath id="clip0_1_12224">
<rect width="166.857" height="32" fill="white"/>
</clipPath>
</defs>
</svg>
