<svg width="156" height="40" viewBox="0 0 156 40" fill="white" xmlns="http://www.w3.org/2000/svg">
    <path d="M48.2564 15.5628C46.909 15.5628 45.8349 16.0019 45.0338 16.8795C44.2319 17.7579 43.7601 18.9722 43.6175 20.5234H52.3901C52.3901 18.9216 52.0327 17.6938 51.3185 16.8415C50.6037 15.9893 49.583 15.5628 48.2564 15.5628ZM48.9453 30.8281C46.4651 30.8281 44.5077 30.0731 43.0741 28.5621C41.6399 27.0511 40.9229 24.9541 40.9229 22.269C40.9229 19.5645 41.5888 17.4157 42.9211 15.8236C44.2526 14.2313 46.0413 13.4351 48.2871 13.4351C50.3892 13.4351 52.0534 14.1266 53.2779 15.5099C54.5028 16.893 55.1152 18.7168 55.1152 20.9829V22.5908H43.5563C43.6069 24.561 44.1048 26.0565 45.0488 27.0766C45.9927 28.0974 47.3225 28.6078 49.0373 28.6078C50.8438 28.6078 52.6299 28.2305 54.3958 27.4746V29.7407C53.4973 30.1291 52.6477 30.4069 51.8464 30.5757C51.045 30.7436 50.0784 30.8281 48.9453 30.8281Z" fill="#FBFAFC"/>
    <path d="M62.4313 18.9775H65.9985C67.8358 18.9775 69.1828 18.6123 70.0402 17.8825C70.8976 17.1528 71.3263 16.0578 71.3263 14.5986C71.3263 13.1183 70.8901 12.0519 70.0172 11.3983C69.1449 10.7456 67.7438 10.4184 65.8148 10.4184H62.4313V18.9775ZM62.4313 21.2128V30.5217H59.8286V8.13735H65.9678C68.7133 8.13735 70.7421 8.66326 72.0537 9.71391C73.3648 10.7657 74.0209 12.3475 74.0209 14.4603C74.0209 17.421 72.5207 19.4211 69.5198 20.4623L75.598 30.5217H72.5207L67.1009 21.2128H62.4313Z" fill="#FBFAFC"/>
    <path d="M85.229 15.5628C83.8817 15.5628 82.8075 16.0019 82.0065 16.8795C81.2046 17.7579 80.7328 18.9722 80.5902 20.5234H89.3627C89.3627 18.9216 89.0053 17.6938 88.2911 16.8415C87.5763 15.9893 86.5556 15.5628 85.229 15.5628ZM85.9179 30.8281C83.4378 30.8281 81.4803 30.0731 80.0467 28.5621C78.6126 27.0511 77.8955 24.9541 77.8955 22.269C77.8955 19.5645 78.5614 17.4157 79.8938 15.8236C81.2253 14.2313 83.014 13.4351 85.2598 13.4351C87.3619 13.4351 89.026 14.1266 90.2506 15.5099C91.4754 16.893 92.0878 18.7168 92.0878 20.9829V22.5908H80.5289C80.5795 24.561 81.0775 26.0565 82.0214 27.0766C82.9654 28.0974 84.2952 28.6078 86.0099 28.6078C87.8164 28.6078 89.6025 28.2305 91.3685 27.4746V29.7407C90.47 30.1291 89.6203 30.4069 88.819 30.5757C88.0177 30.7436 87.051 30.8281 85.9179 30.8281Z" fill="#FBFAFC"/>
    <path d="M103.86 15.5933C102.145 15.5933 100.905 16.0683 100.14 17.0174C99.3743 17.9669 98.9812 19.4776 98.9611 21.5496V22.1157C98.9611 24.4735 99.3539 26.1608 100.14 27.1763C100.925 28.1922 102.186 28.6994 103.921 28.6994C105.371 28.6994 106.506 28.1131 107.328 26.9388C108.149 25.7648 108.56 24.1472 108.56 22.0849C108.56 19.9931 108.149 18.3881 107.328 17.2699C106.506 16.1528 105.35 15.5933 103.86 15.5933ZM104.228 30.8278C103.135 30.8278 102.138 30.6262 101.234 30.2228C100.331 29.8197 99.5733 29.1997 98.9611 28.3624H98.7774C98.8999 29.3424 98.9611 30.2714 98.9611 31.1489V38.0547H96.4194V13.7409H98.4864L98.8386 16.0378H98.9611C99.6141 15.1191 100.374 14.4558 101.242 14.0472C102.109 13.6386 103.105 13.4347 104.228 13.4347C106.452 13.4347 108.17 14.1953 109.379 15.7157C110.589 17.2371 111.194 19.37 111.194 22.1157C111.194 24.8715 110.579 27.0127 109.349 28.5387C108.119 30.0646 106.412 30.8278 104.228 30.8278Z" fill="#FBFAFC"/>
    <path d="M117.335 22.1158C117.335 24.2594 117.763 25.8926 118.621 27.0151C119.478 28.1385 120.738 28.6995 122.402 28.6995C124.066 28.6995 125.329 28.1408 126.192 27.0235C127.054 25.9055 127.485 24.2697 127.485 22.1158C127.485 19.9829 127.054 18.3629 126.192 17.2553C125.329 16.1477 124.056 15.5933 122.372 15.5933C120.708 15.5933 119.452 16.1402 118.605 17.232C117.758 18.3241 117.335 19.9521 117.335 22.1158ZM130.118 22.1158C130.118 24.8517 129.429 26.9875 128.052 28.5238C126.674 30.0601 124.77 30.8281 122.341 30.8281C120.841 30.8281 119.509 30.4756 118.345 29.7711C117.181 29.067 116.283 28.0563 115.651 26.7397C115.017 25.423 114.701 23.8821 114.701 22.1158C114.701 19.3808 115.385 17.2498 116.753 15.7242C118.12 14.1982 120.019 13.4351 122.448 13.4351C124.795 13.4351 126.661 14.2155 128.044 15.7771C129.427 17.339 130.118 19.4518 130.118 22.1158Z" fill="#FBFAFC"/>
    <path d="M142.228 13.4352C142.973 13.4352 143.641 13.4964 144.233 13.6189L143.881 15.9767C143.187 15.8237 142.575 15.7467 142.044 15.7467C140.686 15.7467 139.526 16.2979 138.561 17.4003C137.597 18.5027 137.114 19.8762 137.114 21.5192V30.522H134.573V13.7414H136.67L136.961 16.8491H137.084C137.706 15.7573 138.456 14.9154 139.334 14.3231C140.212 13.731 141.176 13.4352 142.228 13.4352Z" fill="#FBFAFC"/>
    <path d="M155.667 28.474V30.3944C155.395 30.5244 154.993 30.6334 154.464 30.7179C153.935 30.8056 153.46 30.8481 153.036 30.8481C149.834 30.8481 148.231 29.1606 148.231 25.7855V15.9354H145.86V13.6831H148.267V1.94534H150.741V13.6831H155.546V15.9354H150.741V25.6797C150.741 26.6774 150.977 27.4426 151.452 27.978C151.924 28.5102 152.574 28.7764 153.399 28.7764C153.844 28.7764 154.27 28.7463 154.685 28.6795C155.096 28.6131 155.426 28.5464 155.667 28.474Z" fill="#FBFAFC"/>
    <path d="M19.2058 9.05469H0V2.05469H21.9782C22.7368 2.05469 23.2303 2.82335 22.8909 3.4768L20.3468 8.37569C20.1307 8.79183 19.689 9.05469 19.2058 9.05469Z" fill="#E48939"/>
    <path d="M24.3955 23.6343H0V30.8276H27.5468C28.1097 30.8276 28.4757 30.2352 28.2241 29.7318L25.5243 24.3321C25.3105 23.9044 24.8736 23.6343 24.3955 23.6343Z" fill="#EF4438"/>
    <path d="M19.0008 12.8438H0V20.0371H22.1522C22.7151 20.0371 23.0811 19.4446 22.8294 18.9413L20.1297 13.5415C19.9159 13.1139 19.4789 12.8438 19.0008 12.8438Z" fill="#F26539"/>
</svg>
