<svg width="496" height="414" viewBox="0 0 496 414" fill="none" xmlns="http://www.w3.org/2000/svg">
    <path d="M0.00250244 210V414H495.504L495.545 284.475H495.547L3.52826 210H0.00250244Z" fill="url(#paint0_linear_9828_319174)"/>
    <g clip-path="url(#clip0_9828_319174)">
        <g opacity="0.06">
            <mask id="mask0_9828_319174" style="mask-type:luminance" maskUnits="userSpaceOnUse" x="-243" y="0" width="737" height="414">
                <path d="M493.596 -0.000404284L493.596 413.77L-242.914 413.771" fill="white"/>
            </mask>
            <g mask="url(#mask0_9828_319174)">
                <path d="M503.492 51.3578L503.492 559.103L-400.297 559.104" fill="url(#paint1_linear_9828_319174)"/>
                <path d="M493.593 224.385L493.593 186.407L-410.195 694.161L-342.611 694.161L493.593 224.385Z" fill="url(#paint2_linear_9828_319174)"/>
                <path d="M493.597 331.17L493.597 231.411L-330.109 694.161L-152.526 694.161L493.597 331.17Z" fill="url(#paint3_linear_9828_319174)"/>
                <path d="M493.591 694.161L493.591 331.17L-152.531 694.161L493.591 694.161Z" fill="url(#paint4_linear_9828_319174)"/>
            </g>
        </g>
        <mask id="mask1_9828_319174" style="mask-type:luminance" maskUnits="userSpaceOnUse" x="22" y="149" width="473" height="266">
            <path d="M22.4062 414.786L494.83 149.38L494.83 414.786L22.4062 414.786Z" fill="white"/>
        </mask>
        <g mask="url(#mask1_9828_319174)">
            <path d="M22.4062 414.786L494.83 149.381L494.83 414.786L22.4062 414.786Z" fill="url(#paint5_linear_9828_319174)"/>
            <path d="M494.83 189.784L494.83 149.381L22.4062 414.786L94.3322 414.786L494.83 189.784Z" fill="url(#paint6_linear_9828_319174)"/>
            <path d="M494.83 266.673L494.83 246.82L22.4062 512.226L57.7371 512.226L494.83 266.673Z" fill="url(#paint7_linear_9828_319174)"/>
            <path d="M494.628 322.151L494.628 270L64.0703 511.886L156.895 511.886L494.628 322.151Z" fill="url(#paint8_linear_9828_319174)"/>
            <path d="M494.827 512.226L494.827 322.491L157.094 512.226L494.827 512.226Z" fill="url(#paint9_linear_9828_319174)"/>
        </g>
    </g>
    <defs>
        <linearGradient id="paint0_linear_9828_319174" x1="864.639" y1="302.933" x2="457.024" y2="304.49" gradientUnits="userSpaceOnUse">
            <stop stop-color="#FF733F"/>
            <stop offset="1" stop-color="#FCA14E"/>
        </linearGradient>
        <linearGradient id="paint1_linear_9828_319174" x1="-400.297" y1="305.235" x2="503.492" y2="305.235" gradientUnits="userSpaceOnUse">
            <stop stop-color="#FF9E3E"/>
            <stop offset="1" stop-color="#F5712D"/>
        </linearGradient>
        <linearGradient id="paint2_linear_9828_319174" x1="-410.195" y1="440.284" x2="493.593" y2="440.284" gradientUnits="userSpaceOnUse">
            <stop stop-color="#FFFF00" stop-opacity="0.2"/>
            <stop offset="1" stop-color="white" stop-opacity="0"/>
        </linearGradient>
        <linearGradient id="paint3_linear_9828_319174" x1="-330.109" y1="462.782" x2="493.597" y2="462.782" gradientUnits="userSpaceOnUse">
            <stop stop-color="#FFFF00" stop-opacity="0.2"/>
            <stop offset="1" stop-color="white" stop-opacity="0"/>
        </linearGradient>
        <linearGradient id="paint4_linear_9828_319174" x1="271.073" y1="587.051" x2="426.065" y2="441.556" gradientUnits="userSpaceOnUse">
            <stop stop-color="white" stop-opacity="0"/>
            <stop offset="1" stop-color="white" stop-opacity="0.1"/>
        </linearGradient>
        <linearGradient id="paint5_linear_9828_319174" x1="22.4062" y1="282.087" x2="494.83" y2="282.087" gradientUnits="userSpaceOnUse">
            <stop stop-color="#FF9E3E"/>
            <stop offset="1" stop-color="#F5712D"/>
        </linearGradient>
        <linearGradient id="paint6_linear_9828_319174" x1="22.4062" y1="282.087" x2="494.83" y2="282.087" gradientUnits="userSpaceOnUse">
            <stop stop-color="white" stop-opacity="0"/>
            <stop offset="1" stop-color="white" stop-opacity="0.1"/>
        </linearGradient>
        <linearGradient id="paint7_linear_9828_319174" x1="22.4062" y1="379.527" x2="494.83" y2="379.527" gradientUnits="userSpaceOnUse">
            <stop stop-color="#FFFF00" stop-opacity="0.2"/>
            <stop offset="1" stop-color="white" stop-opacity="0"/>
        </linearGradient>
        <linearGradient id="paint8_linear_9828_319174" x1="64.0703" y1="390.943" x2="494.628" y2="390.943" gradientUnits="userSpaceOnUse">
            <stop stop-color="#FFFF00" stop-opacity="0.2"/>
            <stop offset="1" stop-color="white" stop-opacity="0"/>
        </linearGradient>
        <linearGradient id="paint9_linear_9828_319174" x1="378.515" y1="456.237" x2="459.533" y2="380.191" gradientUnits="userSpaceOnUse">
            <stop stop-color="white" stop-opacity="0"/>
            <stop offset="1" stop-color="white" stop-opacity="0.1"/>
        </linearGradient>
        <clipPath id="clip0_9828_319174">
            <rect width="469.304" height="414" fill="white" transform="matrix(-1 0 0 1 494.828 0)"/>
        </clipPath>
    </defs>
</svg>
