<svg width="16" height="16" viewBox="0 0 16 16" fill="none" xmlns="http://www.w3.org/2000/svg">
    <g clip-path="url(#clip0_7320_186924)">
        <path d="M6 14H10" stroke="#716B95" stroke-width="1.3" stroke-linecap="round" stroke-linejoin="round"/>
        <path d="M3.49992 7C3.49992 5.80653 3.97403 4.66193 4.81794 3.81802C5.66186 2.97411 6.80645 2.5 7.99992 2.5C9.1934 2.5 10.338 2.97411 11.1819 3.81802C12.0258 4.66193 12.4999 5.80653 12.4999 7C12.4999 9.23875 13.0187 10.5375 13.4312 11.25C13.475 11.3259 13.4981 11.4119 13.4982 11.4996C13.4982 11.5872 13.4753 11.6733 13.4316 11.7492C13.3879 11.8252 13.3251 11.8883 13.2493 11.9324C13.1735 11.9764 13.0875 11.9997 12.9999 12H2.99992C2.91241 11.9995 2.82657 11.976 2.75098 11.9319C2.67539 11.8878 2.61269 11.8246 2.56916 11.7487C2.52564 11.6728 2.5028 11.5868 2.50293 11.4992C2.50306 11.4117 2.52616 11.3258 2.56992 11.25C2.9818 10.5375 3.49992 9.23813 3.49992 7Z" stroke="#716B95" stroke-width="1.3" stroke-linecap="round" stroke-linejoin="round"/>
    </g>
    <defs>
        <clipPath id="clip0_7320_186924">
            <rect width="16" height="16" fill="white"/>
        </clipPath>
    </defs>
</svg>
