<svg xmlns="http://www.w3.org/2000/svg" fill="none" viewBox="22.58 0.58 161.42 140.83">
  <path d="M155.766 13.6501C158.657 13.6501 161 11.3102 161 8.4239C161 5.53758 158.657 3.19775 155.766 3.19775C152.876 3.19775 150.533 5.53758 150.533 8.4239C150.533 11.3102 152.876 13.6501 155.766 13.6501Z" fill="#EBECEF"/>
  <path d="M105.22 141.415C143.024 141.415 173.67 110.813 173.67 73.063C173.67 35.3129 143.024 4.71045 105.22 4.71045C67.4156 4.71045 36.7693 35.3129 36.7693 73.063C36.7693 110.813 67.4156 141.415 105.22 141.415Z" fill="#E9EBED"/>
  <path d="M29.3323 22.1768C31.234 22.1768 32.7755 20.6374 32.7755 18.7385C32.7755 16.8397 31.234 15.3003 29.3323 15.3003C27.4307 15.3003 25.8892 16.8397 25.8892 18.7385C25.8892 20.6374 27.4307 22.1768 29.3323 22.1768Z" fill="#EBECEF"/>
  <path d="M33.0508 38.6804C34.3439 38.6804 35.3922 37.6337 35.3922 36.3424C35.3922 35.0512 34.3439 34.0044 33.0508 34.0044C31.7577 34.0044 30.7095 35.0512 30.7095 36.3424C30.7095 37.6337 31.7577 38.6804 33.0508 38.6804Z" fill="url(#paint0_linear_1_120753)"/>
  <path d="M140.203 4.98544C141.42 4.98544 142.407 4.00025 142.407 2.78496C142.407 1.56966 141.42 0.584473 140.203 0.584473C138.986 0.584473 138 1.56966 138 2.78496C138 4.00025 138.986 4.98544 140.203 4.98544Z" fill="#EBECEF"/>
  <path d="M153.011 132.338C154.229 132.338 155.215 131.353 155.215 130.138C155.215 128.923 154.229 127.938 153.011 127.938C151.794 127.938 150.808 128.923 150.808 130.138C150.808 131.353 151.794 132.338 153.011 132.338Z" fill="url(#paint1_linear_1_120753)"/>
  <path d="M64.5905 34.1417C65.8075 34.1417 66.7941 33.1565 66.7941 31.9412C66.7941 30.7259 65.8075 29.7407 64.5905 29.7407C63.3734 29.7407 62.3868 30.7259 62.3868 31.9412C62.3868 33.1565 63.3734 34.1417 64.5905 34.1417Z" fill="url(#paint2_linear_1_120753)"/>
  <g filter="url(#filter0_d_1_120753)">
    <path d="M85.1118 139.903H25.0627C23.6854 139.903 22.5836 138.802 22.5836 137.427V49.958C22.5836 48.5827 23.6854 47.4824 25.0627 47.4824H85.1118C86.4891 47.4824 87.5909 48.5827 87.5909 49.958V137.427C87.5909 138.802 86.4891 139.903 85.1118 139.903Z" fill="white"/>
  </g>
  <path d="M67.2077 95.068C67.2077 95.3431 67.2077 95.4806 67.07 95.7557C66.9322 96.1683 66.9322 96.7184 66.7945 97.131C66.6568 97.406 66.6568 97.5436 66.519 97.8186C66.3813 98.2312 66.2436 98.6438 65.9681 99.0564V99.1939C65.8304 99.3315 65.8304 99.6065 65.6927 99.7441C65.555 99.8816 65.4172 100.157 65.2795 100.294L69.549 104.007C69.6868 103.732 69.8245 103.595 69.9622 103.32C70.3754 102.632 70.7886 101.945 71.0641 101.257C71.2018 100.982 71.2018 100.844 71.3395 100.569C71.615 99.8816 71.8904 99.1939 72.1659 98.5063C72.1659 98.3688 72.3036 98.0937 72.3036 97.9562C72.4413 97.5436 72.4413 97.131 72.579 96.7184C72.579 96.5809 72.7168 96.3058 72.7168 96.1683C72.7168 96.0307 72.7168 95.7557 72.8545 95.6182V95.4806C72.8545 95.3431 72.8545 95.068 72.8545 94.9305H67.2077V95.068ZM55.2254 105.658C48.6145 105.658 43.1054 100.294 43.1054 93.6927C43.1054 87.5039 47.6504 82.5528 53.5727 81.7276V76.0889C44.6204 76.7765 37.5963 84.4782 37.5963 93.6927C37.5963 103.457 45.5845 111.434 55.3631 111.434C60.1836 111.434 64.5909 109.509 67.7586 106.346L63.489 102.632C61.2854 104.558 58.3931 105.658 55.2254 105.658ZM56.7404 76.0889V81.7276C62.2495 82.4153 66.5191 86.6787 67.2077 92.0424H72.8545C72.1659 83.5155 65.2795 76.7765 56.7404 76.0889Z" fill="#DEDEDF"/>
  <path d="M72.992 92.0424H67.3452C66.6566 86.5412 62.2493 82.2777 56.8779 81.7276V76.0889C65.2793 76.7765 72.1657 83.5155 72.992 92.0424Z" fill="#D5D5D6"/>
  <path d="M72.9923 95.0679C72.9923 95.2054 72.9923 95.4805 72.9923 95.618V95.7555C72.9923 95.8931 72.9923 96.1681 72.8545 96.3056C72.8545 96.4432 72.8545 96.7182 72.7168 96.8558C72.5791 97.2684 72.5791 97.681 72.4414 98.0935C72.4414 98.2311 72.3036 98.5061 72.3036 98.6437C72.0282 99.3313 71.8905 100.019 71.4773 100.707C71.3395 100.982 71.3395 101.119 71.2018 101.394C70.9264 102.082 70.5132 102.77 70.1 103.457C69.9623 103.732 69.8245 103.87 69.6868 104.145L65.2795 100.294C65.4173 100.156 65.555 99.8814 65.6927 99.7439C65.8304 99.6064 65.9682 99.3313 65.9682 99.1938V99.0562C66.1059 98.6437 66.3814 98.2311 66.5191 97.8185C66.6568 97.5434 66.6568 97.4059 66.7945 97.1308C66.9323 96.7182 67.07 96.1681 67.07 95.7555C67.07 95.4805 67.2077 95.3429 67.2077 95.0679H72.9923Z" fill="#ECECEC"/>
  <path d="M36.4941 61.6479H29.6077C29.1946 61.6479 28.7814 61.2353 28.7814 60.8227V59.9975C28.7814 59.585 29.1946 59.1724 29.6077 59.1724H36.4941C36.9073 59.1724 37.3205 59.585 37.3205 59.9975V60.8227C37.3205 61.2353 36.9073 61.6479 36.4941 61.6479Z" fill="#DEDEDF"/>
  <path d="M83.8725 61.6479H43.243C42.8298 61.6479 42.4166 61.2353 42.4166 60.8227V59.9975C42.4166 59.585 42.8298 59.1724 43.243 59.1724H83.8725C84.2857 59.1724 84.6989 59.585 84.6989 59.9975V60.8227C84.6989 61.2353 84.2857 61.6479 83.8725 61.6479Z" fill="#DEDEDF"/>
  <path d="M36.4941 69.7622H29.6077C29.1946 69.7622 28.7814 69.3496 28.7814 68.937V68.1118C28.7814 67.6992 29.1946 67.2866 29.6077 67.2866H36.4941C36.9073 67.2866 37.3205 67.6992 37.3205 68.1118V68.937C37.3205 69.3496 36.9073 69.7622 36.4941 69.7622Z" fill="#DEDEDF"/>
  <path d="M83.8725 69.7622H43.243C42.8298 69.7622 42.4166 69.3496 42.4166 68.937V68.1118C42.4166 67.6992 42.8298 67.2866 43.243 67.2866H83.8725C84.2857 67.2866 84.6989 67.6992 84.6989 68.1118V68.937C84.6989 69.3496 84.2857 69.7622 83.8725 69.7622Z" fill="#DEDEDF"/>
  <path d="M43.6565 119.686H38.9738V131.926H43.6565V119.686Z" fill="#ECECEC"/>
  <path d="M52.1949 117.485H47.5122V132.064H52.1949V117.485Z" fill="#ECECEC"/>
  <path d="M60.8721 121.611H56.1893V132.064H60.8721V121.611Z" fill="#ECECEC"/>
  <path d="M69.4109 125.049H64.7281V132.063H69.4109V125.049Z" fill="#ECECEC"/>
  <g filter="url(#filter1_d_1_120753)">
    <path d="M181.659 111.159H121.472C120.094 111.159 118.993 110.059 118.993 108.683V21.3515C118.993 19.9762 120.094 18.876 121.472 18.876H181.521C182.898 18.876 184 19.9762 184 21.3515V108.821C184 110.059 182.898 111.159 181.659 111.159Z" fill="white"/>
  </g>
  <path d="M179.73 66.5991H131.388V72.2379H179.73V66.5991Z" fill="#DEDEDF"/>
  <path d="M159.485 68.5244H146.263V70.1748H159.485V68.5244Z" fill="#C5C5C6"/>
  <path d="M176.287 68.5244H171.605V70.1748H176.287V68.5244Z" fill="#C3C3C5"/>
  <path d="M179.73 78.564H131.388V84.2027H179.73V78.564Z" fill="#DEDEDF"/>
  <path d="M155.491 80.627H146.263V82.2773H155.491V80.627Z" fill="#C5C5C6"/>
  <path d="M176.287 80.627H168.161V82.2773H176.287V80.627Z" fill="#C3C3C5"/>
  <path d="M179.73 90.667H131.388V96.3057H179.73V90.667Z" fill="#DEDEDF"/>
  <path d="M161.551 92.5923H146.263V94.2426H161.551V92.5923Z" fill="#C5C5C6"/>
  <path d="M176.287 92.5923H173.67V94.2426H176.287V92.5923Z" fill="#C3C3C5"/>
  <path d="M176.287 26.165H161.275H161.137H161H145.574H145.436H145.299H130.837C129.185 26.165 127.945 27.5403 127.945 29.1907V55.459C127.945 57.1093 129.322 58.4846 130.837 58.4846H176.287C177.94 58.4846 179.18 57.1093 179.18 55.459V29.1907C179.18 27.5403 177.802 26.165 176.287 26.165ZM146.401 49.4076V43.4938H160.311V49.4076H146.401ZM160.311 51.1955V56.5592H146.401V51.1955H160.311ZM160.311 35.9297V41.8435H146.401V35.9297H160.311ZM146.401 34.0043V28.0905H160.311V34.1418H146.401V34.0043ZM177.389 41.706H162.101V35.7922H177.389V41.706ZM144.472 41.706H129.598V35.7922H144.472V41.706ZM129.598 43.4938H144.472V49.4076H129.598V43.4938ZM162.101 43.4938H177.389V49.4076H162.101V43.4938ZM177.389 29.1907V34.0043H162.101V28.0905H176.287C176.838 28.0905 177.389 28.5031 177.389 29.1907ZM130.837 28.0905H144.61V34.1418H129.598V29.3282C129.598 28.5031 130.149 28.0905 130.837 28.0905ZM129.598 55.459V51.1955H144.472V56.5592H130.7C130.149 56.6968 129.598 56.1466 129.598 55.459ZM176.287 56.6967H162.101V51.3331H177.389V55.5965C177.389 56.1466 176.838 56.6967 176.287 56.6967Z" fill="#DEDEDF"/>
  <g filter="url(#filter2_d_1_120753)">
    <path d="M137.311 119.823H77.1239C75.7466 119.823 74.6448 118.723 74.6448 117.348V29.8784C74.6448 28.5031 75.7466 27.4028 77.1239 27.4028H137.173C138.55 27.4028 139.652 28.5031 139.652 29.8784V117.348C139.652 118.723 138.55 119.823 137.311 119.823Z" fill="white"/>
  </g>
  <path d="M132.214 93.5548H84.1474C83.7342 93.5548 83.321 93.1422 83.321 92.7296V92.4546C83.321 92.042 83.7342 91.6294 84.1474 91.6294H132.214C132.627 91.6294 133.041 92.042 133.041 92.4546V92.7296C133.041 93.1422 132.765 93.5548 132.214 93.5548Z" fill="#DEDEDF"/>
  <path d="M132.214 99.4689H84.1474C83.7342 99.4689 83.321 99.0563 83.321 98.6437V98.3686C83.321 97.956 83.7342 97.5435 84.1474 97.5435H132.214C132.627 97.5435 133.041 97.956 133.041 98.3686V98.6437C133.041 99.0563 132.765 99.4689 132.214 99.4689Z" fill="#DEDEDF"/>
  <path d="M96.6806 105.245H84.2851C83.7342 105.245 83.321 104.833 83.321 104.283C83.321 103.732 83.7342 103.32 84.2851 103.32H96.6806C97.2315 103.32 97.6447 103.732 97.6447 104.283C97.6447 104.833 97.2315 105.245 96.6806 105.245Z" fill="#DEDEDF"/>
  <path d="M96.6806 86.9533H84.2851C83.7342 86.9533 83.321 86.5407 83.321 85.9905C83.321 85.4404 83.7342 85.0278 84.2851 85.0278H96.6806C97.2315 85.0278 97.6447 85.4404 97.6447 85.9905C97.6447 86.5407 97.2315 86.9533 96.6806 86.9533Z" fill="#DEDEDF"/>
  <path d="M129.46 41.5687C128.634 41.5687 127.807 41.9813 127.256 42.6689L120.783 41.0185C120.508 40.881 120.095 41.0185 119.819 41.2936L109.076 52.021C108.663 51.8834 108.25 51.7459 107.837 51.7459C107.424 51.7459 107.01 51.8834 106.597 52.021L98.3336 43.7691C98.4714 43.4941 98.4714 43.219 98.4714 42.8064C98.4714 41.2936 97.2318 40.1934 95.8545 40.1934C94.4773 40.1934 93.2377 41.4311 93.2377 42.8064C93.2377 43.0815 93.2377 43.4941 93.3754 43.7691L86.6268 50.5081C86.3514 50.3706 85.9382 50.3706 85.6627 50.3706C84.1477 50.3706 83.0459 51.6084 83.0459 52.9837C83.0459 54.359 84.2854 55.5967 85.6627 55.5967C87.04 55.5967 88.2795 54.359 88.2795 52.9837C88.2795 52.5711 88.1418 52.296 88.0041 51.8834L94.7527 45.1445C95.1659 45.282 95.4414 45.4195 95.8545 45.4195C96.2677 45.4195 96.6809 45.282 96.9564 45.1445L105.22 53.3963C105.082 53.6713 105.082 53.9464 105.082 54.2214C105.082 55.7343 106.322 56.8345 107.699 56.8345C109.214 56.8345 110.316 55.5967 110.316 54.2214C110.316 53.9464 110.316 53.6713 110.178 53.3963L120.645 42.944L126.568 44.4568C126.705 45.6946 127.807 46.7948 129.185 46.7948C130.7 46.7948 131.801 45.557 131.801 44.1817C132.077 42.6689 130.837 41.5687 129.46 41.5687ZM85.8004 54.359C85.1118 54.359 84.5609 53.8089 84.5609 53.1212C84.5609 52.4336 85.1118 51.8834 85.8004 51.8834C86.4891 51.8834 87.04 52.4336 87.04 53.1212C87.04 53.6713 86.4891 54.359 85.8004 54.359ZM95.9923 44.0442C95.3036 44.0442 94.7527 43.4941 94.7527 42.8064C94.7527 42.1188 95.3036 41.5687 95.9923 41.5687C96.6809 41.5687 97.2318 42.1188 97.2318 42.8064C97.2318 43.4941 96.8186 44.0442 95.9923 44.0442ZM107.975 55.5967C107.286 55.5967 106.735 55.0466 106.735 54.359C106.735 53.6713 107.286 53.1212 107.975 53.1212C108.663 53.1212 109.214 53.6713 109.214 54.359C109.352 55.0466 108.801 55.5967 107.975 55.5967ZM129.46 45.4195C128.771 45.4195 128.22 44.8694 128.22 44.1817C128.22 43.4941 128.771 42.944 129.46 42.944C130.149 42.944 130.7 43.4941 130.7 44.1817C130.7 44.8694 130.149 45.4195 129.46 45.4195Z" fill="#D5D5D6"/>
  <path d="M87.1774 77.1886H84.4229C84.1474 77.1886 83.8719 76.9135 83.8719 76.6384V63.1605C83.8719 62.8854 84.1474 62.6104 84.4229 62.6104H87.1774C87.4529 62.6104 87.7283 62.8854 87.7283 63.1605V76.6384C87.7283 76.9135 87.4529 77.1886 87.1774 77.1886Z" fill="#ECECEC"/>
  <path d="M88.8301 77.1884H85.6623C85.3869 77.1884 85.2491 77.0508 85.2491 76.7758V70.5869C85.2491 70.3119 85.3869 70.1743 85.6623 70.1743H88.8301C89.1055 70.1743 89.2432 70.3119 89.2432 70.5869V76.7758C89.2432 77.0508 88.9678 77.1884 88.8301 77.1884Z" fill="#D5D5D6"/>
  <path d="M94.3393 77.1886H91.5847C91.3093 77.1886 91.0338 76.9136 91.0338 76.6385V67.2865C91.0338 67.0114 91.3093 66.7363 91.5847 66.7363H94.3393C94.6147 66.7363 94.8902 67.0114 94.8902 67.2865V76.6385C94.8902 76.9136 94.6147 77.1886 94.3393 77.1886Z" fill="#ECECEC"/>
  <path d="M101.501 77.1884H98.7466C98.4711 77.1884 98.1957 76.9133 98.1957 76.6382V70.7244C98.1957 70.4494 98.4711 70.1743 98.7466 70.1743H101.501C101.777 70.1743 102.052 70.4494 102.052 70.7244V76.6382C102.052 76.9133 101.777 77.1884 101.501 77.1884Z" fill="#ECECEC"/>
  <path d="M108.663 77.1884H105.908C105.633 77.1884 105.357 76.9134 105.357 76.6383V65.4984C105.357 65.2233 105.633 64.9482 105.908 64.9482H108.663C108.938 64.9482 109.214 65.2233 109.214 65.4984V76.6383C109.214 76.9134 109.076 77.1884 108.663 77.1884Z" fill="#ECECEC"/>
  <path d="M115.963 77.1883H113.208C112.933 77.1883 112.657 76.9133 112.657 76.6382V69.8992C112.657 69.6242 112.933 69.3491 113.208 69.3491H115.963C116.238 69.3491 116.513 69.6242 116.513 69.8992V76.6382C116.513 76.9133 116.238 77.1883 115.963 77.1883Z" fill="#ECECEC"/>
  <path d="M123.125 77.1886H120.37C120.095 77.1886 119.819 76.9136 119.819 76.6385V67.2865C119.819 67.0114 120.095 66.7363 120.37 66.7363H123.125C123.4 66.7363 123.675 67.0114 123.675 67.2865V76.6385C123.675 76.9136 123.4 77.1886 123.125 77.1886Z" fill="#ECECEC"/>
  <path d="M130.286 77.1884H127.531C127.256 77.1884 126.981 76.9133 126.981 76.6382V70.7244C126.981 70.4494 127.256 70.1743 127.531 70.1743H130.286C130.561 70.1743 130.837 70.4494 130.837 70.7244V76.6382C130.837 76.9133 130.561 77.1884 130.286 77.1884Z" fill="#ECECEC"/>
  <path d="M95.992 77.1887H92.6866C92.5489 77.1887 92.4111 77.0512 92.4111 76.9137V73.2004C92.4111 73.0628 92.5489 72.9253 92.6866 72.9253H95.992C96.1298 72.9253 96.2675 73.0628 96.2675 73.2004V76.9137C96.2675 77.0512 96.1298 77.1887 95.992 77.1887Z" fill="#D5D5D6"/>
  <path d="M103.291 77.1886H99.8481C99.7104 77.1886 99.5726 77.0511 99.5726 76.9135V75.1256C99.5726 74.9881 99.7104 74.8506 99.8481 74.8506H103.291C103.429 74.8506 103.567 74.9881 103.567 75.1256V76.9135C103.429 77.0511 103.429 77.1886 103.291 77.1886Z" fill="#D5D5D6"/>
  <path d="M110.453 77.1886H107.148C107.01 77.1886 106.872 77.0511 106.872 76.9135V74.3004C106.872 74.1629 107.01 74.0254 107.148 74.0254H110.453C110.591 74.0254 110.729 74.1629 110.729 74.3004V76.9135C110.729 77.0511 110.729 77.1886 110.453 77.1886Z" fill="#D5D5D6"/>
  <path d="M117.615 77.1884H114.448C114.31 77.1884 114.172 77.0509 114.172 76.9133V72.0998C114.172 71.9622 114.31 71.8247 114.448 71.8247H117.615C117.753 71.8247 117.891 71.9622 117.891 72.0998V76.9133C118.029 77.0509 117.891 77.1884 117.615 77.1884Z" fill="#D5D5D6"/>
  <path d="M125.19 77.1886H121.609C121.471 77.1886 121.471 77.1886 121.471 77.0511V76.2259C121.471 76.0884 121.471 76.0884 121.609 76.0884H125.19C125.328 76.0884 125.328 76.0884 125.328 76.2259V76.9136C125.328 77.0511 125.328 77.1886 125.19 77.1886Z" fill="#D5D5D6"/>
  <path d="M132.352 77.1891H128.771C128.771 77.1891 128.633 77.1891 128.633 77.0514V76.6382C128.633 76.6382 128.633 76.5005 128.771 76.5005H132.352C132.352 76.5005 132.49 76.5005 132.49 76.6382L132.352 77.1891C132.49 77.0514 132.352 77.1891 132.352 77.1891Z" fill="#D5D5D6"/>
  <g filter="url(#filter3_d_1_120753)">
    <path d="M138.563 112.199L138.416 112.125C138.342 112.051 138.196 112.051 138.122 111.978L135.846 110.87L135.332 111.018C134.451 110.796 133.496 110.722 132.615 110.722L86.5755 110.796C83.1244 110.796 79.7467 112.199 77.3235 114.71C74.9004 117.221 73.5052 120.544 73.5052 124.015C73.5052 128.077 75.341 131.77 78.2781 134.133L77.9844 134.428L80.8481 135.831C80.9215 135.905 80.9949 135.905 81.1418 135.979L81.2886 136.053C82.9775 136.792 84.8132 137.235 86.7223 137.235H103.611H132.762C135.332 137.235 137.902 136.422 140.031 135.019C140.766 134.502 141.426 133.985 142.014 133.321C144.437 130.81 145.832 127.486 145.832 123.941C145.685 118.846 142.822 114.415 138.563 112.199Z" fill="#FF7500"/>
  </g>
  <path d="M143.262 122.686C143.262 126.157 141.867 129.554 139.444 132.065C138.856 132.656 138.122 133.247 137.461 133.764C135.332 135.167 132.835 135.979 130.192 135.979H101.041H84.1521C76.8827 135.979 71.0084 130.071 71.0084 122.834C71.0084 119.363 72.4036 115.966 74.8267 113.528C77.3233 111.018 80.6275 109.614 84.0787 109.614L130.118 109.541C137.314 109.541 143.188 115.449 143.262 122.686Z" fill="url(#paint3_linear_1_120753)"/>
  <path d="M137.387 133.764C135.258 135.167 132.761 135.979 130.118 135.979H100.967L93.11 128.077L94.3583 126.822L95.5331 119.437L100.159 119.658L104.565 124.089L104.859 120.323L105.373 118.477L110.366 123.499L111.54 118.477L117.415 124.385L115.285 119.437L115.432 118.403L118.296 121.283L120.205 120.175L122.114 118.403L137.387 133.764Z" fill="url(#paint4_linear_1_120753)"/>
  <path d="M93.11 128.077V118.403H97.4423C99.4982 118.403 100.747 119.658 100.747 120.988C100.747 122.465 99.4982 122.982 99.4982 122.982C99.4982 122.982 101.187 123.499 101.187 125.271C101.187 126.748 99.792 128.077 97.6625 128.077H93.11ZM95.68 120.471V122.095H97.1485C97.736 122.095 98.0297 121.726 98.0297 121.283C98.0297 120.84 97.6625 120.471 97.1485 120.471H95.68ZM97.4423 126.009C98.0297 126.009 98.4703 125.566 98.4703 125.049C98.4703 124.532 98.0297 124.089 97.4423 124.089H95.68V126.009H97.4423Z" fill="white"/>
  <path d="M108.971 124.089V118.403H111.614V124.089C111.614 126.526 109.778 128.373 107.208 128.373C104.638 128.373 102.803 126.526 102.803 124.089V118.403H105.446V124.089C105.446 125.197 106.254 126.009 107.208 126.009C108.163 126.009 108.971 125.197 108.971 124.089Z" fill="white"/>
  <path d="M122.114 118.403L118.663 124.606V128.077H116.02V124.606L112.569 118.403H115.359L117.268 122.169L119.177 118.403H122.114Z" fill="white"/>
  <defs>
    <filter id="filter0_d_1_120753" x="0.583618" y="36.4824" width="109.007" height="136.42" filterUnits="userSpaceOnUse" color-interpolation-filters="sRGB">
      <feFlood flood-opacity="0" result="BackgroundImageFix"/>
      <feColorMatrix in="SourceAlpha" type="matrix" values="0 0 0 0 0 0 0 0 0 0 0 0 0 0 0 0 0 0 127 0" result="hardAlpha"/>
      <feOffset dy="11"/>
      <feGaussianBlur stdDeviation="11"/>
      <feColorMatrix type="matrix" values="0 0 0 0 0.397708 0 0 0 0 0.47749 0 0 0 0 0.575 0 0 0 0.18 0"/>
      <feBlend mode="normal" in2="BackgroundImageFix" result="effect1_dropShadow_1_120753"/>
      <feBlend mode="normal" in="SourceGraphic" in2="effect1_dropShadow_1_120753" result="shape"/>
    </filter>
    <filter id="filter1_d_1_120753" x="96.9927" y="7.87598" width="109.007" height="136.283" filterUnits="userSpaceOnUse" color-interpolation-filters="sRGB">
      <feFlood flood-opacity="0" result="BackgroundImageFix"/>
      <feColorMatrix in="SourceAlpha" type="matrix" values="0 0 0 0 0 0 0 0 0 0 0 0 0 0 0 0 0 0 127 0" result="hardAlpha"/>
      <feOffset dy="11"/>
      <feGaussianBlur stdDeviation="11"/>
      <feColorMatrix type="matrix" values="0 0 0 0 0.397708 0 0 0 0 0.47749 0 0 0 0 0.575 0 0 0 0.18 0"/>
      <feBlend mode="normal" in2="BackgroundImageFix" result="effect1_dropShadow_1_120753"/>
      <feBlend mode="normal" in="SourceGraphic" in2="effect1_dropShadow_1_120753" result="shape"/>
    </filter>
    <filter id="filter2_d_1_120753" x="52.6448" y="16.4028" width="109.007" height="136.42" filterUnits="userSpaceOnUse" color-interpolation-filters="sRGB">
      <feFlood flood-opacity="0" result="BackgroundImageFix"/>
      <feColorMatrix in="SourceAlpha" type="matrix" values="0 0 0 0 0 0 0 0 0 0 0 0 0 0 0 0 0 0 127 0" result="hardAlpha"/>
      <feOffset dy="11"/>
      <feGaussianBlur stdDeviation="11"/>
      <feColorMatrix type="matrix" values="0 0 0 0 0.397708 0 0 0 0 0.47749 0 0 0 0 0.575 0 0 0 0.18 0"/>
      <feBlend mode="normal" in2="BackgroundImageFix" result="effect1_dropShadow_1_120753"/>
      <feBlend mode="normal" in="SourceGraphic" in2="effect1_dropShadow_1_120753" result="shape"/>
    </filter>
    <filter id="filter3_d_1_120753" x="63.5052" y="109.722" width="92.3269" height="46.5127" filterUnits="userSpaceOnUse" color-interpolation-filters="sRGB">
      <feFlood flood-opacity="0" result="BackgroundImageFix"/>
      <feColorMatrix in="SourceAlpha" type="matrix" values="0 0 0 0 0 0 0 0 0 0 0 0 0 0 0 0 0 0 127 0" result="hardAlpha"/>
      <feOffset dy="9"/>
      <feGaussianBlur stdDeviation="5"/>
      <feColorMatrix type="matrix" values="0 0 0 0 0.968627 0 0 0 0 0.426196 0 0 0 0 0.254902 0 0 0 0.36 0"/>
      <feBlend mode="normal" in2="BackgroundImageFix" result="effect1_dropShadow_1_120753"/>
      <feBlend mode="normal" in="SourceGraphic" in2="effect1_dropShadow_1_120753" result="shape"/>
    </filter>
    <linearGradient id="paint0_linear_1_120753" x1="30.7563" y1="36.1346" x2="35.3612" y2="36.144" gradientUnits="userSpaceOnUse">
      <stop stop-color="#FF6931"/>
      <stop offset="1" stop-color="#FF9839"/>
    </linearGradient>
    <linearGradient id="paint1_linear_1_120753" x1="150.852" y1="129.942" x2="155.186" y2="129.951" gradientUnits="userSpaceOnUse">
      <stop stop-color="#FF6931"/>
      <stop offset="1" stop-color="#FF9839"/>
    </linearGradient>
    <linearGradient id="paint2_linear_1_120753" x1="62.4309" y1="31.7456" x2="66.7649" y2="31.7544" gradientUnits="userSpaceOnUse">
      <stop stop-color="#FF6931"/>
      <stop offset="1" stop-color="#FF9839"/>
    </linearGradient>
    <linearGradient id="paint3_linear_1_120753" x1="71.731" y1="121.585" x2="142.781" y2="121.98" gradientUnits="userSpaceOnUse">
      <stop stop-color="#FF6931"/>
      <stop offset="1" stop-color="#FF9839"/>
    </linearGradient>
    <linearGradient id="paint4_linear_1_120753" x1="115.238" y1="119.488" x2="115.238" y2="134.423" gradientUnits="userSpaceOnUse">
      <stop stop-color="#FE7503"/>
      <stop offset="1" stop-color="#FE7503" stop-opacity="0"/>
    </linearGradient>
  </defs>
</svg>