<svg width="20" height="20" viewBox="0 0 24 24" fill="none" xmlns="http://www.w3.org/2000/svg">
    <g clip-path="url(#clip0_4065_16565)">
        <path opacity="0.2" d="M3.96484 6.75H21.0002L18.3264 15.4416C18.232 15.7482 18.0417 16.0165 17.7835 16.207C17.5253 16.3975 17.2129 16.5002 16.892 16.5H7.88172C7.55572 16.5001 7.23854 16.3941 6.97821 16.1978C6.71788 16.0016 6.52856 15.7259 6.43891 15.4125L3.96484 6.75Z" fill="#E85912"/>
        <path d="M7.5 21.75C8.32843 21.75 9 21.0784 9 20.25C9 19.4216 8.32843 18.75 7.5 18.75C6.67157 18.75 6 19.4216 6 20.25C6 21.0784 6.67157 21.75 7.5 21.75Z" fill="#FFF"/>
        <path d="M18 20.25C18 20.6642 17.6642 21 17.25 21C16.8358 21 16.5 20.6642 16.5 20.25C16.5 19.8358 16.8358 19.5 17.25 19.5C17.6642 19.5 18 19.8358 18 20.25Z" fill="#E85912" stroke="#FFF" stroke-width="1.5"/>
        <path d="M3.96469 6.75H21L18.3262 15.4416C18.2318 15.7482 18.0415 16.0165 17.7833 16.207C17.5252 16.3975 17.2127 16.5002 16.8919 16.5H7.88156C7.55556 16.5001 7.23839 16.3941 6.97806 16.1978C6.71772 16.0016 6.5284 15.7259 6.43875 15.4125L3.04781 3.54375C3.00301 3.38711 2.90842 3.24932 2.77835 3.15122C2.64828 3.05311 2.4898 3.00003 2.32687 3H0.75" stroke="#FFF" stroke-width="1.5" stroke-linecap="round" stroke-linejoin="round"/>
    </g>
    <defs>
        <clipPath id="clip0_4065_16565">
            <rect width="24" height="24" fill="white"/>
        </clipPath>
    </defs>
</svg>
