<svg xmlns="http://www.w3.org/2000/svg" width="16" height="17" viewBox="0 0 16 17" fill="none">
    <g clip-path="url(#clip0_8789_200293)">
        <path d="M8 4.83301V5.83301" stroke="#716B95" stroke-width="1.3" stroke-linecap="round" stroke-linejoin="round"/>
        <path d="M8 10.833V11.833" stroke="#716B95" stroke-width="1.3" stroke-linecap="round" stroke-linejoin="round"/>
        <path d="M8 14.333C11.3137 14.333 14 11.6467 14 8.33301C14 5.0193 11.3137 2.33301 8 2.33301C4.68629 2.33301 2 5.0193 2 8.33301C2 11.6467 4.68629 14.333 8 14.333Z" stroke="#716B95" stroke-width="1.3" stroke-linecap="round" stroke-linejoin="round"/>
        <path d="M6.5 10.833H8.75C9.08152 10.833 9.39946 10.7013 9.63388 10.4669C9.8683 10.2325 10 9.91453 10 9.58301C10 9.25149 9.8683 8.93354 9.63388 8.69912C9.39946 8.4647 9.08152 8.33301 8.75 8.33301H7.25C6.91848 8.33301 6.60054 8.20131 6.36612 7.96689C6.1317 7.73247 6 7.41453 6 7.08301C6 6.75149 6.1317 6.43354 6.36612 6.19912C6.60054 5.9647 6.91848 5.83301 7.25 5.83301H9.5" stroke="#716B95" stroke-width="1.3" stroke-linecap="round" stroke-linejoin="round"/>
    </g>
    <defs>
        <clipPath id="clip0_8789_200293">
            <rect width="16" height="16" fill="white" transform="translate(0 0.333008)"/>
        </clipPath>
    </defs>
</svg>