<svg width="249" height="220" viewBox="0 0 249 220" fill="none" xmlns="http://www.w3.org/2000/svg">
<g id="Group">
<path id="Vector" d="M130.882 14.2067C130.882 14.2067 113.044 61.1387 58.5057 53.6686C3.96742 46.1985 -24.4081 121.817 28.1051 145.871C80.6182 169.924 46.9995 202.814 81.9012 216.699C121.57 232.481 132.628 171.666 161.424 175.645C224.978 184.427 262.684 161.154 243.9 133.728C210.927 85.5844 189.114 88.6458 196.219 55.9663C203.324 23.2868 150.261 -23.3007 130.882 14.2067Z" fill="#FDEEE7"/>
<g id="Group_2">
<g id="Group_3">
<path id="Vector_2" d="M164.497 47.8565C164.274 47.4802 164.204 47.0317 164.304 46.6055C164.405 46.1792 164.666 45.8084 165.034 45.571L178.715 36.3589C178.903 36.2272 179.115 36.1346 179.34 36.0866C179.564 36.0387 179.796 36.0364 180.021 36.0799C180.246 36.1234 180.46 36.2118 180.651 36.3398C180.841 36.4678 181.004 36.6329 181.129 36.8251L181.825 37.9465C181.941 38.1436 182.017 38.3623 182.047 38.5894C182.076 38.8164 182.06 39.0472 181.999 39.2678C181.937 39.4884 181.831 39.6942 181.688 39.8729C181.545 40.0516 181.367 40.1995 181.165 40.3077L166.788 48.3984C166.41 48.6205 165.961 48.6882 165.534 48.5872C165.107 48.4863 164.736 48.2245 164.497 47.8565Z" fill="#E85912"/>
<path id="Vector_3" d="M158.669 42.5014C158.44 42.3317 158.288 42.0781 158.246 41.7962C158.204 41.5144 158.276 41.2275 158.445 40.9986L164.676 32.252C164.852 32.0015 165.12 31.8311 165.422 31.7782C165.723 31.7252 166.033 31.7939 166.284 31.9694L166.988 32.4828C167.107 32.5717 167.207 32.6845 167.281 32.8139C167.354 32.9434 167.401 33.0868 167.416 33.235C167.432 33.3832 167.416 33.533 167.371 33.6749C167.326 33.8169 167.252 33.948 167.153 34.0598L160.219 42.2931C160.034 42.5162 159.772 42.6615 159.485 42.7001C159.198 42.7387 158.906 42.6677 158.669 42.5014Z" fill="#E85912"/>
<path id="Vector_4" d="M151.337 42.5987C150.419 42.5695 149.726 41.6388 149.766 40.4888L150.481 20.0695C150.524 18.8498 151.371 17.859 152.345 17.89L153.702 17.9332C154.676 17.9642 155.385 19.0042 155.261 20.2217L153.188 40.5976C153.072 41.7452 152.255 42.6278 151.337 42.5987Z" fill="#E85912"/>
</g>
<g id="Group_4">
<path id="Vector_5" d="M213.127 89.4021L140.958 59.1166C138.726 58.1801 135.383 61.0756 133.491 65.584L95.2386 156.739C93.3467 161.248 93.6221 165.662 95.8539 166.598L168.023 196.884C170.255 197.82 173.598 194.925 175.49 190.416L213.743 99.2609C215.635 94.7526 215.359 90.3386 213.127 89.4021Z" fill="#F5B899"/>
<path id="Vector_6" d="M153.285 77.1206L142.215 72.4751C140.454 71.7362 138.427 72.5646 137.688 74.3255L133.043 85.3955C132.304 87.1564 133.132 89.1828 134.893 89.9217L145.963 94.5672C147.724 95.3061 149.751 94.4777 150.49 92.7169L155.135 81.6468C155.874 79.886 155.046 77.8595 153.285 77.1206Z" fill="#F9D7C6"/>
<path id="Vector_7" d="M172.086 174.569L108.361 147.827C108.233 147.773 108.063 147.887 107.981 148.081L103.77 158.116C103.689 158.311 103.726 158.512 103.854 158.565L167.579 185.307C167.707 185.361 167.877 185.247 167.959 185.053L172.17 175.018C172.251 174.823 172.214 174.622 172.086 174.569Z" fill="#FDEEE7"/>
<path id="Vector_8" d="M166.144 112.576L129.322 97.1241C129.217 97.0798 129.095 97.1294 129.051 97.2349L126.766 102.68C126.722 102.785 126.772 102.906 126.877 102.951L163.699 118.403C163.805 118.447 163.926 118.397 163.97 118.292L166.255 112.847C166.299 112.742 166.25 112.62 166.144 112.576Z" fill="#F9D7C6"/>
<path id="Vector_9" d="M177.153 130.427L124.602 108.374C124.496 108.33 124.375 108.379 124.331 108.485L122.046 113.929C122.001 114.035 122.051 114.156 122.157 114.201L174.708 136.253C174.813 136.298 174.935 136.248 174.979 136.143L177.264 130.698C177.308 130.593 177.258 130.471 177.153 130.427Z" fill="#F9D7C6"/>
</g>
<g id="Group_5">
<path id="Vector_10" d="M125.42 32.0144L35.5326 62.9791C32.753 63.9367 32.0677 69.2649 34.0021 74.8801L73.1128 188.414C75.0471 194.03 78.8686 197.805 81.6482 196.848L171.536 165.883C174.315 164.925 175.001 159.597 173.066 153.982L133.955 40.4478C132.021 34.8326 128.2 31.0568 125.42 32.0144Z" fill="#EC773D"/>
<path id="Vector_11" d="M61.2701 69.3135L47.4823 74.0632C45.2892 74.8187 44.1238 77.209 44.8793 79.4021L49.629 93.19C50.3845 95.3831 52.7748 96.5485 54.9679 95.793L68.7557 91.0433C70.9488 90.2879 72.1143 87.8975 71.3588 85.7044L66.6091 71.9166C65.8536 69.7235 63.4633 68.558 61.2701 69.3135Z" fill="#F5B899"/>
<path id="Vector_12" d="M157.158 142.38L77.7881 169.721C77.6288 169.776 77.5672 170.017 77.6507 170.259L81.9562 182.758C82.0396 183 82.2363 183.152 82.3956 183.097L161.765 155.755C161.925 155.7 161.986 155.46 161.903 155.217L157.597 142.719C157.514 142.477 157.317 142.325 157.158 142.38Z" fill="white"/>
<path id="Vector_13" d="M101.611 91.0275L55.7492 106.826C55.6178 106.872 55.548 107.015 55.5933 107.146L57.9293 113.927C57.9746 114.059 58.1178 114.129 58.2491 114.083L104.111 98.2845C104.243 98.2393 104.312 98.0961 104.267 97.9647L101.931 91.1835C101.886 91.0521 101.743 90.9823 101.611 91.0275Z" fill="#F5B899"/>
<path id="Vector_14" d="M126.028 98.2911L60.5754 120.838C60.444 120.884 60.3742 121.027 60.4195 121.158L62.7555 127.939C62.8007 128.071 62.9439 128.141 63.0753 128.095L128.528 105.548C128.66 105.503 128.729 105.36 128.684 105.228L126.348 98.447C126.303 98.3157 126.16 98.2459 126.028 98.2911Z" fill="#F5B899"/>
</g>
</g>
</g>
</svg>
