<svg width="106" height="115" viewBox="0 0 106 115" fill="none" xmlns="http://www.w3.org/2000/svg">
<g id="Group">
<path id="Vector" d="M98.9219 37.7784C98.9219 37.7784 83.4963 51.3183 101.258 80.312C117.032 106.061 81.5768 117.223 66.2983 114.234C46.5063 110.362 35.1426 85.3464 20.0069 93.2729C4.87123 101.199 -10.1232 65.2809 11.8931 52.0638C39.2804 35.6224 21.7036 26.068 24.1634 14.0127C25.9288 5.36069 51.0513 -8.01617 64.5974 7.24275C75.9964 20.083 81.5864 15.4893 86.7963 13.7752C94.3106 11.3029 110.712 24.1625 98.9219 37.7784Z" fill="#F5F5F5"/>
<g id="Group_2">
<g id="Group_3" opacity="0.5">
<path id="Vector_2" d="M55.2464 53.0363L50.1925 73.7663C50.0049 74.535 49.9706 75.3332 50.0915 76.1152C50.2125 76.8973 50.4863 77.6478 50.8974 78.3239C51.3085 79.0001 51.8488 79.5886 52.4874 80.0559C53.126 80.5232 53.8505 80.86 54.6193 81.0472L79.7542 87.1749C79.7472 87.1966 79.7731 87.162 79.7542 87.1749L88.2461 89.2451C89.0148 89.4328 89.813 89.4671 90.595 89.3462C91.377 89.2252 92.1276 88.9514 92.8037 88.5403C93.4799 88.1292 94.0684 87.5889 94.5357 86.9503C95.0029 86.3116 95.3398 85.5872 95.527 84.8184L100.581 64.0884C100.768 63.3197 100.803 62.5215 100.682 61.7395C100.561 60.9575 100.287 60.2069 99.8759 59.5308C99.4648 58.8546 98.9246 58.2661 98.2859 57.7988C97.6473 57.3315 96.9229 56.9947 96.1541 56.8074L62.5273 48.6095C61.7586 48.4219 60.9604 48.3876 60.1784 48.5085C59.3963 48.6295 58.6458 48.9033 57.9697 49.3144C57.2935 49.7255 56.705 50.2658 56.2377 50.9044C55.7704 51.543 55.4336 52.2675 55.2464 53.0363Z" fill="#CACDD3"/>
<g id="Group_4">
<path id="Vector_3" d="M96.9397 63.263L82.8849 59.8365C82.7923 59.8139 82.699 59.8707 82.6764 59.9632L81.9554 62.9208C81.9328 63.0134 81.9896 63.1067 82.0821 63.1293L96.137 66.5557C96.2295 66.5783 96.3229 66.5215 96.3454 66.429L97.0665 63.4714C97.089 63.3789 97.0323 63.2855 96.9397 63.263Z" fill="white"/>
<path id="Vector_4" d="M94.9327 71.4949L56.8519 62.2111C56.7594 62.1886 56.666 62.2453 56.6435 62.3379L55.9224 65.2955C55.8999 65.388 55.9566 65.4813 56.0492 65.5039L94.1299 74.7877C94.2225 74.8103 94.3158 74.7535 94.3384 74.661L95.0594 71.7034C95.082 71.6108 95.0252 71.5175 94.9327 71.4949Z" fill="#F5F5F5"/>
<path id="Vector_5" d="M92.926 79.727L54.8453 70.4432C54.7528 70.4206 54.6594 70.4774 54.6369 70.5699L53.9158 73.5275C53.8933 73.6201 53.95 73.7134 54.0426 73.736L92.1233 83.0198C92.2158 83.0423 92.3091 82.9856 92.3317 82.893L93.0527 79.9354C93.0753 79.8429 93.0186 79.7496 92.926 79.727Z" fill="#F5F5F5"/>
</g>
</g>
<g id="Group_5">
<path id="Vector_6" d="M69.3977 28.169L77.662 54.7081C77.9688 55.6923 78.0786 56.7272 77.9852 57.7538C77.8919 58.7804 77.5972 59.7786 77.118 60.6912C76.6387 61.6039 75.9844 62.4132 75.1922 63.0729C74.4001 63.7326 73.4858 64.2297 72.5015 64.5359L40.3235 74.556C40.3125 74.5281 40.3151 74.5847 40.3235 74.556C40.2992 74.5734 40.3319 74.5272 40.3235 74.556L29.4519 77.9411C28.4678 78.2478 27.433 78.3576 26.4064 78.2642C25.3798 78.1709 24.3818 77.8762 23.4691 77.397C22.5565 76.9178 21.7472 76.2634 21.0875 75.4714C20.4279 74.6793 19.9307 73.7651 19.6244 72.7808L11.3601 46.2417C11.0534 45.2576 10.9435 44.2226 11.0369 43.196C11.1302 42.1694 11.4249 41.1713 11.9041 40.2586C12.3834 39.3459 13.0377 38.5366 13.8298 37.8769C14.6219 37.2172 15.5363 36.72 16.5206 36.4138L59.5698 23.0086C60.5539 22.7018 61.5888 22.592 62.6154 22.6853C63.6421 22.7787 64.6402 23.0734 65.5529 23.5526C66.4656 24.0318 67.2749 24.6862 67.9346 25.4783C68.5943 26.2704 69.0915 27.1847 69.3977 28.169Z" fill="#BDC2CB"/>
<g id="Group_6">
<path id="Vector_7" d="M38.9947 37.6741L15.9418 44.8434C15.8509 44.8717 15.8 44.9684 15.8283 45.0594L17.0372 48.9464C17.0655 49.0374 17.1622 49.0882 17.2531 49.0599L40.306 41.8906C40.397 41.8623 40.4478 41.7656 40.4195 41.6746L39.2107 37.7876C39.1824 37.6966 39.0857 37.6458 38.9947 37.6741Z" fill="white"/>
<path id="Vector_8" d="M68.0865 40.1377L19.2355 55.3502C19.1445 55.3785 19.0938 55.4752 19.1221 55.5662L20.3322 59.4523C20.3606 59.5432 20.4573 59.594 20.5482 59.5657L69.3992 44.3531C69.4901 44.3248 69.5409 44.2281 69.5126 44.1371L68.3024 40.2511C68.2741 40.1601 68.1774 40.1093 68.0865 40.1377Z" fill="#F5F5F5"/>
<path id="Vector_9" d="M71.3638 50.7305L22.5014 65.9264C22.4104 65.9547 22.3596 66.0514 22.3879 66.1424L23.5967 70.0294C23.625 70.1203 23.7217 70.1712 23.8127 70.1429L72.6751 54.947C72.7661 54.9187 72.8169 54.822 72.7886 54.731L71.5798 50.844C71.5515 50.753 71.4548 50.7022 71.3638 50.7305Z" fill="#F5F5F5"/>
</g>
</g>
</g>
</g>
</svg>
