<svg width="404" height="260" viewBox="0 0 404 260" fill="none" xmlns="http://www.w3.org/2000/svg">
<path fill-rule="evenodd" clip-rule="evenodd" d="M17.627 14.2469C17.627 9.97807 21.0875 6.51752 25.3563 6.51752H240.214C244.483 6.51752 247.943 9.97808 247.943 14.2469V234.674C247.943 238.943 244.483 242.403 240.214 242.403H25.3563C21.0875 242.403 17.627 238.942 17.627 234.674V14.2469Z" fill="#D7D1F9"/>
<path d="M11.3865 8.22937C11.3865 4.174 14.674 0.886469 18.7294 0.886469H233.587C237.642 0.886469 240.93 4.174 240.93 8.22938V228.656C240.93 232.712 237.642 235.999 233.587 235.999H18.7294C14.674 235.999 11.3865 232.712 11.3865 228.656V8.22937Z" fill="white" stroke="#EEEBFF" stroke-width="0.772938"/>
<path opacity="0.317987" fill-rule="evenodd" clip-rule="evenodd" d="M38.7285 131.253C38.7285 131.253 47.6676 106.678 78.1316 112.734C86.4862 114.395 87.2951 120.492 95.9016 120.591C110.354 120.756 106.2 101.122 120.625 100.389C131.954 99.8121 134.776 110.737 146.121 111.051C160.585 111.451 171.53 96.5412 172.342 95.4062C172.378 95.356 172.41 95.3143 172.45 95.2671L206.702 54.6492C207.91 53.2168 210.248 54.071 210.248 55.9448V177.83H36.4106L38.7285 131.253Z" fill="#FDEEE7"/>
<path d="M37.7724 131.505C37.6017 132.033 37.8915 132.6 38.4195 132.77C38.9476 132.941 39.514 132.651 39.6846 132.123L37.7724 131.505ZM76.8664 112.62L76.6586 113.603L76.8664 112.62ZM95.7206 120.781L95.7477 119.776L95.7206 120.781ZM119.515 100.075L119.558 101.079L119.515 100.075ZM143.905 111.06L143.871 112.064L143.905 111.06ZM210.248 49.8831L199.414 54.0356L208.427 61.342L210.248 49.8831ZM174.205 94.3416L173.465 93.6611L174.205 94.3416ZM174.273 94.2623L173.492 93.6295L174.273 94.2623ZM38.7285 131.814C39.6846 132.123 39.6845 132.124 39.6844 132.124C39.6844 132.124 39.6843 132.124 39.6843 132.124C39.6844 132.124 39.6845 132.124 39.6848 132.123C39.6853 132.121 39.6864 132.118 39.6879 132.113C39.691 132.104 39.6962 132.089 39.7034 132.068C39.7179 132.025 39.7407 131.96 39.7722 131.874C39.8354 131.701 39.9334 131.443 40.0695 131.115C40.3419 130.457 40.7662 129.517 41.3678 128.404C42.5724 126.177 44.4788 123.276 47.2851 120.571C52.8585 115.199 62.0589 110.517 76.6586 113.603L77.0742 111.637C61.7813 108.404 51.9128 113.319 45.8904 119.124C42.8988 122.008 40.8756 125.09 39.6001 127.449C38.9615 128.629 38.5081 129.633 38.2129 130.346C38.0652 130.702 37.9568 130.987 37.8846 131.184C37.8484 131.283 37.8213 131.361 37.8027 131.415C37.7935 131.442 37.7863 131.463 37.7813 131.478C37.7788 131.486 37.7768 131.492 37.7753 131.496C37.7746 131.499 37.7739 131.5 37.7735 131.502C37.7732 131.503 37.7729 131.503 37.7728 131.504C37.7726 131.505 37.7724 131.505 38.7285 131.814ZM76.6586 113.603C80.5138 114.418 82.9394 116.269 85.6115 118.092C88.2914 119.921 91.1597 121.663 95.6935 121.785L95.7477 119.776C91.8013 119.67 89.3284 118.195 86.7441 116.432C84.1522 114.664 81.3909 112.549 77.0742 111.637L76.6586 113.603ZM95.6935 121.785C99.5237 121.888 102.169 120.564 104.151 118.487C106.074 116.471 107.343 113.769 108.533 111.227C109.754 108.619 110.898 106.161 112.568 104.292C114.189 102.479 116.312 101.22 119.558 101.079L119.471 99.0711C115.643 99.2371 113.024 100.767 111.07 102.953C109.165 105.084 107.901 107.836 106.713 110.375C105.494 112.98 104.353 115.364 102.697 117.099C101.1 118.773 98.9994 119.864 95.7477 119.776L95.6935 121.785ZM119.558 101.079C124.679 100.857 127.743 103.265 131.066 106.02C134.373 108.761 137.948 111.863 143.871 112.064L143.939 110.055C138.785 109.88 135.7 107.25 132.348 104.473C129.014 101.709 125.421 98.8129 119.471 99.0711L119.558 101.079ZM143.871 112.064C151.359 112.318 158.97 108.179 164.7 104.019C170.468 99.8305 174.526 95.4757 174.944 95.0221L173.465 93.6611C173.09 94.069 169.134 98.3156 163.519 102.392C157.866 106.497 150.723 110.286 143.939 110.055L143.871 112.064ZM175.053 94.8951L205.334 57.541L203.772 56.2755L173.492 93.6295L175.053 94.8951ZM174.944 95.0221C174.988 94.9737 175.021 94.9343 175.053 94.8951L173.492 93.6295C173.476 93.649 173.472 93.6539 173.465 93.6611L174.944 95.0221Z" fill="#E85912"/>
<path opacity="0.261579" fill-rule="evenodd" clip-rule="evenodd" d="M52.6352 134.62C52.6352 134.62 61.4797 125.571 85.0848 132.375C91.8812 134.335 94.8674 139.135 102.082 139.671C113.156 140.493 112.891 129.322 123.715 127.325C130.747 126.027 140.461 127.762 147.666 127.325C165.918 126.217 170.844 125.08 187.842 117.224C199.964 111.621 208.567 100.611 213.398 92.9566C214.557 91.1208 217.974 91.9803 217.974 94.1511V177.83H50.3174L52.6352 134.62Z" fill="#EDF1FF"/>
<path d="M51.9376 133.907C51.5385 134.292 51.5275 134.928 51.9131 135.328C52.2987 135.727 52.9348 135.738 53.3339 135.352L51.9376 133.907ZM85.0909 132.351L85.3669 131.385L85.0909 132.351ZM101.008 139.621L101.086 138.619L101.008 139.621ZM124.202 127.46L124.03 126.47L124.202 127.46ZM142.102 127.46L142.159 128.463L142.102 127.46ZM187.16 117.746L186.72 116.843L187.16 117.746ZM219.519 82.431L209.424 88.1493L219.424 94.0333L219.519 82.431ZM52.6357 134.629C53.3339 135.352 53.3334 135.353 53.3329 135.353C53.3327 135.353 53.3323 135.354 53.332 135.354C53.3315 135.354 53.3312 135.355 53.331 135.355C53.3305 135.355 53.3307 135.355 53.3313 135.354C53.3327 135.353 53.3363 135.35 53.3421 135.344C53.3538 135.334 53.3745 135.315 53.4042 135.289C53.4637 135.238 53.5597 135.157 53.6933 135.053C53.9603 134.846 54.3778 134.547 54.9549 134.203C56.1082 133.516 57.9025 132.646 60.4132 131.972C65.4271 130.626 73.3543 130.043 84.8149 133.317L85.3669 131.385C73.599 128.023 65.2986 128.58 59.8921 130.031C57.1926 130.756 55.2283 131.701 53.9258 132.477C53.2749 132.865 52.7901 133.211 52.4619 133.465C52.2978 133.592 52.1728 133.697 52.0858 133.772C52.0424 133.81 52.0084 133.841 51.9837 133.864C51.9714 133.875 51.9614 133.884 51.9537 133.891C51.9498 133.895 51.9466 133.898 51.9439 133.901C51.9426 133.902 51.9414 133.903 51.9403 133.904C51.9398 133.905 51.9391 133.905 51.9388 133.905C51.9382 133.906 51.9376 133.907 52.6357 134.629ZM84.8149 133.317C88.0573 134.244 90.0504 135.804 92.2974 137.335C94.5594 138.877 96.9954 140.314 100.929 140.623L101.086 138.619C97.6599 138.35 95.5694 137.133 93.4291 135.674C91.2737 134.206 88.9885 132.42 85.3669 131.385L84.8149 133.317ZM100.929 140.623C103.917 140.857 106.271 140.291 108.284 139.254C110.269 138.232 111.881 136.771 113.399 135.31C116.473 132.353 119.25 129.342 124.375 128.45L124.03 126.47C118.196 127.486 114.985 130.996 112.006 133.862C110.497 135.313 109.066 136.59 107.363 137.468C105.687 138.331 103.707 138.825 101.086 138.619L100.929 140.623ZM124.375 128.45C127.649 127.88 130.287 127.974 133.012 128.17C135.735 128.365 138.594 128.668 142.159 128.463L142.044 126.457C138.642 126.652 135.945 126.365 133.156 126.165C130.371 125.965 127.543 125.859 124.03 126.47L124.375 128.45ZM142.159 128.463C160.532 127.408 172.271 126.11 187.599 118.65L186.72 116.843C171.762 124.123 160.351 125.405 142.044 126.457L142.159 128.463ZM187.599 118.65C200.286 112.475 210.326 99.2209 215.779 90.7681L214.09 89.6787C208.666 98.0878 198.877 110.926 186.72 116.843L187.599 118.65Z" fill="#241E46"/>
<path fill-rule="evenodd" clip-rule="evenodd" d="M49.749 203.67C51.682 203.67 53.249 202.103 53.249 200.17C53.249 198.237 51.682 196.67 49.749 196.67C47.816 196.67 46.249 198.237 46.249 200.17C46.249 202.103 47.816 203.67 49.749 203.67Z" fill="#9D97BF"/>
<path d="M95.3455 198.484C96.7248 198.484 97.8429 199.296 97.8429 200.298C97.8429 201.254 96.8241 202.038 95.5319 202.107L95.3455 202.112H68.0741C66.6948 202.112 65.5767 201.3 65.5767 200.298C65.5767 199.342 66.5954 198.558 67.8877 198.489L68.0741 198.484H95.3455Z" fill="#9D97BF"/>
<path d="M95.345 210.81C96.2646 210.81 97.01 211.351 97.01 212.019C97.01 212.645 96.3548 213.16 95.5153 213.222L95.345 213.229H68.0736C67.1541 213.229 66.4087 212.687 66.4087 212.019C66.4087 211.393 67.0638 210.878 67.9034 210.816L68.0736 210.81H95.345Z" fill="#D7D1F9"/>
<path fill-rule="evenodd" clip-rule="evenodd" d="M149.749 203.67C151.682 203.67 153.249 202.103 153.249 200.17C153.249 198.237 151.682 196.67 149.749 196.67C147.816 196.67 146.249 198.237 146.249 200.17C146.249 202.103 147.816 203.67 149.749 203.67Z" fill="#9D97BF"/>
<path d="M195.345 198.484C196.725 198.484 197.843 199.296 197.843 200.298C197.843 201.254 196.824 202.038 195.532 202.107L195.345 202.112H168.074C166.695 202.112 165.577 201.3 165.577 200.298C165.577 199.342 166.595 198.558 167.888 198.489L168.074 198.484H195.345Z" fill="#9D97BF"/>
<path d="M195.345 210.81C196.265 210.81 197.01 211.351 197.01 212.019C197.01 212.645 196.355 213.16 195.515 213.222L195.345 213.229H168.074C167.154 213.229 166.409 212.687 166.409 212.019C166.409 211.393 167.064 210.878 167.903 210.816L168.074 210.81H195.345Z" fill="#D7D1F9"/>
<path fill-rule="evenodd" clip-rule="evenodd" d="M212.455 24.6857C215.214 24.6857 217.45 23.0615 217.45 21.0578C217.45 19.0542 215.214 17.4299 212.455 17.4299C209.697 17.4299 207.46 19.0542 207.46 21.0578C207.46 23.0615 209.697 24.6857 212.455 24.6857Z" fill="#716B95"/>
<path d="M11 177.819H240.761" stroke="#D2E0FF" stroke-width="1.00482"/>
<path d="M11 37.6911H240.761" stroke="#EEEBFF" stroke-width="1.00482"/>
<path d="M107.433 16.593C109.909 16.593 111.916 18.0506 111.916 19.8488C111.916 21.5869 110.041 23.007 107.679 23.0997L107.433 23.1046H36.8736C34.398 23.1046 32.3911 21.6469 32.3911 19.8488C32.3911 18.1106 34.2664 16.6905 36.6277 16.5978L36.8736 16.593H107.433Z" fill="#D7D1F9"/>
<path fill-rule="evenodd" clip-rule="evenodd" d="M271.277 185.891C271.277 182.514 274.014 179.778 277.39 179.778H381.19C384.566 179.778 387.303 182.515 387.303 185.891V239.871C387.303 243.247 384.566 245.984 381.19 245.984H277.39C274.014 245.984 271.277 243.247 271.277 239.871V185.891Z" fill="#D7D1F9"/>
<path d="M268.306 182.613C268.306 179.406 270.906 176.806 274.113 176.806H377.912C381.12 176.806 383.72 179.406 383.72 182.613V236.593C383.72 239.801 381.12 242.401 377.912 242.401H274.113C270.906 242.401 268.306 239.801 268.306 236.593V182.613Z" fill="white" stroke="#EEEBFF" stroke-width="0.611307"/>
<path fill-rule="evenodd" clip-rule="evenodd" d="M352.894 229.596C362.849 229.596 370.92 221.526 370.92 211.57C370.92 201.614 362.849 193.543 352.894 193.543C342.938 193.543 334.867 201.614 334.867 211.57C334.867 221.526 342.938 229.596 352.894 229.596Z" fill="#EEEBFF"/>
<path d="M369.149 210.259C369.149 219.961 361.284 227.827 351.581 227.827C341.879 227.827 334.013 219.961 334.013 210.259C334.013 200.556 341.879 192.691 351.581 192.691C361.284 192.691 369.149 200.556 369.149 210.259Z" fill="white" stroke="#EEEBFF" stroke-width="0.916961"/>
<path d="M351.903 218.146V216.533C352.911 216.428 353.698 216.086 354.262 215.507C354.826 214.928 355.108 214.173 355.108 213.241C355.108 212.745 355.035 212.312 354.888 211.942C354.74 211.573 354.53 211.246 354.258 210.962C353.985 210.678 353.65 210.426 353.252 210.205C352.854 209.985 352.306 209.745 351.609 209.486C350.911 209.226 350.416 208.952 350.125 208.663C349.833 208.373 349.687 207.989 349.687 207.509C349.687 206.974 349.834 206.563 350.129 206.276C350.423 205.99 350.832 205.846 351.355 205.846C351.884 205.846 352.302 206.046 352.61 206.446C352.918 206.846 353.072 207.393 353.072 208.088H355.051C355.051 207.007 354.792 206.129 354.274 205.453C353.756 204.778 353.023 204.371 352.075 204.233V202.414H350.766V204.217C349.823 204.327 349.077 204.677 348.526 205.267C347.975 205.857 347.7 206.61 347.7 207.525C347.7 208.876 348.335 209.896 349.605 210.586C349.987 210.795 350.521 211.023 351.208 211.268C351.895 211.514 352.385 211.789 352.68 212.095C352.974 212.401 353.121 212.789 353.121 213.257C353.121 213.759 352.959 214.162 352.635 214.465C352.31 214.768 351.838 214.92 351.216 214.92C350.584 214.92 350.095 214.73 349.748 214.349C349.402 213.969 349.229 213.431 349.229 212.736H347.242C347.242 213.828 347.532 214.705 348.113 215.367C348.694 216.028 349.524 216.42 350.603 216.541V218.146H351.903Z" fill="#26B640"/>
<path d="M304.383 217.336C305.198 217.336 305.858 217.996 305.858 218.811C305.858 219.591 305.252 220.23 304.484 220.282L304.383 220.285H286.838C286.024 220.285 285.363 219.625 285.363 218.811C285.363 218.03 285.97 217.391 286.737 217.339L286.838 217.336H304.383Z" fill="#87DB96"/>
<path d="M310.939 208.158C311.753 208.158 312.413 208.819 312.413 209.633C312.413 210.414 311.807 211.053 311.04 211.105L310.939 211.108H286.838C286.024 211.108 285.363 210.448 285.363 209.633C285.363 208.853 285.97 208.214 286.737 208.162L286.838 208.158H310.939Z" fill="#26B640"/>
<path d="M317.494 198.981C318.308 198.981 318.969 199.642 318.969 200.456C318.969 201.237 318.362 201.876 317.595 201.928L317.494 201.931H286.838C286.024 201.931 285.363 201.271 285.363 200.456C285.363 199.676 285.97 199.037 286.737 198.985L286.838 198.981H317.494Z" fill="#9D97BF"/>
<path d="M403.607 259.5H0.392839C0.341251 259.5 0.290168 259.488 0.242506 259.465C0.194845 259.441 0.151538 259.407 0.11506 259.364C0.0785814 259.321 0.0496452 259.269 0.0299032 259.213C0.0101612 259.156 0 259.096 0 259.035C-1.2061e-06 258.911 0.0413265 258.793 0.114944 258.705C0.188562 258.618 0.288478 258.568 0.392839 258.567H403.607C403.712 258.568 403.811 258.618 403.885 258.705C403.959 258.793 404 258.911 404 259.035C404 259.158 403.959 259.277 403.885 259.364C403.811 259.451 403.711 259.5 403.607 259.5Z" fill="#E85912"/>
<path fill-rule="evenodd" clip-rule="evenodd" d="M203.277 116.391C203.277 113.014 206.014 110.278 209.39 110.278H313.19C316.566 110.278 319.303 113.015 319.303 116.391V170.371C319.303 173.747 316.566 176.484 313.19 176.484H209.39C206.014 176.484 203.277 173.747 203.277 170.371V116.391Z" fill="#D7D1F9"/>
<path d="M200.306 113.113C200.306 109.906 202.906 107.306 206.113 107.306H309.912C313.12 107.306 315.72 109.906 315.72 113.113V167.093C315.72 170.301 313.12 172.901 309.912 172.901H206.113C202.906 172.901 200.306 170.301 200.306 167.093V113.113Z" fill="white" stroke="#EEEBFF" stroke-width="0.611307"/>
<path fill-rule="evenodd" clip-rule="evenodd" d="M284.89 160.097C294.846 160.097 302.916 152.026 302.916 142.07C302.916 132.114 294.846 124.043 284.89 124.043C274.934 124.043 266.863 132.114 266.863 142.07C266.863 152.026 274.934 160.097 284.89 160.097Z" fill="#EEEBFF"/>
<path d="M301.145 140.759C301.145 150.462 293.28 158.327 283.577 158.327C273.875 158.327 266.009 150.462 266.009 140.759C266.009 131.056 273.875 123.191 283.577 123.191C293.28 123.191 301.145 131.056 301.145 140.759Z" fill="white" stroke="#EEEBFF" stroke-width="0.916961"/>
<path d="M278.246 138.801C278.072 138.192 278.529 137.585 279.163 137.585H288.905C289.539 137.585 289.996 138.192 289.822 138.801L288.322 144.052C288.205 144.461 287.831 144.743 287.405 144.743H280.663C280.237 144.743 279.863 144.461 279.746 144.052L278.246 138.801Z" fill="#E85912"/>
<path d="M277.06 135.876C277.821 135.876 278.496 136.353 278.753 137.061L278.791 137.174L279.604 139.966C279.68 140.226 279.531 140.499 279.27 140.575C279.031 140.645 278.782 140.525 278.683 140.304L278.66 140.241L277.847 137.449C277.753 137.127 277.472 136.897 277.143 136.863L277.06 136.859H275.085C274.814 136.859 274.594 136.639 274.594 136.368C274.594 136.119 274.779 135.913 275.019 135.88L275.085 135.876H277.06Z" fill="#E85912"/>
<path d="M280.96 147.811C281.525 147.811 281.983 147.353 281.983 146.789C281.983 146.224 281.525 145.766 280.96 145.766C280.395 145.766 279.938 146.224 279.938 146.789C279.938 147.353 280.395 147.811 280.96 147.811Z" fill="#E85912"/>
<path d="M287.101 147.811C287.665 147.811 288.123 147.353 288.123 146.789C288.123 146.224 287.665 145.766 287.101 145.766C286.536 145.766 286.078 146.224 286.078 146.789C286.078 147.353 286.536 147.811 287.101 147.811Z" fill="#E85912"/>
<path d="M236.383 147.836C237.198 147.836 237.858 148.496 237.858 149.311C237.858 150.091 237.252 150.73 236.484 150.782L236.383 150.785H218.838C218.024 150.785 217.363 150.125 217.363 149.311C217.363 148.53 217.97 147.891 218.737 147.839L218.838 147.836H236.383Z" fill="#F5B899"/>
<path d="M242.939 138.658C243.753 138.658 244.413 139.319 244.413 140.133C244.413 140.914 243.807 141.553 243.04 141.605L242.939 141.608H218.838C218.024 141.608 217.363 140.948 217.363 140.133C217.363 139.353 217.97 138.714 218.737 138.662L218.838 138.658H242.939Z" fill="#E85912"/>
<path d="M249.494 129.481C250.308 129.481 250.969 130.142 250.969 130.956C250.969 131.737 250.362 132.376 249.595 132.428L249.494 132.431H218.838C218.024 132.431 217.363 131.771 217.363 130.956C217.363 130.176 217.97 129.537 218.737 129.485L218.838 129.481H249.494Z" fill="#9D97BF"/>
<path fill-rule="evenodd" clip-rule="evenodd" d="M296.848 12.0912H387.464C391.313 12.0912 394.434 15.3474 394.434 19.364V127.73C394.434 131.746 391.313 135.002 387.464 135.002H296.848C292.998 135.002 289.877 131.746 289.877 127.73V19.364C289.877 15.3474 292.998 12.0912 296.848 12.0912Z" fill="#D7D1F9"/>
<path d="M291.97 7.36364H382.586C386.22 7.36364 389.193 10.4423 389.193 14.2729V122.638C389.193 126.469 386.22 129.548 382.586 129.548H291.97C288.336 129.548 285.364 126.469 285.364 122.638V14.2729C285.364 10.4423 288.336 7.36364 291.97 7.36364Z" fill="white" stroke="#EEEBFF" stroke-width="0.727273"/>
<path d="M311.488 107.365C313.028 107.365 314.276 106.063 314.276 104.456C314.276 102.85 313.028 101.547 311.488 101.547C309.948 101.547 308.7 102.85 308.7 104.456C308.7 106.063 309.948 107.365 311.488 107.365Z" fill="#E85912"/>
<path d="M360.71 103.184C361.383 103.184 361.93 103.753 361.93 104.456C361.93 105.124 361.437 105.672 360.81 105.725L360.71 105.729H322.332C321.658 105.729 321.112 105.159 321.112 104.456C321.112 103.789 321.605 103.241 322.232 103.188L322.332 103.184H360.71Z" fill="#E85912"/>
<path d="M339.799 110.457C340.472 110.457 341.018 111.026 341.018 111.729C341.018 112.397 340.525 112.945 339.899 112.998L339.799 113.002H322.332C321.658 113.002 321.112 112.432 321.112 111.729C321.112 111.061 321.605 110.514 322.232 110.461L322.332 110.457H339.799Z" fill="#F5B899"/>
<path fill-rule="evenodd" clip-rule="evenodd" d="M337.273 92.8196C351.517 92.8196 363.064 80.7717 363.064 65.91C363.064 51.0483 351.517 39.0004 337.273 39.0004C323.029 39.0004 311.482 51.0483 311.482 65.91C311.482 80.7717 323.029 92.8196 337.273 92.8196ZM337.273 88.4557C325.34 88.4557 315.665 78.3615 315.665 65.9098C315.665 53.4581 325.34 43.3639 337.273 43.3639C349.207 43.3639 358.882 53.4581 358.882 65.9098C358.882 78.3615 349.207 88.4557 337.273 88.4557Z" fill="#EEEBFF"/>
<mask id="mask0_7258_6267" style="mask-type:luminance" maskUnits="userSpaceOnUse" x="311" y="39" width="53" height="54">
<path fill-rule="evenodd" clip-rule="evenodd" d="M337.273 92.8196C351.517 92.8196 363.064 80.7717 363.064 65.91C363.064 51.0483 351.517 39.0004 337.273 39.0004C323.029 39.0004 311.482 51.0483 311.482 65.91C311.482 80.7717 323.029 92.8196 337.273 92.8196ZM337.273 88.4557C325.34 88.4557 315.665 78.3615 315.665 65.9098C315.665 53.4581 325.34 43.3639 337.273 43.3639C349.207 43.3639 358.882 53.4581 358.882 65.9098C358.882 78.3615 349.207 88.4557 337.273 88.4557Z" fill="white"/>
</mask>
<g mask="url(#mask0_7258_6267)">
<path d="M337.624 33.1168L337.066 68.4556L365.157 80.4558L345.468 98.6116L306.458 93.3651V46.8401L337.624 33.1168Z" fill="#E85912"/>
</g>
<path d="M359.587 79.0013C361.897 79.0013 363.769 77.0476 363.769 74.6376C363.769 72.2276 361.897 70.2739 359.587 70.2739C357.277 70.2739 355.405 72.2276 355.405 74.6376C355.405 77.0476 357.277 79.0013 359.587 79.0013Z" fill="#E85912"/>
<path d="M359.584 76.8195C360.739 76.8195 361.675 75.8426 361.675 74.6376C361.675 73.4326 360.739 72.4557 359.584 72.4557C358.429 72.4557 357.493 73.4326 357.493 74.6376C357.493 75.8426 358.429 76.8195 359.584 76.8195Z" fill="white"/>
<path fill-rule="evenodd" clip-rule="evenodd" d="M379.444 20.0909C380.406 20.0909 381.186 19.2769 381.186 18.2727C381.186 17.2685 380.406 16.4545 379.444 16.4545C378.481 16.4545 377.701 17.2685 377.701 18.2727C377.701 19.2769 378.481 20.0909 379.444 20.0909Z" fill="#716B95"/>
<path fill-rule="evenodd" clip-rule="evenodd" d="M373.169 20.0909C374.132 20.0909 374.912 19.2769 374.912 18.2727C374.912 17.2685 374.132 16.4545 373.169 16.4545C372.207 16.4545 371.427 17.2685 371.427 18.2727C371.427 19.2769 372.207 20.0909 373.169 20.0909Z" fill="#716B95"/>
<path fill-rule="evenodd" clip-rule="evenodd" d="M366.899 20.0909C367.861 20.0909 368.641 19.2769 368.641 18.2727C368.641 17.2685 367.861 16.4545 366.899 16.4545C365.936 16.4545 365.156 17.2685 365.156 18.2727C365.156 19.2769 365.936 20.0909 366.899 20.0909Z" fill="#716B95"/>
<path d="M324.449 15.7275C325.797 15.7275 326.889 16.8671 326.889 18.273C326.889 19.632 325.868 20.7422 324.583 20.8147L324.449 20.8185H297.896C296.549 20.8185 295.457 19.6788 295.457 18.273C295.457 16.914 296.477 15.8038 297.762 15.7312L297.896 15.7275H324.449Z" fill="#D7D1F9"/>
<path d="M285 27.7275H389.138" stroke="#EEEBFF" stroke-width="0.945454"/>
</svg>
