<svg width="575" height="340" viewBox="0 0 575 340" fill="none" xmlns="http://www.w3.org/2000/svg">
    <g clip-path="url(#clip0_86_27559)">
        <path fill-rule="evenodd" clip-rule="evenodd" d="M14.3359 221.43C14.3359 217.716 17.3467 214.705 21.0608 214.705H135.247C138.961 214.705 141.972 217.716 141.972 221.43V280.812C141.972 284.526 138.961 287.537 135.247 287.537H21.0608C17.3467 287.537 14.3359 284.526 14.3359 280.812V221.43Z" fill="#D7D1F9"/>
        <path d="M11.0657 217.825C11.0657 214.296 13.926 211.436 17.4543 211.436H131.641C135.169 211.436 138.029 214.296 138.029 217.825V277.207C138.029 280.735 135.169 283.596 131.641 283.596H17.4543C13.926 283.596 11.0657 280.735 11.0657 277.207V217.825Z" fill="white" stroke="#EEEBFF" stroke-width="0.672482"/>
        <path fill-rule="evenodd" clip-rule="evenodd" d="M104.121 269.51C115.073 269.51 123.951 260.631 123.951 249.679C123.951 238.727 115.073 229.849 104.121 229.849C93.1684 229.849 84.29 238.727 84.29 249.679C84.29 260.631 93.1684 269.51 104.121 269.51Z" fill="#D7D1F9"/>
        <path d="M122.002 248.237C122.002 258.91 113.35 267.563 102.676 267.563C92.0027 267.563 83.3501 258.91 83.3501 248.237C83.3501 237.563 92.0027 228.911 102.676 228.911C113.35 228.911 122.002 237.563 122.002 248.237Z" fill="white" stroke="#EEEBFF" stroke-width="1.00872"/>
        <path fill-rule="evenodd" clip-rule="evenodd" d="M96.0141 249.246C95.8611 248.809 96.1856 248.351 96.6488 248.351H108.253C108.716 248.351 109.04 248.809 108.887 249.246L107.196 254.081C107.049 254.502 106.652 254.784 106.206 254.784H98.6955C98.2496 254.784 97.8524 254.502 97.7052 254.081L96.0141 249.246Z" fill="#FDB736"/>
        <path fill-rule="evenodd" clip-rule="evenodd" d="M96.1846 247.156L101.82 240.545C102.089 240.23 102.575 240.23 102.844 240.545L108.48 247.156H96.1846Z" stroke="#FDB736" stroke-width="0.806979"/>
        <path fill-rule="evenodd" clip-rule="evenodd" d="M94.3809 247.156C94.3809 246.757 94.7037 246.435 95.102 246.435H109.524C109.922 246.435 110.245 246.757 110.245 247.156C110.245 247.554 109.922 247.877 109.524 247.877H95.102C94.7037 247.877 94.3809 247.554 94.3809 247.156Z" fill="#FDB736"/>
        <path fill-rule="evenodd" clip-rule="evenodd" d="M50.7508 256.022C51.6468 256.022 52.3732 256.749 52.3732 257.645C52.3732 258.504 51.7061 259.207 50.8618 259.264L50.7508 259.267H31.4496C30.5536 259.267 29.8271 258.541 29.8271 257.645C29.8271 256.786 30.4943 256.083 31.3386 256.026L31.4496 256.022H50.7508Z" fill="#FED486"/>
        <path fill-rule="evenodd" clip-rule="evenodd" d="M57.9618 245.927C58.8579 245.927 59.5843 246.653 59.5843 247.549C59.5843 248.408 58.9172 249.111 58.0729 249.168L57.9618 249.172H31.4496C30.5536 249.172 29.8271 248.445 29.8271 247.549C29.8271 246.69 30.4943 245.987 31.3386 245.93L31.4496 245.927H57.9618Z" fill="#FDB736"/>
        <path d="M65.1729 235.831C66.069 235.831 66.7954 236.557 66.7954 237.453C66.7954 238.312 66.1283 239.015 65.284 239.072L65.1729 239.076H31.4496C30.5536 239.076 29.8271 238.349 29.8271 237.453C29.8271 236.595 30.4943 235.892 31.3386 235.835L31.4496 235.831H65.1729Z" fill="#9D97BF"/>
        <path fill-rule="evenodd" clip-rule="evenodd" d="M23.6182 126.371C23.6182 122.085 27.0926 118.611 31.3786 118.611H163.149C167.435 118.611 170.909 122.085 170.909 126.371V194.898C170.909 199.184 167.435 202.658 163.149 202.658H31.3786C27.0926 202.658 23.6182 199.184 23.6182 194.898V126.371Z" fill="#D7D1F9"/>
        <path d="M19.846 122.21C19.846 118.139 23.1467 114.838 27.2184 114.838H158.989C163.06 114.838 166.361 118.139 166.361 122.21V190.737C166.361 194.809 163.06 198.109 158.989 198.109H27.2184C23.1468 198.109 19.846 194.809 19.846 190.737V122.21Z" fill="white" stroke="#EEEBFF" stroke-width="0.776039"/>
        <path fill-rule="evenodd" clip-rule="evenodd" d="M127.228 181.854C139.867 181.854 150.112 171.608 150.112 158.97C150.112 146.331 139.867 136.086 127.228 136.086C114.589 136.086 104.344 146.331 104.344 158.97C104.344 171.608 114.589 181.854 127.228 181.854Z" fill="#EEEBFF"/>
        <path d="M147.864 157.306C147.864 169.623 137.879 179.608 125.562 179.608C113.245 179.608 103.26 169.623 103.26 157.306C103.26 144.988 113.245 135.003 125.562 135.003C137.879 135.003 147.864 144.988 147.864 157.306Z" fill="white" stroke="#EEEBFF" stroke-width="1.16406"/>
        <path d="M125.97 167.318V165.271C127.251 165.138 128.249 164.704 128.965 163.968C129.681 163.233 130.04 162.274 130.04 161.091C130.04 160.461 129.946 159.912 129.759 159.443C129.572 158.974 129.306 158.559 128.96 158.199C128.614 157.838 128.188 157.518 127.683 157.238C127.178 156.958 126.483 156.653 125.597 156.324C124.711 155.995 124.083 155.647 123.713 155.279C123.343 154.912 123.157 154.424 123.157 153.815C123.157 153.136 123.344 152.614 123.718 152.25C124.092 151.886 124.611 151.704 125.275 151.704C125.946 151.704 126.477 151.958 126.868 152.465C127.259 152.973 127.455 153.668 127.455 154.55H129.967C129.967 153.178 129.638 152.063 128.981 151.205C128.323 150.348 127.393 149.832 126.188 149.657V147.346H124.528V149.636C123.33 149.776 122.382 150.22 121.683 150.969C120.984 151.718 120.635 152.674 120.635 153.836C120.635 155.551 121.441 156.846 123.054 157.721C123.538 157.987 124.216 158.276 125.088 158.587C125.96 158.899 126.583 159.249 126.957 159.637C127.33 160.026 127.517 160.517 127.517 161.112C127.517 161.749 127.311 162.26 126.9 162.645C126.488 163.03 125.887 163.223 125.099 163.223C124.296 163.223 123.675 162.981 123.235 162.498C122.796 162.015 122.576 161.333 122.576 160.451H120.054C120.054 161.837 120.422 162.95 121.159 163.79C121.896 164.63 122.95 165.127 124.32 165.281V167.318H125.97Z" fill="#26B640"/>
        <path d="M65.6456 166.29C66.6797 166.29 67.518 167.128 67.518 168.162C67.518 169.153 66.7481 169.964 65.7738 170.03L65.6456 170.034H43.3723C42.3383 170.034 41.5 169.196 41.5 168.162C41.5 167.171 42.2699 166.36 43.2442 166.294L43.3723 166.29H65.6456Z" fill="#87DB96"/>
        <path d="M73.9672 154.639C75.0012 154.639 75.8395 155.478 75.8395 156.512C75.8395 157.503 75.0696 158.314 74.0954 158.38L73.9672 158.384H43.3723C42.3383 158.384 41.5 157.546 41.5 156.512C41.5 155.521 42.2699 154.71 43.2442 154.644L43.3723 154.639H73.9672Z" fill="#26B640"/>
        <path d="M82.2887 142.989C83.3228 142.989 84.161 143.828 84.161 144.862C84.161 145.853 83.3912 146.664 82.4169 146.73L82.2887 146.734H43.3723C42.3383 146.734 41.5 145.896 41.5 144.862C41.5 143.871 42.2699 143.06 43.2442 142.994L43.3723 142.989H82.2887Z" fill="#9D97BF"/>
        <path fill-rule="evenodd" clip-rule="evenodd" d="M197.78 16.7219C197.78 11.3028 202.173 6.90967 207.593 6.90967H377.184C382.603 6.90967 386.996 11.3028 386.996 16.7219V263.906C386.996 269.325 382.603 273.718 377.184 273.718H207.593C202.173 273.718 197.78 269.325 197.78 263.906V16.7219Z" fill="#D7D1F9"/>
        <path d="M192.826 9.91553C192.826 4.76733 196.999 0.593884 202.147 0.593884H371.739C376.887 0.593884 381.06 4.76732 381.06 9.91552V257.099C381.06 262.248 376.887 266.421 371.739 266.421H202.147C196.999 266.421 192.826 262.248 192.826 257.099V9.91553Z" fill="white" stroke="#EEEBFF" stroke-width="0.981224"/>
        <path opacity="0.317987" fill-rule="evenodd" clip-rule="evenodd" d="M215.116 147.997C215.116 147.997 222.46 120.2 247.488 127.051C254.351 128.929 255.016 135.826 262.087 135.937C273.96 136.124 270.548 113.917 282.398 113.086C291.706 112.434 294.024 124.791 303.345 125.146C315.21 125.599 324.194 108.782 324.883 107.456C324.915 107.395 324.944 107.344 324.98 107.285L351.301 64.3119C352.646 62.1159 356.028 63.0692 356.028 65.6445V200.68H213.212L215.116 147.997Z" fill="#FDEEE7"/>
        <path d="M213.874 148.34C213.713 149.026 214.139 149.713 214.825 149.874C215.511 150.034 216.197 149.609 216.358 148.923L213.874 148.34ZM246.448 126.921L246.092 128.146L246.448 126.921ZM261.938 136.152L261.985 134.877L261.938 136.152ZM281.486 112.732L281.562 114.005L281.486 112.732ZM301.524 125.156L301.464 126.431L301.524 125.156ZM356.028 55.9601L343.209 63.2156L355.902 70.6888L356.028 55.9601ZM326.408 106.26L325.348 105.55L326.408 106.26ZM326.476 106.151L325.377 105.503L326.476 106.151ZM215.116 148.632C216.358 148.923 216.358 148.924 216.358 148.924C216.358 148.924 216.358 148.924 216.358 148.924C216.358 148.924 216.358 148.923 216.358 148.922C216.359 148.92 216.36 148.916 216.361 148.911C216.364 148.9 216.368 148.882 216.374 148.858C216.386 148.809 216.405 148.735 216.431 148.636C216.483 148.439 216.564 148.146 216.677 147.773C216.901 147.026 217.251 145.96 217.746 144.701C218.738 142.174 220.302 138.903 222.592 135.864C224.882 132.825 227.863 130.064 231.682 128.476C235.479 126.897 240.207 126.433 246.092 128.146L246.805 125.696C240.411 123.836 235.082 124.299 230.702 126.12C226.345 127.933 223.028 131.046 220.554 134.329C218.081 137.611 216.416 141.107 215.371 143.768C214.847 145.102 214.475 146.235 214.234 147.038C214.113 147.44 214.024 147.76 213.965 147.982C213.936 148.093 213.914 148.18 213.899 148.24C213.891 148.271 213.885 148.294 213.881 148.311C213.879 148.319 213.878 148.326 213.877 148.331C213.876 148.333 213.876 148.335 213.875 148.337C213.875 148.338 213.875 148.338 213.875 148.339C213.875 148.34 213.874 148.34 215.116 148.632ZM246.092 128.146C249.093 129.019 250.989 131.002 253.225 133.102C255.413 135.157 257.907 137.279 261.891 137.426L261.985 134.877C259.002 134.766 257.108 133.249 254.972 131.242C252.883 129.28 250.517 126.777 246.805 125.696L246.092 128.146ZM261.891 137.426C265.339 137.555 267.663 135.883 269.315 133.499C270.907 131.202 271.95 128.14 272.924 125.275C273.93 122.317 274.87 119.54 276.234 117.439C277.556 115.403 279.179 114.147 281.562 114.005L281.41 111.458C277.98 111.663 275.709 113.563 274.094 116.05C272.521 118.473 271.483 121.589 270.509 124.454C269.504 127.41 268.566 130.1 267.218 132.046C265.93 133.904 264.355 134.965 261.985 134.877L261.891 137.426ZM281.562 114.005C285.406 113.775 287.75 116.234 290.543 119.422C293.196 122.448 296.281 126.188 301.464 126.431L301.584 123.882C297.666 123.699 295.28 120.956 292.462 117.74C289.785 114.685 286.661 111.145 281.41 111.458L281.562 114.005ZM301.464 126.431C304.723 126.583 307.941 125.418 310.88 123.69C313.827 121.957 316.588 119.603 318.966 117.233C323.721 112.494 327.077 107.553 327.468 106.97L325.348 105.55C324.994 106.079 321.746 110.86 317.165 115.427C314.874 117.71 312.284 119.906 309.587 121.491C306.882 123.081 304.164 124.003 301.584 123.882L301.464 126.431ZM327.575 106.798L351.302 66.5002L349.104 65.2058L325.377 105.503L327.575 106.798ZM327.468 106.97C327.508 106.91 327.543 106.853 327.575 106.798L325.377 105.503C325.365 105.523 325.356 105.537 325.348 105.55L327.468 106.97Z" fill="#E85912"/>
        <path opacity="0.261579" fill-rule="evenodd" clip-rule="evenodd" d="M226.542 151.805C226.542 151.805 233.808 141.57 253.201 149.266C258.784 151.482 261.238 156.912 267.165 157.518C276.263 158.448 276.045 145.813 284.938 143.554C290.715 142.086 298.695 144.049 304.615 143.554C319.61 142.3 323.657 141.015 337.621 132.129C345.617 127.04 351.75 118.008 355.911 110.165C357.274 107.596 362.376 108.623 362.376 111.531V200.68H224.638L226.542 151.805Z" fill="#EDF1FF"/>
        <path d="M225.522 151.049C225.099 151.613 225.212 152.412 225.775 152.836C226.339 153.259 227.138 153.146 227.562 152.583L225.522 151.049ZM253.206 149.239L253.672 148.052L253.206 149.239ZM266.282 157.462L266.419 156.194L266.282 157.462ZM285.338 143.707L285.04 142.467L285.338 143.707ZM300.043 143.707L300.143 144.979L300.043 143.707ZM337.06 132.72L336.35 131.66L337.06 132.72ZM363.645 92.7749L351.801 101.531L365.306 107.41L363.645 92.7749ZM226.542 151.816C227.562 152.583 227.561 152.583 227.56 152.584C227.56 152.584 227.56 152.585 227.56 152.585C227.559 152.586 227.559 152.587 227.558 152.587C227.558 152.588 227.557 152.588 227.558 152.588C227.558 152.587 227.56 152.584 227.564 152.579C227.572 152.569 227.588 152.55 227.611 152.523C227.656 152.468 227.731 152.382 227.836 152.27C228.046 152.045 228.376 151.719 228.834 151.344C229.748 150.593 231.17 149.645 233.16 148.909C237.11 147.449 243.45 146.773 252.739 150.426L253.672 148.052C243.878 144.2 236.886 144.812 232.275 146.517C229.984 147.363 228.318 148.467 227.215 149.372C226.664 149.824 226.253 150.228 225.974 150.525C225.835 150.674 225.728 150.797 225.653 150.887C225.616 150.931 225.586 150.968 225.564 150.995C225.553 151.009 225.545 151.021 225.538 151.03C225.534 151.034 225.531 151.038 225.529 151.041C225.527 151.043 225.526 151.045 225.525 151.046C225.525 151.047 225.524 151.047 225.524 151.048C225.523 151.049 225.522 151.049 226.542 151.816ZM252.739 150.426C255.278 151.425 256.837 153.102 258.718 154.867C260.577 156.612 262.694 158.357 266.145 158.73L266.419 156.194C263.823 155.913 262.221 154.656 260.464 153.007C258.728 151.379 256.772 149.272 253.672 148.052L252.739 150.426ZM266.145 158.73C271.527 159.312 274.44 155.805 276.908 152.536C279.491 149.114 281.672 145.897 285.635 144.948L285.04 142.467C280 143.674 277.261 147.833 274.872 150.999C272.367 154.317 270.253 156.608 266.419 156.194L266.145 158.73ZM285.635 144.948C288.218 144.328 290.298 144.427 292.509 144.645C294.715 144.863 297.139 145.216 300.143 144.979L299.942 142.435C297.222 142.651 295.081 142.336 292.76 142.106C290.443 141.878 288.032 141.75 285.04 142.467L285.635 144.948ZM300.143 144.979C315.282 143.781 325.056 142.3 337.77 133.779L336.35 131.66C324.183 139.814 314.937 141.249 299.942 142.435L300.143 144.979ZM337.77 133.779C342.765 130.432 347.221 125.31 350.986 119.891C354.76 114.458 357.89 108.651 360.21 103.859L357.914 102.747C355.628 107.467 352.563 113.148 348.89 118.435C345.208 123.736 340.967 128.566 336.35 131.66L337.77 133.779Z" fill="#241E46"/>
        <path fill-rule="evenodd" clip-rule="evenodd" d="M225.487 230.197C227.754 230.197 229.591 228.36 229.591 226.093C229.591 223.827 227.754 221.99 225.487 221.99C223.221 221.99 221.384 223.827 221.384 226.093C221.384 228.36 223.221 230.197 225.487 230.197Z" fill="#9D97BF"/>
        <path d="M260.069 224.041C261.126 224.041 261.983 224.898 261.983 225.955C261.983 226.963 261.202 227.79 260.212 227.863L260.069 227.868H239.175C238.118 227.868 237.262 227.012 237.262 225.955C237.262 224.946 238.042 224.12 239.032 224.047L239.175 224.041H260.069Z" fill="#9D97BF"/>
        <path d="M259.431 236.754C260.136 236.754 260.707 237.325 260.707 238.03C260.707 238.69 260.205 239.234 259.562 239.299L259.431 239.306H238.537C237.833 239.306 237.262 238.734 237.262 238.03C237.262 237.37 237.764 236.826 238.407 236.761L238.537 236.754H259.431Z" fill="#D7D1F9"/>
        <path fill-rule="evenodd" clip-rule="evenodd" d="M307.552 230.197C309.818 230.197 311.655 228.36 311.655 226.093C311.655 223.827 309.818 221.99 307.552 221.99C305.285 221.99 303.448 223.827 303.448 226.093C303.448 228.36 305.285 230.197 307.552 230.197Z" fill="#9D97BF"/>
        <path d="M343.783 224.041C344.916 224.041 345.834 224.96 345.834 226.093C345.834 227.175 344.997 228.061 343.936 228.139L343.783 228.145H321.378C320.245 228.145 319.326 227.226 319.326 226.093C319.326 225.011 320.163 224.125 321.225 224.047L321.378 224.041H343.783Z" fill="#9D97BF"/>
        <path d="M343.783 237.983C344.539 237.983 345.151 238.596 345.151 239.351C345.151 240.059 344.613 240.642 343.923 240.712L343.783 240.719H321.379C320.623 240.719 320.011 240.107 320.011 239.351C320.011 238.643 320.549 238.06 321.239 237.99L321.379 237.983H343.783Z" fill="#D7D1F9"/>
        <path fill-rule="evenodd" clip-rule="evenodd" d="M357.841 27.4595C360.107 27.4595 361.944 25.6223 361.944 23.356C361.944 21.0898 360.107 19.2526 357.841 19.2526C355.574 19.2526 353.737 21.0898 353.737 23.356C353.737 25.6223 355.574 27.4595 357.841 27.4595Z" fill="#716B95"/>
        <path d="M192.335 200.667H381.095" stroke="#D2E0FF" stroke-width="1.27559"/>
        <path d="M192.335 42.1698H381.095" stroke="#EEEBFF" stroke-width="1.27559"/>
        <path d="M271.56 18.3059C273.594 18.3059 275.243 19.9547 275.243 21.9885C275.243 23.9546 273.702 25.5608 271.762 25.6657L271.56 25.6711H213.592C211.558 25.6711 209.909 24.0224 209.909 21.9885C209.909 20.0225 211.45 18.4163 213.39 18.3114L213.592 18.3059H271.56Z" fill="#D7D1F9"/>
        <path fill-rule="evenodd" clip-rule="evenodd" d="M430.804 31.5364H559.506C564.974 31.5364 569.406 35.9688 569.406 41.4365V188.948C569.406 194.416 564.974 198.848 559.506 198.848H430.804C425.337 198.848 420.904 194.416 420.904 188.948V41.4365C420.904 35.9688 425.337 31.5364 430.804 31.5364Z" fill="#D7D1F9"/>
        <path d="M423.877 25.0677H552.578C557.791 25.0677 562.017 29.2935 562.017 34.5062V182.018C562.017 187.231 557.791 191.457 552.578 191.457H423.877C418.664 191.457 414.438 187.231 414.438 182.018V34.5062C414.438 29.2935 418.664 25.0677 423.877 25.0677Z" fill="white" stroke="#EEEBFF" stroke-width="0.923254"/>
        <path d="M451.598 161.228C453.785 161.228 455.558 159.455 455.558 157.268C455.558 155.081 453.785 153.308 451.598 153.308C449.411 153.308 447.638 155.081 447.638 157.268C447.638 159.455 449.411 161.228 451.598 161.228Z" fill="#E85912"/>
        <path d="M521.507 155.535C522.464 155.535 523.239 156.311 523.239 157.268C523.239 158.177 522.539 158.922 521.649 158.995L521.507 159H466.998C466.041 159 465.266 158.225 465.266 157.268C465.266 156.359 465.966 155.613 466.856 155.541L466.998 155.535H521.507Z" fill="#E85912"/>
        <path d="M491.806 165.436C492.763 165.436 493.539 166.211 493.539 167.168C493.539 168.077 492.839 168.823 491.948 168.895L491.806 168.901H466.998C466.041 168.901 465.266 168.125 465.266 167.168C465.266 166.259 465.966 165.514 466.856 165.441L466.998 165.436H491.806Z" fill="#F5B899"/>
        <path fill-rule="evenodd" clip-rule="evenodd" d="M488.219 141.427C508.45 141.427 524.85 125.027 524.85 104.797C524.85 84.5665 508.45 68.1665 488.219 68.1665C467.989 68.1665 451.589 84.5665 451.589 104.797C451.589 125.027 467.989 141.427 488.219 141.427ZM488.22 135.487C471.27 135.487 457.53 121.747 457.53 104.797C457.53 87.8469 471.27 74.1063 488.22 74.1063C505.17 74.1063 518.91 87.8469 518.91 104.797C518.91 121.747 505.17 135.487 488.22 135.487Z" fill="#EEEBFF"/>
        <mask id="mask0_86_27559" style="mask-type:luminance" maskUnits="userSpaceOnUse" x="451" y="68" width="74" height="74">
            <path fill-rule="evenodd" clip-rule="evenodd" d="M488.219 141.427C508.45 141.427 524.85 125.027 524.85 104.797C524.85 84.5665 508.45 68.1665 488.219 68.1665C467.989 68.1665 451.589 84.5665 451.589 104.797C451.589 125.027 467.989 141.427 488.219 141.427ZM488.22 135.487C471.27 135.487 457.53 121.747 457.53 104.797C457.53 87.8469 471.27 74.1063 488.22 74.1063C505.17 74.1063 518.91 87.8469 518.91 104.797C518.91 121.747 505.17 135.487 488.22 135.487Z" fill="white"/>
        </mask>
        <g mask="url(#mask0_86_27559)">
            <path d="M488.718 60.1576L487.926 108.262L527.823 124.597L499.858 149.312L444.453 142.17V78.8383L488.718 60.1576Z" fill="#E85912"/>
        </g>
        <path d="M519.913 122.617C523.193 122.617 525.853 119.958 525.853 116.677C525.853 113.397 523.193 110.737 519.913 110.737C516.632 110.737 513.973 113.397 513.973 116.677C513.973 119.958 516.632 122.617 519.913 122.617Z" fill="#E85912"/>
        <path d="M519.908 119.647C521.548 119.647 522.878 118.318 522.878 116.677C522.878 115.037 521.548 113.707 519.908 113.707C518.267 113.707 516.938 115.037 516.938 116.677C516.938 118.318 518.267 119.647 519.908 119.647Z" fill="white"/>
        <path fill-rule="evenodd" clip-rule="evenodd" d="M548.115 42.4259C549.482 42.4259 550.59 41.3178 550.59 39.9509C550.59 38.5839 549.482 37.4758 548.115 37.4758C546.748 37.4758 545.64 38.5839 545.64 39.9509C545.64 41.3178 546.748 42.4259 548.115 42.4259Z" fill="#716B95"/>
        <path fill-rule="evenodd" clip-rule="evenodd" d="M539.204 42.4259C540.57 42.4259 541.679 41.3178 541.679 39.9509C541.679 38.5839 540.57 37.4758 539.204 37.4758C537.837 37.4758 536.729 38.5839 536.729 39.9509C536.729 41.3178 537.837 42.4259 539.204 42.4259Z" fill="#716B95"/>
        <path fill-rule="evenodd" clip-rule="evenodd" d="M530.297 42.4259C531.664 42.4259 532.772 41.3178 532.772 39.9509C532.772 38.5839 531.664 37.4758 530.297 37.4758C528.93 37.4758 527.822 38.5839 527.822 39.9509C527.822 41.3178 528.93 42.4259 530.297 42.4259Z" fill="#716B95"/>
        <path d="M470.007 36.4863C471.92 36.4863 473.472 38.0377 473.472 39.9514C473.472 41.8013 472.022 43.3126 470.197 43.4113L470.007 43.4164H432.293C430.379 43.4164 428.828 41.8651 428.828 39.9514C428.828 38.1015 430.278 36.5902 432.103 36.4915L432.293 36.4863H470.007Z" fill="#D7D1F9"/>
        <path d="M413.977 52.8212H561.884" stroke="#EEEBFF" stroke-width="1.20023"/>
        <path d="M179.337 313.366L182.655 327.336L187.623 327.307L187.806 313.366H179.337Z" fill="#FFB27D"/>
        <path d="M221.131 313.961L230.57 327.335L234.249 322.612L228.569 312.123L221.131 313.961Z" fill="#FFB27D"/>
        <path d="M196.594 129.788C194.876 128.814 192.82 128.708 191.383 128.791C191.7 128.528 192.078 128.349 192.483 128.27C191.592 128.139 189.6 129.023 189.6 129.023C177.2 124.254 175.261 142.512 175.51 146.755C175.76 150.998 171.342 152.38 164.891 155.724C152.58 162.099 151.498 170.639 151.498 170.639C151.593 170.696 151.693 170.759 151.802 170.833C152.411 169.8 153.668 167.862 154.73 167.576C154.085 168.929 153.512 170.316 153.013 171.729C156.643 174.492 163.437 180.604 168.187 184.952C168.167 184.094 168.187 182.9 168.51 182.264L169.083 185.785C171.617 188.116 173.377 189.753 173.377 189.753C173.063 186.318 188.881 168.237 197.141 162.818C199.145 159.861 199.864 154.636 199.918 154.23C199.569 158.369 198.862 160.694 198.229 162.002C205.209 155.552 201.141 132.381 196.594 129.788Z" fill="#241E46"/>
        <path d="M196.646 163.073C196.689 163.093 192.66 165.183 189.634 164.355C186.771 163.577 184.924 159.884 184.961 159.875C186.17 159.638 186.516 157.98 186.49 150.858L187.037 150.963L196.199 152.778C196.199 152.778 195.99 155.664 195.984 158.384C195.984 160.665 196.125 162.829 196.646 163.073Z" fill="#FFB27D"/>
        <path d="M186.27 132.789C186.27 132.789 190.793 127.974 196.473 132.543C196.473 132.543 193.167 131.971 186.27 132.789Z" fill="#E85912"/>
        <path d="M196.204 152.781C196.204 152.781 195.995 155.666 195.989 158.386C190.855 158.24 188.144 153.548 187.033 150.971L196.204 152.781Z" fill="#D68D5D"/>
        <path d="M186.089 149.967C186.089 149.967 183.401 145.719 182.754 142.086C182.293 139.492 183.612 129.879 193.275 131.262C195.219 131.534 197.078 132.237 198.715 133.32C200.811 134.737 203.84 137.795 200.456 146.183L199.574 149.017L186.089 149.967Z" fill="#241E46"/>
        <path d="M232.752 318.946L227.885 319.095L222.623 319.258C222.623 319.258 210.472 305.729 203.655 284.046C203.495 283.543 203.329 283.033 203.151 282.515C199.429 271.637 191.699 257.987 187.611 245.629C186.964 243.663 186.379 241.805 185.858 240.055C185.688 239.494 185.526 238.941 185.372 238.397C182.368 227.963 181.498 221.112 180.696 213.778L210.126 214.013C210.126 214.013 214.884 264.007 232.752 318.946Z" fill="#332D59"/>
        <path d="M206.011 197.11C205.937 211.112 208.067 217.121 208.067 217.121C208.067 217.121 195.47 223.522 180.49 218.81C180.313 218.756 169.196 215.864 169.196 215.864C169.445 215.292 171.675 206.176 171.919 205.655C175.068 198.864 176.376 195.673 176.751 193.586C177.447 189.69 177.461 185.66 177.115 181.849C176.521 175.603 175.305 169.432 173.484 163.428C177.564 162.497 181.501 160.911 185.738 159.317C186.714 160.533 189.597 161.764 192.186 161.704C195.169 161.638 196.102 160.379 195.991 158.956C199.172 160.725 201.697 162.409 201.697 162.409C204.399 167.101 209.879 171.658 210.286 178.858C210.375 180.633 206.014 196.718 206.011 197.11Z" fill="#FAF9FF"/>
        <path d="M180.701 198.673C179.416 200.494 176.948 211.555 170.812 212.95C173.962 205.063 176.375 201.605 176.75 199.183C177.446 194.654 177.461 189.97 177.114 185.553C179.17 181.955 180.701 179.487 180.701 179.487C180.862 178.915 183.965 169.31 184.962 177.887C185.958 186.464 182.133 196.638 180.701 198.673Z" fill="#5F9AA8"/>
        <path d="M197.914 155.352C197.914 155.352 185.775 155.552 185.766 147.992C185.758 140.431 184.186 135.364 191.936 134.918C199.686 134.471 201.195 137.354 201.814 139.876C202.432 142.398 201.072 155.106 197.914 155.352Z" fill="#FFB27D"/>
        <path d="M201.454 135.673C199.579 133.403 198.161 133.898 197.368 134.579C194.743 130.66 186.452 136.328 186.452 136.328C185.913 139.634 184.243 142.651 181.728 144.862C181.728 144.862 183.941 146.228 189.04 144.917C193.048 143.883 195.968 138.172 197.028 135.782C197.749 136.426 199.272 137.909 199.73 139.36C200.335 141.284 200.607 145.249 201.763 145.114C201.763 145.114 204.268 139.085 201.454 135.673Z" fill="#241E46"/>
        <path d="M182.487 326.549C182.691 328.481 182.475 330.434 181.855 332.275C181.855 332.275 181.042 335.979 184.689 336.048C188.337 336.117 189.233 335.762 188.82 333.5C188.408 331.239 187.621 327.3 187.621 327.3L182.487 326.549Z" fill="#FFB27D"/>
        <path d="M189.165 337.875H181.603C181.191 335.937 181.864 332.287 181.864 332.287C185.998 336.237 188.584 332.187 188.584 332.187C189.245 333.876 189.165 337.875 189.165 337.875Z" fill="#241E46"/>
        <path d="M243.043 334.052C243.043 334.052 236.312 326.412 234.248 322.602L229.243 325.178L240.429 335.681L243.043 335.335V334.052Z" fill="#FFB27D"/>
        <path d="M247.174 337.86H237.837C237.015 337.121 236.231 335.627 235.26 333.672C234.711 332.55 233.477 331.934 232.214 331.593V337.86H230.293L228.518 331.196C227.327 328.963 228.232 326.901 229.059 325.152C230.035 325.152 232.861 325.854 237.831 331.565C239.466 333.44 241.267 334.107 243.062 334.053L243.134 334.093C245.951 335.389 246.873 336.987 247.174 337.86Z" fill="#241E46"/>
        <path d="M246.717 167.902C246.717 167.902 238.746 172.356 235.9 173.642C234.887 174.097 233.054 174.953 231.179 175.826L227.912 177.36C227.098 177.742 226.181 177.846 225.301 177.656C224.422 177.466 223.629 176.993 223.045 176.31C218.73 171.271 207.565 160.353 196.029 158.984L195.989 158.964V158.979L196.055 159.105C196.702 160.716 203.024 176.51 203.213 179.842C203.419 183.352 204.037 237.26 204.037 237.26C204.037 237.26 203.625 239.739 208.375 238.706C213.125 237.672 214.367 236.642 214.367 236.642C214.367 236.642 209.821 203.385 211.049 191.817C211.292 189.55 211.075 186.999 210.565 184.374C217.588 188.628 225.871 190.52 225.871 190.52C225.871 190.52 228.96 189.175 233.759 186.2C235.763 184.949 238.11 182.957 240.409 180.85C243.201 178.291 247.982 172.153 247.982 172.153L246.717 167.902Z" fill="#E85912"/>
        <path d="M227.89 319.093L222.628 319.256C222.628 319.256 210.477 305.727 203.66 284.044C203.5 283.541 203.334 283.031 203.157 282.513C199.435 271.634 191.704 257.985 187.616 245.627C186.969 243.661 186.385 241.803 185.864 240.053C185.694 239.492 185.532 238.939 185.377 238.395L189.712 235.109C189.712 235.109 202.721 256.17 206.755 275.997C210.251 293.217 224.263 313.94 227.89 319.093Z" fill="#241E46"/>
        <path d="M190.163 277.844C190.238 287.485 189.748 309.651 188.494 318.826H183.833C181.256 318.826 179.974 318.789 179.974 318.789C176.824 302.835 174.58 289.632 172.948 278.256C171.611 268.912 170.42 260.916 169.506 254.026C168.593 247.135 167.943 241.287 167.714 236.38C167.68 235.607 167.654 234.856 167.637 234.127C167.62 233.398 167.62 232.685 167.637 231.988L193.067 229.512C192.726 246.405 190.12 272.238 190.163 277.844Z" fill="#332D59"/>
        <path d="M183.838 318.831C181.261 318.831 179.978 318.794 179.978 318.794C176.829 302.84 174.584 289.637 172.952 278.26C171.615 268.916 170.424 260.921 169.511 254.03C168.598 247.14 167.948 241.291 167.719 236.384L177.049 241.872C177.049 241.872 171.094 243.973 173.368 259.879C175.641 275.784 180.674 316.581 183.838 318.831Z" fill="#241E46"/>
        <path d="M185.032 236.227C185.032 236.227 183.243 242.696 177.044 241.869C170.846 241.042 162.036 237.326 162.036 237.326C162.036 237.326 164.684 228.958 167.977 217.957C171.965 204.648 176.898 187.492 179.226 176.67C179.784 174.237 180.206 171.774 180.488 169.293L185.736 159.314C185.736 159.314 193.295 176.522 193.71 180.859C194.125 185.196 185.032 236.227 185.032 236.227Z" fill="#E85912"/>
        <path d="M207.171 185.716C204.188 186.108 203.043 187.691 202.676 189.83C202.439 190.935 201.998 191.986 201.376 192.93C198.407 193.088 191.33 193.474 185.386 193.849L184.896 201.641C190.955 200.851 196.917 199.44 202.687 197.43C203.217 197.339 203.881 197.01 204.712 196.331C208.989 192.824 211.42 186.956 211.428 186.117C211.437 185.278 210.151 185.324 207.171 185.716Z" fill="#FFB27D"/>
        <path d="M184.757 189.958C184.471 196.98 182.83 210.612 168.094 217.909L167.977 217.967C171.965 204.658 176.898 187.501 179.225 176.68C181.931 180.74 184.909 186.09 184.757 189.958Z" fill="#C54C0F"/>
        <path d="M185.737 159.33C185.737 159.33 173.14 160.226 170.105 166.97C167.07 173.715 166.111 196.17 169.967 202.772C169.967 202.772 175.275 204.283 184.663 202.528L185.013 202.463C185.013 202.463 188.007 195.131 185.322 193.685C185.322 193.685 177.403 194.098 178.23 191.481C179.057 188.865 185.737 159.33 185.737 159.33Z" fill="#E85912"/>
        <path d="M255.265 162.604C248.486 161.745 246.773 167.9 246.773 167.9L248.039 172.137C250.129 172.423 251.958 171.88 253.645 169.469C255.331 167.059 255.792 167.983 256.863 166.188C258.317 163.755 256.044 162.848 255.265 162.604Z" fill="#FFB27D"/>
        <path d="M235.904 173.641C234.89 174.096 233.058 174.952 231.183 175.825C232.185 177.606 233.442 180.841 233.774 186.188C236.239 184.586 238.534 182.738 240.625 180.672C244.198 177.165 247.986 172.152 247.986 172.152L246.72 167.915C246.72 167.915 238.75 172.355 235.904 173.641Z" fill="#FFB27D"/>
        <path d="M403.202 222.261C403.202 222.261 398.607 223.632 395.69 222.61C392.772 221.587 387.746 223.265 386.936 224.509C386.127 225.754 386.424 226.235 387.869 226.662C389.314 227.09 394.413 229.623 397.789 228.157C401.165 226.691 405.536 226.637 405.536 226.637L403.202 222.261Z" fill="#E49963"/>
        <path d="M444.891 180.672C444.891 180.672 439.577 219.217 430.777 222.656C426.438 224.358 407.249 228.222 401.567 228.609C401.567 228.609 400.162 227.462 400.516 222.773C400.516 222.773 420.618 215.242 423.474 211.146C427.724 205.05 420.834 186.244 426.168 180.52C431.502 174.797 440.492 172.341 444.891 180.672Z" fill="#4A75CB"/>
        <path d="M444.786 329.174V320.789H457.848C458.019 320.789 458.182 320.72 458.303 320.598C458.423 320.477 458.491 320.312 458.491 320.139V318.795C458.49 318.623 458.422 318.458 458.302 318.337C458.181 318.216 458.018 318.148 457.848 318.148H444.786V270.4C444.785 269.754 444.531 269.136 444.079 268.679C443.628 268.222 443.016 267.965 442.378 267.962H439.794C439.155 267.964 438.543 268.221 438.091 268.678C437.639 269.135 437.385 269.754 437.383 270.4V318.148H424.315C424.146 318.149 423.984 318.217 423.864 318.338C423.744 318.459 423.677 318.623 423.676 318.795V320.139C423.676 320.311 423.743 320.476 423.863 320.597C423.983 320.719 424.146 320.788 424.315 320.789H437.378V329.174C427.929 329.898 420.357 333.337 418.231 337.783H463.933C461.81 333.337 454.238 329.898 444.786 329.174Z" fill="#E85912"/>
        <path d="M443.102 261.401C441.526 264.047 439.772 266.579 437.852 268.982C432.076 276.341 425.788 282.408 424.692 288.145C424.441 289.392 424.101 290.62 423.675 291.817C423.217 293.131 422.652 294.512 422.001 295.94C419.549 301.316 415.881 307.337 412.222 312.81C405.895 322.271 399.943 330.167 399.943 330.167L389.033 329.696C389.468 328.593 394.23 315.528 400.594 299.564C403.182 293.082 405.929 286.187 408.583 279.541C408.935 278.652 409.287 277.769 409.64 276.892C410.449 274.856 411.248 272.855 412.026 270.903C417.992 255.911 422.765 243.976 422.765 243.976C422.765 243.976 446.659 234.842 449.142 240.759C451.188 245.639 449.528 250.421 443.102 261.401Z" fill="#241E46"/>
        <path d="M399.189 329.104C399.189 329.104 398.635 337.646 396.947 337.767C396.719 337.783 388.325 337.783 388.325 337.783L377.608 337.724C377.608 337.724 377.678 335.213 380.81 334.684C383.943 334.156 389.188 332.011 391.084 327.988C393.08 323.755 399.189 329.104 399.189 329.104Z" fill="#241E46"/>
        <path d="M425.246 302.238C425.246 302.238 432.886 307.194 432.145 308.801C432.048 309.018 427.823 316.649 427.823 316.649L422.389 326.358C422.389 326.358 420.101 324.984 421.182 321.858C422.263 318.733 422.921 312.851 420.144 309.024C417.215 305 425.246 302.238 425.246 302.238Z" fill="#241E46"/>
        <path d="M414.754 240.034C414.754 240.034 384.929 258.851 381.601 271.498C378.272 284.145 421.274 311.124 421.274 311.124C421.274 311.124 425.99 306.909 426.823 303.818C426.823 303.818 407.385 280.227 403.17 274.938C400.579 271.693 441.459 263.696 446.451 255.829C451.444 247.961 449.658 241.339 449.658 241.339L414.754 240.034Z" fill="#332D59"/>
        <path d="M471.849 264.154H410.314C409.078 264.154 408.075 265.215 408.075 266.525V279.556C408.075 280.865 409.078 281.926 410.314 281.926H471.849C473.085 281.926 474.088 280.865 474.088 279.556V266.525C474.088 265.215 473.085 264.154 471.849 264.154Z" fill="#E85912"/>
        <path d="M429.135 174.541C427.377 175.65 425.833 177.082 424.579 178.764C431.741 180.666 443.621 173.858 443.621 173.858C443.621 173.858 439.009 170.681 437.3 163.693C437.212 163.341 437.136 162.978 437.065 162.61C436.828 161.35 436.698 160.071 436.677 158.787L433.385 161.811L427.914 166.856C428.074 168.761 428.343 170.655 428.721 172.528C428.84 173.152 428.976 173.826 429.135 174.541Z" fill="#E49963"/>
        <path d="M451.043 208.122C450.024 222.145 451.738 243.458 450.582 247.153C449.582 250.338 437.837 248.454 433.297 247.389C431.608 246.994 429.582 246.433 427.479 245.769C421.617 243.912 415.228 241.262 414.532 239.294C414.507 239.219 414.486 239.143 414.47 239.066C414.407 238.795 414.407 238.512 414.47 238.24C414.698 237.239 415.579 236.154 415.684 233.67C415.799 230.896 415.782 227.627 415.883 224.119C415.883 223.725 415.883 223.293 415.937 222.899V222.758C415.937 222.68 415.937 222.608 415.937 222.531C416.035 218.617 416.235 214.499 416.469 210.415C416.615 207.851 416.787 205.313 416.984 202.878C417.496 196.599 418.183 191.013 419.095 187.482C420.587 181.727 423.88 177.985 426.866 175.22L429.027 173.323C431.442 173.862 434.296 173.505 436.88 172.253C439.675 170.897 440.638 169.925 441.125 170.29C447.604 175.384 452.262 190.984 451.043 208.122Z" fill="#739AF0"/>
        <path d="M427.687 246.381C421.709 244.482 415.195 241.771 414.486 239.757C414.46 239.682 414.439 239.606 414.423 239.528C414.423 239.233 414.423 238.965 414.423 238.683C414.655 237.658 415.554 236.549 415.66 234.008C415.777 231.17 415.76 227.826 415.863 224.237C415.863 223.834 415.864 223.392 415.918 222.989V222.842C415.918 222.765 415.918 222.689 415.918 222.612L438.5 212.105C438.5 212.105 439.826 230.776 427.687 246.381Z" fill="#4A75CB"/>
        <path d="M427.118 166.695C427.285 168.729 427.567 170.752 427.962 172.752C433.549 170.86 436.081 165.578 436.928 163.336C437.167 162.716 437.274 162.313 437.274 162.313L436.682 162.179L432.833 161.326L427.118 166.695Z" fill="#D68D5D"/>
        <path d="M424.889 166.314C424.889 166.314 436.984 167.598 437.731 160.489C438.479 153.379 440.519 148.755 432.828 147.633C425.137 146.511 423.354 149.088 422.496 151.404C421.638 153.72 421.763 165.794 424.889 166.314Z" fill="#E49963"/>
        <path d="M438.304 161.326C438.304 161.326 437.534 151.438 426.483 150.415C418.913 149.715 423.132 143.307 423.94 142.284C423.94 142.284 429.738 143.065 435.685 144.033C448.162 146.059 439.529 159.788 438.304 161.326Z" fill="#241E46"/>
        <path d="M371.624 205.212L370.587 205.549L379.424 232.743L380.461 232.406L371.624 205.212Z" fill="#241E46"/>
        <path d="M409.37 230.352L379.369 230.991L379.407 232.785L409.408 232.146L409.37 230.352Z" fill="#241E46"/>
        <path d="M406.423 228.609C406.423 228.609 401.69 230.285 398.489 229.733C395.287 229.18 390.13 231.167 389.397 232.313C388.663 233.459 389.027 233.846 390.604 234.053C392.182 234.259 397.863 235.86 401.28 234.235C404.697 232.61 409.345 232.085 409.345 232.085L406.423 228.609Z" fill="#E49963"/>
        <path d="M442.352 182.324C442.352 182.324 441.234 221.305 432.911 225.737C428.804 227.922 410.246 233.931 404.674 234.956C404.674 234.956 403.177 233.965 402.998 229.261C402.998 229.261 422.064 219.496 424.448 215.093C427.996 208.545 419.161 190.589 423.822 184.285C428.482 177.981 437.107 174.529 442.352 182.324Z" fill="#739AF0"/>
        <path d="M573.784 339.053H-34.3782C-34.456 339.053 -34.533 339.036 -34.6049 339.005C-34.6768 338.973 -34.7421 338.926 -34.7972 338.867C-34.8522 338.809 -34.8958 338.739 -34.9256 338.662C-34.9554 338.585 -34.9707 338.503 -34.9707 338.42C-34.9707 338.251 -34.9084 338.09 -34.7973 337.971C-34.6863 337.852 -34.5356 337.784 -34.3782 337.783H573.784C573.942 337.784 574.092 337.852 574.203 337.971C574.314 338.09 574.377 338.251 574.377 338.42C574.377 338.588 574.314 338.749 574.203 338.867C574.092 338.986 573.941 339.053 573.784 339.053Z" fill="#E85912"/>
        <path fill-rule="evenodd" clip-rule="evenodd" d="M5.91992 28.3596C5.91992 24.0737 9.39437 20.5992 13.6803 20.5992H145.451C149.736 20.5992 153.211 24.0737 153.211 28.3596V96.8863C153.211 101.172 149.736 104.647 145.451 104.647H13.6803C9.39437 104.647 5.91992 101.172 5.91992 96.8863V28.3596Z" fill="#D7D1F9"/>
        <path d="M2.14779 24.1989C2.14779 20.1272 5.44851 16.8265 9.52015 16.8265H141.29C145.362 16.8265 148.663 20.1272 148.663 24.1989V92.7255C148.663 96.7972 145.362 100.098 141.29 100.098H9.52016C5.44851 100.098 2.14779 96.7972 2.14779 92.7255V24.1989Z" fill="white" stroke="#EEEBFF" stroke-width="0.776039"/>
        <path fill-rule="evenodd" clip-rule="evenodd" d="M109.525 83.8431C122.163 83.8431 132.409 73.5975 132.409 60.9589C132.409 48.3203 122.163 38.0747 109.525 38.0747C96.8862 38.0747 86.6406 48.3203 86.6406 60.9589C86.6406 73.5975 96.8862 83.8431 109.525 83.8431Z" fill="#EEEBFF"/>
        <path d="M130.161 59.2946C130.161 71.6117 120.176 81.5968 107.859 81.5968C95.5417 81.5968 85.5566 71.6117 85.5566 59.2946C85.5566 46.9774 95.5417 36.9924 107.859 36.9924C120.176 36.9924 130.161 46.9774 130.161 59.2946Z" fill="white" stroke="#EEEBFF" stroke-width="1.16406"/>
        <path d="M101.09 56.8088C100.869 56.0355 101.45 55.2656 102.254 55.2656H114.622C115.427 55.2656 116.007 56.0355 115.786 56.8088L113.882 63.4747C113.733 63.9944 113.258 64.3527 112.718 64.3527H104.159C103.618 64.3527 103.143 63.9944 102.995 63.4747L101.09 56.8088Z" fill="#E85912"/>
        <path d="M99.5849 53.0957C100.551 53.0957 101.407 53.7017 101.735 54.5995L101.782 54.7436L102.815 58.2875C102.912 58.6184 102.721 58.9649 102.391 59.0614C102.087 59.1498 101.771 58.9975 101.646 58.7166L101.617 58.6369L100.584 55.093C100.464 54.6833 100.108 54.3917 99.6906 54.3493L99.5849 54.3439H97.0782C96.7335 54.3439 96.4541 54.0645 96.4541 53.7198C96.4541 53.4039 96.6889 53.1427 96.9935 53.1014L97.0782 53.0957H99.5849Z" fill="#E85912"/>
        <path d="M104.536 68.2473C105.253 68.2473 105.835 67.6661 105.835 66.9492C105.835 66.2322 105.253 65.651 104.536 65.651C103.819 65.651 103.238 66.2322 103.238 66.9492C103.238 67.6661 103.819 68.2473 104.536 68.2473Z" fill="#E85912"/>
        <path d="M112.331 68.2473C113.048 68.2473 113.63 67.6661 113.63 66.9492C113.63 66.2322 113.048 65.651 112.331 65.651C111.614 65.651 111.033 66.2322 111.033 66.9492C111.033 67.6661 111.614 68.2473 112.331 68.2473Z" fill="#E85912"/>
        <path d="M47.9474 68.2783C48.9815 68.2783 49.8197 69.1166 49.8197 70.1507C49.8197 71.1416 49.0499 71.9528 48.0756 72.0187L47.9474 72.023H25.6741C24.64 72.023 23.8018 71.1847 23.8018 70.1507C23.8018 69.1597 24.5716 68.3485 25.5459 68.2826L25.6741 68.2783H47.9474Z" fill="#F5B899"/>
        <path d="M56.2689 56.6281C57.303 56.6281 58.1413 57.4663 58.1413 58.5004C58.1413 59.4914 57.3714 60.3025 56.3971 60.3684L56.2689 60.3727H25.6741C24.64 60.3727 23.8018 59.5345 23.8018 58.5004C23.8018 57.5094 24.5716 56.6982 25.5459 56.6324L25.6741 56.6281H56.2689Z" fill="#E85912"/>
        <path d="M64.5905 44.978C65.6245 44.978 66.4628 45.8163 66.4628 46.8504C66.4628 47.8414 65.6929 48.6525 64.7187 48.7184L64.5905 48.7227H25.6741C24.64 48.7227 23.8018 47.8844 23.8018 46.8504C23.8018 45.8594 24.5716 45.0482 25.5459 44.9823L25.6741 44.978H64.5905Z" fill="#9D97BF"/>
    </g>
    <defs>
        <clipPath id="clip0_86_27559">
            <rect width="573.802" height="338.949" fill="white" transform="translate(0.575195 0.103271)"/>
        </clipPath>
    </defs>
</svg>