<svg xmlns="http://www.w3.org/2000/svg" fill="none" viewBox="20.63 1.56 145.15 140.88">
  <path d="M93.0903 142.438C131.932 142.438 163.419 110.902 163.419 72C163.419 33.0984 131.932 1.5625 93.0903 1.5625C54.2489 1.5625 22.7617 33.0984 22.7617 72C22.7617 110.902 54.2489 142.438 93.0903 142.438Z" fill="#EFF0F1"/>
  <path d="M25.2618 30.7396C27.1198 30.1347 28.1365 28.1358 27.5326 26.2749C26.9287 24.414 24.9328 23.3957 23.0748 24.0005C21.2167 24.6054 20.2 26.6043 20.804 28.4652C21.4079 30.3262 23.4037 31.3444 25.2618 30.7396Z" fill="#E2E2E3"/>
  <path d="M32.9841 19.1791C34.2476 18.7678 34.9389 17.4086 34.5283 16.1431C34.1176 14.8777 32.7604 14.1853 31.497 14.5966C30.2335 15.0079 29.5421 16.3671 29.9528 17.6326C30.3635 18.898 31.7206 19.5904 32.9841 19.1791Z" fill="#E2E2E3"/>
  <path d="M164.03 32.9886C166.223 30.9821 166.376 27.5755 164.372 25.3798C162.369 23.1842 158.968 23.0308 156.775 25.0373C154.583 27.0438 154.43 30.4504 156.433 32.646C158.437 34.8417 161.838 34.9951 164.03 32.9886Z" fill="#E2E2E3"/>
  <path d="M160.362 109.9C161.285 109.055 161.35 107.621 160.506 106.696C159.663 105.772 158.231 105.707 157.308 106.552C156.385 107.397 156.32 108.831 157.164 109.756C158.007 110.68 159.439 110.745 160.362 109.9Z" fill="#E2E2E3"/>
  <path d="M39.6011 130.533C41.1642 130.533 42.4312 129.264 42.4312 127.698C42.4312 126.133 41.1642 124.864 39.6011 124.864C38.0381 124.864 36.771 126.133 36.771 127.698C36.771 129.264 38.0381 130.533 39.6011 130.533Z" fill="url(#paint0_linear_1_120052)"/>
  <path d="M147.57 9.21588C148.821 9.21588 149.834 8.20063 149.834 6.94827C149.834 5.69591 148.821 4.68066 147.57 4.68066C146.32 4.68066 145.306 5.69591 145.306 6.94827C145.306 8.20063 146.32 9.21588 147.57 9.21588Z" fill="url(#paint1_linear_1_120052)"/>
  <g filter="url(#filter0_d_1_120052)">
    <path d="M162.711 62.788L139.08 125.005C138.231 127.131 135.825 128.123 133.844 127.273L73.704 103.605C71.5815 102.755 70.5909 100.345 71.4399 98.3611L102.713 18.7114C103.562 16.5856 105.967 15.5935 107.949 16.4438L151.532 33.5926L162.711 62.788Z" fill="white"/>
  </g>
  <path d="M135.542 101.479L99.4584 87.3066C98.8923 87.1649 98.7508 86.598 98.8923 86.0311C99.0339 85.4642 99.5999 85.3225 100.166 85.4642L136.25 99.6367C136.816 99.7785 136.958 100.345 136.816 100.912C136.533 101.337 135.967 101.621 135.542 101.479Z" fill="#E3EAF2"/>
  <path d="M94.9302 85.4641L88.5624 82.9131C87.9963 82.7714 87.8548 82.2045 87.9964 81.6376C88.1379 81.0707 88.7039 80.9289 89.2699 81.0706L95.6377 83.6217C96.2037 83.7634 96.3452 84.3303 96.2037 84.8972C96.0622 85.4641 95.4962 85.6059 94.9302 85.4641Z" fill="#E3EAF2"/>
  <path d="M139.221 91.6999L123.09 85.3223C122.524 85.1805 122.382 84.6136 122.524 84.0467C122.665 83.4798 123.231 83.3381 123.797 83.4798L139.929 89.8575C140.495 89.9992 140.636 90.5661 140.495 91.133C140.353 91.6999 139.787 91.8416 139.221 91.6999Z" fill="#E2E2E3"/>
  <path d="M116.298 82.6296L92.8075 73.4175C92.2415 73.2757 92.1 72.7088 92.2415 72.1419C92.383 71.575 92.949 71.4333 93.515 71.575L117.005 80.7872C117.571 80.9289 117.713 81.4958 117.571 82.0627C117.43 82.6296 116.864 82.7713 116.298 82.6296Z" fill="#E3EAF2"/>
  <path d="M143.325 82.0626L137.099 79.6533C136.533 79.5116 136.391 78.9447 136.533 78.3778C136.674 77.8109 137.241 77.6692 137.807 77.8109L144.033 80.2202C144.599 80.3619 144.74 80.9288 144.599 81.4957C144.457 82.0626 143.891 82.2044 143.325 82.0626Z" fill="#E2E2E3"/>
  <path d="M131.297 77.2443L96.911 63.6387C96.345 63.4969 96.2035 62.93 96.345 62.3631C96.4865 61.7962 97.0525 61.6545 97.6185 61.7962L132.005 75.4019C132.571 75.5436 132.712 76.1105 132.571 76.6774C132.429 77.2443 131.863 77.5278 131.297 77.2443Z" fill="#E3EAF2"/>
  <path d="M103.986 101.337L101.864 100.487C101.298 100.345 101.156 99.7782 101.298 99.2113C101.439 98.6444 102.005 98.5027 102.571 98.6444L104.694 99.4947C105.26 99.6365 105.402 100.203 105.26 100.77C104.977 101.337 104.411 101.479 103.986 101.337Z" fill="#E3EAF2"/>
  <path d="M97.9017 98.9278L85.1661 93.8257C84.6001 93.6839 84.4586 93.117 84.6001 92.5501C84.7416 91.9832 85.3076 91.8415 85.8737 91.9832L98.6092 97.0854C99.1753 97.2271 99.3168 97.794 99.1752 98.3609C99.0337 98.9278 98.3262 99.0695 97.9017 98.9278Z" fill="#E3EAF2"/>
  <path d="M147.57 72.4256L125.354 63.6387C124.788 63.4969 124.646 62.93 124.788 62.3631C124.929 61.7962 125.495 61.6545 126.061 61.7962L148.278 70.5832C148.844 70.7249 148.985 71.2918 148.844 71.8587C148.702 72.4256 147.995 72.5674 147.57 72.4256Z" fill="#E2E2E3"/>
  <path d="M118.137 60.8038L101.015 54.001C100.449 53.8592 100.307 53.2923 100.449 52.7254C100.59 52.1585 101.156 52.0168 101.722 52.1585L118.845 59.1031C119.411 59.2448 119.552 59.8117 119.411 60.3786C119.269 60.9455 118.703 61.0872 118.137 60.8038Z" fill="#E3EAF2"/>
  <path d="M138.939 43.6553L110.071 32.3173C109.364 32.0338 109.081 31.3252 109.364 30.6166C109.647 29.9079 110.354 29.6245 111.062 29.9079L139.929 41.246C140.637 41.5294 140.92 42.238 140.637 42.9467C140.354 43.6553 139.646 43.9387 138.939 43.6553Z" fill="#CED7E2"/>
  <path d="M118.42 43.5135L107.383 39.12C106.675 38.8366 106.392 38.1279 106.675 37.4193C106.958 36.7107 107.666 36.4272 108.373 36.7107L119.411 41.1042C120.118 41.3876 120.401 42.0962 120.118 42.8049C119.835 43.5135 118.986 43.7969 118.42 43.5135Z" fill="#CED7E2"/>
  <path d="M151.532 33.5923L144.882 50.5993C143.891 53.0087 145.306 55.8432 147.57 56.6935L162.711 62.646" fill="#DEDEDF"/>
  <g filter="url(#filter1_d_1_120052)">
    <path d="M95.9204 36.0019L123.514 96.5186C124.363 98.6445 123.514 101.054 121.392 101.904L62.2419 127.982C60.1193 128.832 57.7137 127.982 56.8647 125.856L22.4787 47.6233C21.6296 45.4975 22.4787 43.0881 24.6013 42.2378L67.4776 23.2466L95.9204 36.0019Z" fill="white"/>
  </g>
  <path d="M104.269 82.4876L68.7512 98.2192C68.3267 98.5026 67.7607 98.2192 67.4777 97.794C67.1947 97.3688 67.4777 96.8019 67.9022 96.5185L103.42 80.7869C103.845 80.5035 104.411 80.7869 104.694 81.2121C104.977 81.6373 104.694 82.3459 104.269 82.4876Z" fill="#E3EAF2"/>
  <path d="M64.3645 100.062L58.1382 102.755C57.7137 103.038 57.1477 102.755 56.8647 102.329C56.5816 101.904 56.8647 101.337 57.2892 101.054L63.5154 98.3612C63.94 98.0777 64.506 98.3612 64.789 98.7863C65.072 99.3532 64.9305 99.9201 64.3645 100.062Z" fill="#E3EAF2"/>
  <path d="M99.8827 72.992L84.034 79.9366C83.6094 80.22 83.0434 79.9366 82.7604 79.5114C82.4774 79.0862 82.7604 78.5193 83.1849 78.2359L99.0336 71.2913C99.4581 71.0079 100.024 71.2913 100.307 71.7165C100.59 72.1417 100.449 72.7086 99.8827 72.992Z" fill="#E3EAF2"/>
  <path d="M77.3829 82.9129L54.3174 93.1172C53.8929 93.4006 53.3269 93.1172 53.0439 92.692C52.7608 92.2668 53.0439 91.6999 53.4684 91.4165L76.5339 81.2122C76.9584 80.9288 77.5244 81.2122 77.8074 81.6374C78.0904 82.2043 77.9489 82.7712 77.3829 82.9129Z" fill="#E3EAF2"/>
  <path d="M96.0618 63.2132L89.9771 65.906C89.5526 66.1895 88.9865 65.906 88.7035 65.4808C88.4205 65.0557 88.7035 64.4888 89.128 64.2053L95.2128 61.5125C95.6373 61.2291 96.2034 61.5125 96.4864 61.9377C96.7694 62.5046 96.4864 63.0715 96.0618 63.2132Z" fill="#E3EAF2"/>
  <path d="M84.1755 68.4569L50.3555 83.4798C49.931 83.7632 49.365 83.4798 49.0819 83.0546C48.7989 82.6294 49.0819 82.0625 49.5065 81.7791L83.4679 66.7562C83.8925 66.4727 84.4585 66.7562 84.7415 67.1814C84.883 67.7483 84.7415 68.3152 84.1755 68.4569Z" fill="#E3EAF2"/>
  <path d="M82.0528 104.88L79.9302 105.872C79.5057 106.156 78.9397 105.872 78.6566 105.447C78.3736 105.022 78.6566 104.455 79.0812 104.172L81.2038 103.18C81.6283 102.896 82.1943 103.18 82.4773 103.605C82.7603 104.03 82.4773 104.597 82.0528 104.88Z" fill="#E3EAF2"/>
  <path d="M75.9681 107.573L63.374 113.1C62.9495 113.384 62.3835 113.1 62.1005 112.675C61.8175 112.25 62.1005 111.683 62.525 111.4L75.1191 105.872C75.5436 105.589 76.1096 105.872 76.3926 106.298C76.6756 106.723 76.5341 107.29 75.9681 107.573Z" fill="#E3EAF2"/>
  <path d="M92.0998 53.576L70.3079 63.2134C69.8834 63.4968 69.3173 63.2134 69.0343 62.7882C68.7513 62.363 69.0343 61.7961 69.4588 61.5127L91.2508 51.8753C91.6753 51.5919 92.2414 51.8753 92.5244 52.3005C92.8074 52.7257 92.5244 53.2926 92.0998 53.576Z" fill="#E3EAF2"/>
  <path d="M63.2326 66.3309L46.3933 73.7006C45.9688 73.9841 45.4028 73.7006 45.1198 73.2755C44.8368 72.8503 45.1198 72.2834 45.5443 71.9999L62.3835 64.6302C62.8081 64.3468 63.3741 64.6302 63.6571 65.0554C63.9401 65.4806 63.7986 66.0475 63.2326 66.3309Z" fill="#E2E2E3"/>
  <path d="M65.6379 39.4032L37.1952 51.875C36.4877 52.1585 35.7801 51.875 35.4971 51.1664C35.2141 50.4578 35.4971 49.7492 36.2047 49.4657L64.5059 36.9939C65.2134 36.7104 65.921 36.9939 66.204 37.7025C66.487 38.4111 66.204 39.1198 65.6379 39.4032Z" fill="#E2E2E3"/>
  <path d="M51.0629 54.0009L40.1669 58.8195C39.4593 59.103 38.7518 58.8195 38.4688 58.1109C38.1858 57.4023 38.4688 56.6936 39.1763 56.4102L50.0723 51.5915C50.7798 51.3081 51.4874 51.5915 51.7704 52.3002C52.0534 52.8671 51.7704 53.7174 51.0629 54.0009Z" fill="#E2E2E3"/>
  <path d="M67.4775 23.3882L74.8359 40.1118C75.8264 42.3794 78.798 43.5132 81.0621 42.5211L95.9203 36.0017" fill="#E6EDF5"/>
  <g filter="url(#filter2_d_1_120052)">
    <path d="M139.363 40.6786L140.353 125.714C140.353 128.548 138.089 130.958 135.118 130.958H52.6195C49.7894 130.958 47.3838 128.69 47.3838 125.714V16.4435C47.3838 13.609 49.6479 11.1997 52.6195 11.1997H112.477L139.363 40.6786Z" fill="white"/>
  </g>
  <path d="M87.5716 113.95H84.6C83.8924 113.95 83.3264 113.384 83.3264 112.675C83.3264 111.966 83.8924 111.399 84.6 111.399H87.5716C88.2791 111.399 88.8452 111.966 88.8452 112.675C88.8452 113.384 88.2791 113.95 87.5716 113.95Z" fill="#E3EAF2"/>
  <path d="M79.2227 113.95H61.6759C60.9684 113.95 60.4023 113.384 60.4023 112.675C60.4023 111.966 60.9684 111.399 61.6759 111.399H79.2227C79.9302 111.399 80.4962 111.966 80.4962 112.675C80.4962 113.384 79.9302 113.95 79.2227 113.95Z" fill="#E3EAF2"/>
  <path d="M102.147 29.0572H62.525C61.6759 29.0572 60.8269 28.3485 60.8269 27.3565C60.8269 26.5061 61.5344 25.6558 62.525 25.6558H102.147C102.996 25.6558 103.845 26.3644 103.845 27.3565C103.703 28.3485 102.996 29.0572 102.147 29.0572Z" fill="#E2E2E3"/>
  <path d="M77.6661 38.5528H62.525C61.6759 38.5528 60.8269 37.8441 60.8269 36.8521C60.8269 36.0017 61.5344 35.1514 62.525 35.1514H77.6661C78.5152 35.1514 79.3642 35.86 79.3642 36.8521C79.2227 37.8441 78.5152 38.5528 77.6661 38.5528Z" fill="#E2E2E3"/>
  <path d="M112.477 11.3413V34.726C112.477 37.9857 115.307 40.6785 118.561 40.6785H139.363" fill="#DEDEDF"/>
  <path d="M126.344 56.4102H105.685C105.685 56.4102 105.685 56.4102 105.543 56.4102C105.543 56.4102 105.543 56.4102 105.402 56.4102H84.1756C84.1756 56.4102 84.1756 56.4102 84.0341 56.4102C84.0341 56.4102 84.0341 56.4102 83.8926 56.4102H63.9402C61.6761 56.4102 59.978 58.2526 59.978 60.5202V96.5184C59.978 98.786 61.8176 100.628 63.9402 100.628H126.203C128.467 100.628 130.165 98.786 130.165 96.5184V60.5202C130.307 58.2526 128.467 56.4102 126.344 56.4102ZM85.3076 88.2984V80.22H104.411V88.2984H85.3076ZM104.411 90.7077V98.2191H85.3076V90.7077H104.411ZM104.411 69.5906V77.669H85.3076V69.5906H104.411ZM85.3076 67.1813V58.8195H104.411V67.1813H85.3076ZM127.901 77.669H106.817V69.5906H127.901V77.669ZM82.902 77.669H62.3836V69.5906H82.7605V77.669H82.902ZM62.3836 80.22H82.7605V88.2984H62.3836V80.22ZM106.817 80.22H127.901V88.2984H106.817V80.22ZM127.901 60.5202V67.1813H106.817V58.8195H126.344C127.193 58.8195 127.901 59.5281 127.901 60.5202ZM63.9402 58.8195H82.7605V67.1813H62.3836V60.5202C62.3836 59.5281 63.0912 58.8195 63.9402 58.8195ZM62.3836 96.5184V90.7077H82.7605V98.2191H63.9402C63.0912 98.2191 62.3836 97.5105 62.3836 96.5184ZM126.344 98.2191H106.817V90.7077H127.901V96.5184C127.901 97.5105 127.193 98.2191 126.344 98.2191Z" fill="#E2E2E3"/>
  <g filter="url(#filter3_d_1_120052)">
    <path d="M122.24 58.3946C120.825 58.3946 117.429 57.119 116.297 56.6939C110.354 54.0011 100.59 46.0645 95.2128 46.0645C89.8356 46.0645 80.0716 53.8594 74.1284 56.6939C73.1378 57.119 69.6002 58.3946 68.1851 58.3946C65.921 58.5363 64.2229 60.5204 64.506 62.6463C65.072 67.8902 66.487 77.244 70.1662 89.2907C74.9774 104.172 88.279 113.101 93.3732 116.077C94.6468 116.785 96.0618 116.785 97.3354 116.077C102.43 113.101 115.731 104.172 120.259 89.2907C123.939 77.244 125.354 67.8902 125.92 62.6463C126.203 60.3787 124.505 58.3946 122.24 58.3946Z" fill="url(#paint2_linear_1_120052)"/>
  </g>
  <path d="M118.278 65.0556C117.854 68.457 117.005 73.7008 115.307 80.2202C115.024 81.354 114.741 82.6295 114.316 83.7633C114.033 84.8971 113.75 85.8892 113.326 87.023C109.788 98.361 100.024 105.447 95.213 108.282C95.213 108.282 95.213 108.282 95.0715 108.282C95.0715 108.282 95.0715 108.282 94.93 108.282C94.5054 107.998 94.0809 107.715 93.5149 107.431C88.4207 104.03 80.2133 97.3689 77.1002 87.1647C76.3926 84.7554 75.6851 82.4878 75.1191 80.2202C73.421 73.7008 72.572 68.457 72.1475 65.0556C74.5531 64.6304 77.2417 63.4966 77.8077 63.2131C79.9303 62.221 82.4774 60.6621 85.0245 59.1031C87.8546 57.4024 92.8074 54.2844 94.7885 54.001C94.7885 54.001 94.7885 54.001 94.93 54.001C94.93 54.001 94.93 54.001 95.0715 54.001C96.9111 54.001 102.147 57.2607 105.118 59.1031C107.666 60.6621 110.213 62.221 112.335 63.2131C113.184 63.4966 115.873 64.6304 118.278 65.0556Z" fill="url(#paint3_linear_1_120052)"/>
  <path d="M91.9582 59.1031L95.0714 54.001L116.58 75.5432L104.411 99.0696L97.3355 102.188L75.2605 80.2202L79.0812 76.8188L91.6752 59.5283L91.9582 59.1031Z" fill="url(#paint4_linear_1_120052)"/>
  <path d="M86.864 72.8504L76.5341 78.5195L75.2605 80.2202L95.7789 81.4957L95.2129 54.001L86.864 72.8504Z" fill="#E88654"/>
  <path d="M95.0713 54.001V80.0784H75.2605C73.5624 73.5591 72.7133 68.3152 72.2888 64.9138C74.6944 64.4887 77.383 63.3548 77.9491 63.0714C80.0717 62.0793 82.6188 60.5203 85.1659 58.9614C88.1375 57.4024 93.0902 54.2844 95.0713 54.001Z" fill="url(#paint5_linear_1_120052)"/>
  <path d="M115.307 80.2202C115.024 81.354 114.741 82.6295 114.316 83.7633C114.033 84.8972 113.75 85.8892 113.326 87.023C109.788 98.3611 100.024 105.447 95.2128 108.282C95.2128 108.282 95.2128 108.282 95.0713 108.282V80.2202H115.307Z" fill="url(#paint6_linear_1_120052)"/>
  <defs>
    <filter id="filter0_d_1_120052" x="49.1367" y="5.14014" width="135.575" height="155.437" filterUnits="userSpaceOnUse" color-interpolation-filters="sRGB">
      <feFlood flood-opacity="0" result="BackgroundImageFix"/>
      <feColorMatrix in="SourceAlpha" type="matrix" values="0 0 0 0 0 0 0 0 0 0 0 0 0 0 0 0 0 0 127 0" result="hardAlpha"/>
      <feOffset dy="11"/>
      <feGaussianBlur stdDeviation="11"/>
      <feColorMatrix type="matrix" values="0 0 0 0 0.397708 0 0 0 0 0.47749 0 0 0 0 0.575 0 0 0 0.18 0"/>
      <feBlend mode="normal" in2="BackgroundImageFix" result="effect1_dropShadow_1_120052"/>
      <feBlend mode="normal" in="SourceGraphic" in2="effect1_dropShadow_1_120052" result="shape"/>
    </filter>
    <filter id="filter1_d_1_120052" x="0.15332" y="12.2466" width="145.686" height="149.061" filterUnits="userSpaceOnUse" color-interpolation-filters="sRGB">
      <feFlood flood-opacity="0" result="BackgroundImageFix"/>
      <feColorMatrix in="SourceAlpha" type="matrix" values="0 0 0 0 0 0 0 0 0 0 0 0 0 0 0 0 0 0 127 0" result="hardAlpha"/>
      <feOffset dy="11"/>
      <feGaussianBlur stdDeviation="11"/>
      <feColorMatrix type="matrix" values="0 0 0 0 0.397708 0 0 0 0 0.47749 0 0 0 0 0.575 0 0 0 0.18 0"/>
      <feBlend mode="normal" in2="BackgroundImageFix" result="effect1_dropShadow_1_120052"/>
      <feBlend mode="normal" in="SourceGraphic" in2="effect1_dropShadow_1_120052" result="shape"/>
    </filter>
    <filter id="filter2_d_1_120052" x="25.3838" y="0.199707" width="136.969" height="163.758" filterUnits="userSpaceOnUse" color-interpolation-filters="sRGB">
      <feFlood flood-opacity="0" result="BackgroundImageFix"/>
      <feColorMatrix in="SourceAlpha" type="matrix" values="0 0 0 0 0 0 0 0 0 0 0 0 0 0 0 0 0 0 127 0" result="hardAlpha"/>
      <feOffset dy="11"/>
      <feGaussianBlur stdDeviation="11"/>
      <feColorMatrix type="matrix" values="0 0 0 0 0.397708 0 0 0 0 0.47749 0 0 0 0 0.575 0 0 0 0.18 0"/>
      <feBlend mode="normal" in2="BackgroundImageFix" result="effect1_dropShadow_1_120052"/>
      <feBlend mode="normal" in="SourceGraphic" in2="effect1_dropShadow_1_120052" result="shape"/>
    </filter>
    <filter id="filter3_d_1_120052" x="56.4751" y="43.0645" width="77.4753" height="86.5439" filterUnits="userSpaceOnUse" color-interpolation-filters="sRGB">
      <feFlood flood-opacity="0" result="BackgroundImageFix"/>
      <feColorMatrix in="SourceAlpha" type="matrix" values="0 0 0 0 0 0 0 0 0 0 0 0 0 0 0 0 0 0 127 0" result="hardAlpha"/>
      <feOffset dy="5"/>
      <feGaussianBlur stdDeviation="4"/>
      <feColorMatrix type="matrix" values="0 0 0 0 1 0 0 0 0 0.432 0 0 0 0 0.1125 0 0 0 0.22 0"/>
      <feBlend mode="normal" in2="BackgroundImageFix" result="effect1_dropShadow_1_120052"/>
      <feBlend mode="normal" in="SourceGraphic" in2="effect1_dropShadow_1_120052" result="shape"/>
    </filter>
    <linearGradient id="paint0_linear_1_120052" x1="36.8276" y1="127.446" x2="42.3937" y2="127.458" gradientUnits="userSpaceOnUse">
      <stop stop-color="#FF6931"/>
      <stop offset="1" stop-color="#FF9839"/>
    </linearGradient>
    <linearGradient id="paint1_linear_1_120052" x1="145.351" y1="6.7467" x2="149.804" y2="6.75575" gradientUnits="userSpaceOnUse">
      <stop stop-color="#FF6931"/>
      <stop offset="1" stop-color="#FF9839"/>
    </linearGradient>
    <linearGradient id="paint2_linear_1_120052" x1="65.0899" y1="78.2011" x2="125.543" y2="78.3082" gradientUnits="userSpaceOnUse">
      <stop stop-color="#FF6931"/>
      <stop offset="1" stop-color="#FF9839"/>
    </linearGradient>
    <linearGradient id="paint3_linear_1_120052" x1="111.956" y1="95.8117" x2="84.4966" y2="60.8975" gradientUnits="userSpaceOnUse">
      <stop stop-color="#E85912"/>
      <stop offset="1" stop-color="#E85912"/>
    </linearGradient>
    <linearGradient id="paint4_linear_1_120052" x1="88.6733" y1="66.1107" x2="100.604" y2="85.3028" gradientUnits="userSpaceOnUse">
      <stop stop-color="#E85912"/>
      <stop offset="1" stop-color="#F2B799" stop-opacity="0"/>
    </linearGradient>
    <linearGradient id="paint5_linear_1_120052" x1="72.3899" y1="67.1106" x2="95.1749" y2="67.1106" gradientUnits="userSpaceOnUse">
      <stop offset="0.0113208" stop-color="#F6A983"/>
      <stop offset="1" stop-color="white"/>
    </linearGradient>
    <linearGradient id="paint6_linear_1_120052" x1="107.987" y1="96.9346" x2="92.5177" y2="81.4895" gradientUnits="userSpaceOnUse">
      <stop offset="0.0113208" stop-color="#F6A983"/>
      <stop offset="1" stop-color="white"/>
    </linearGradient>
  </defs>
</svg>