<svg width="20" height="20" viewBox="0 0 20 20" fill="none" xmlns="http://www.w3.org/2000/svg">
  <g id="Sidebar icon/Homepage/Active">
    <path id="Vector" opacity="0.2"
      d="M10.4422 2.68282C10.3841 2.62471 10.3152 2.57861 10.2393 2.54715C10.1635 2.5157 10.0821 2.49951 10 2.49951C9.91787 2.49951 9.83654 2.5157 9.76066 2.54715C9.68479 2.57861 9.61586 2.62471 9.55781 2.68282L3.125 9.11641V16.875H8.125V11.875H11.875V16.875H16.875V9.11641L10.4422 2.68282Z" />
    <path id="Vector_2" d="M1.25 16.875H18.75" stroke="#716B95" stroke-width="1.3"
      stroke-linecap="round" stroke-linejoin="round" />
    <path id="Vector_3" d="M11.875 16.875V11.875H8.125V16.875" stroke="#716B95" stroke-width="1.3"
      stroke-linecap="round" stroke-linejoin="round" />
    <path id="Vector_4" d="M3.125 9.11621V16.8748" stroke="#716B95" stroke-width="1.3"
      stroke-linecap="round" stroke-linejoin="round" />
    <path id="Vector_5" d="M16.875 16.8748V9.11621" stroke="#716B95" stroke-width="1.3"
      stroke-linecap="round" stroke-linejoin="round" />
    <path id="Vector_6"
      d="M1.875 10.3664L9.55781 2.68282C9.61586 2.62471 9.68479 2.57861 9.76066 2.54715C9.83654 2.5157 9.91787 2.49951 10 2.49951C10.0821 2.49951 10.1635 2.5157 10.2393 2.54715C10.3152 2.57861 10.3841 2.62471 10.4422 2.68282L18.125 10.3664"
      stroke="#716B95" stroke-width="1.3" stroke-linecap="round" stroke-linejoin="round" />
  </g>
</svg>