<svg width="60" height="61" viewBox="0 0 60 61" fill="none" xmlns="http://www.w3.org/2000/svg">
    <rect y="0.5" width="60" height="60" rx="30" fill="#FDEEE7"/>
    <path d="M16.7259 32.9609C16.1401 29.7992 16.7022 26.5322 18.3109 23.7479C19.9195 20.9637 22.4692 18.8451 25.5009 17.7734V27.8984L16.7259 32.9609Z" fill="#F5B899" stroke="#E85912" stroke-width="2" stroke-linecap="round" stroke-linejoin="round"/>
    <path d="M30.0003 30.5591V17C32.3656 17.0004 34.6892 17.6221 36.7385 18.803C38.7879 19.9839 40.491 21.6826 41.6774 23.7288C42.8637 25.775 43.4916 28.097 43.4982 30.4622C43.5049 32.8274 42.89 35.1529 41.7151 37.2057C40.5402 39.2585 38.8466 40.9667 36.8039 42.159C34.7612 43.3514 32.4411 43.9862 30.0759 43.9998C27.7107 44.0134 25.3834 43.4053 23.3272 42.2365C21.2709 41.0677 19.5578 39.3792 18.3594 37.34L41.6919 23.75" stroke="#E85912" stroke-width="2" stroke-linecap="round" stroke-linejoin="round"/>
</svg>
