<svg width="65" height="64" viewBox="0 0 65 64" fill="none" xmlns="http://www.w3.org/2000/svg">
    <rect x="0.333008" width="64" height="64" rx="32" fill="#EAF8EE"/>
    <g clip-path="url(#clip0_9802_322422)">
        <path d="M45.0938 44.5H19.572C19.2647 44.5001 18.968 44.3878 18.7378 44.1843C18.5076 43.9809 18.3597 43.7003 18.322 43.3953L16.0954 24.6453C16.0748 24.4694 16.0918 24.2911 16.1454 24.1223C16.1989 23.9534 16.2877 23.7979 16.4059 23.6659C16.5241 23.534 16.669 23.4287 16.8309 23.357C16.9929 23.2853 17.1683 23.2488 17.3454 23.25H47.3204C47.4975 23.2488 47.6729 23.2853 47.8349 23.357C47.9968 23.4287 48.1417 23.534 48.2599 23.6659C48.3781 23.7979 48.4669 23.9534 48.5204 24.1223C48.574 24.2911 48.591 24.4694 48.5704 24.6453L46.3438 43.3953C46.3061 43.7003 46.1582 43.9809 45.928 44.1843C45.6977 44.3878 45.4011 44.5001 45.0938 44.5Z" stroke="#35A855" stroke-width="1.5" stroke-linecap="round" stroke-linejoin="round"/>
        <path d="M26.083 28.25V22C26.083 20.3424 26.7415 18.7527 27.9136 17.5806C29.0857 16.4085 30.6754 15.75 32.333 15.75C33.9906 15.75 35.5803 16.4085 36.7524 17.5806C37.9245 18.7527 38.583 20.3424 38.583 22V28.25" stroke="#35A855" stroke-width="1.5" stroke-linecap="round" stroke-linejoin="round"/>
    </g>
    <defs>
        <clipPath id="clip0_9802_322422">
            <rect width="40" height="40" fill="white" transform="translate(12.333 12)"/>
        </clipPath>
    </defs>
</svg>
