<svg width="65" height="64" viewBox="0 0 65 64" fill="none" xmlns="http://www.w3.org/2000/svg">
    <rect x="0.666748" width="64" height="64" rx="32" fill="#FDEEE7"/>
    <g clip-path="url(#clip0_9802_322410)">
        <path d="M32.6667 32L47.6667 17" stroke="#E85912" stroke-width="1.5" stroke-linecap="round" stroke-linejoin="round"/>
        <path d="M43.2731 21.394C40.6162 18.7434 37.0613 17.1865 33.3115 17.0314C29.5618 16.8762 25.8904 18.1341 23.0237 20.5562C20.1569 22.9782 18.3037 26.388 17.8305 30.111C17.3574 33.834 18.2988 37.599 20.4685 40.6612C22.6383 43.7233 25.8783 45.8596 29.5476 46.6473C33.217 47.4351 37.0483 46.8169 40.2837 44.9152C43.5192 43.0135 45.923 39.9666 47.0196 36.3775C48.1163 32.7884 47.8259 28.9183 46.2059 25.533" stroke="#E85912" stroke-width="1.5" stroke-linecap="round" stroke-linejoin="round"/>
        <path d="M37.9698 26.6969C36.7291 25.4577 35.0934 24.6925 33.3471 24.5341C31.6008 24.3757 29.8541 24.8342 28.4108 25.83C26.9674 26.8257 25.9186 28.2957 25.4465 29.9845C24.9745 31.6732 25.1091 33.474 25.827 35.0739C26.5449 36.6737 27.8006 37.9714 29.376 38.7415C30.9513 39.5116 32.7467 39.7053 34.4501 39.289C36.1535 38.8728 37.6572 37.8728 38.6998 36.463C39.7425 35.0531 40.2582 33.3225 40.1573 31.5719" stroke="#E85912" stroke-width="1.5" stroke-linecap="round" stroke-linejoin="round"/>
    </g>
    <defs>
        <clipPath id="clip0_9802_322410">
            <rect width="40" height="40" fill="white" transform="translate(12.6667 12)"/>
        </clipPath>
    </defs>
</svg>
