<svg width="163" height="140" viewBox="0 0 163 140" fill="none" xmlns="http://www.w3.org/2000/svg">
<path d="M38.9824 65.9456V139.047H1.99737C0.897696 139.047 0 138.15 0 137.05V40.7483L38.9824 65.9456Z" fill="#E28225"/>
<path d="M56.3984 53.0665V136.108C56.3984 137.634 57.6328 138.868 59.1364 138.868H93.1366C93.563 138.868 93.8997 138.531 93.8997 138.105V32.9624C93.8997 32.3791 93.2937 32.0201 92.7776 32.3117L56.78 52.4158C56.5331 52.5504 56.3984 52.7972 56.3984 53.0665Z" fill="#EF5C25"/>
<path d="M112.863 20.7338V136.938C112.863 138.037 113.761 138.935 114.861 138.935H150.656V0.495173C150.656 0.15861 150.297 -0.0433274 150.028 0.113735L112.886 20.7563L112.863 20.7338Z" fill="#EC3324"/>
<path d="M38.9825 139.047C38.7581 139.047 38.5337 139.002 38.3317 138.89C37.8379 138.643 37.5462 138.15 37.5462 137.589V66.3494L0.695775 41.9599C0.1796 41.6233 -0.0672667 40.995 0.0898301 40.4117C0.224484 39.8283 0.74066 39.3795 1.3466 39.3122L16.1586 37.7865C16.9441 37.7192 17.7296 37.8987 18.3804 38.325L48.9694 58.2271C49.1265 58.3168 49.2611 58.4514 49.3958 58.6309C49.3958 58.6309 49.4182 58.6758 49.4407 58.6758C49.5978 58.9226 49.6651 59.1919 49.6651 59.4836V129.78C49.6651 130.88 49.1489 131.912 48.2512 132.563L39.8353 138.778C39.5885 138.957 39.2743 139.069 38.9825 139.069V139.047ZM40.4413 66.3494V134.717L46.5456 130.207C46.6803 130.094 46.77 129.937 46.77 129.758V62.1312L40.4413 66.327V66.3494ZM5.65555 41.7804L38.9825 63.8364L45.5806 59.4611L16.8094 40.7482C16.8094 40.7482 16.585 40.6585 16.4503 40.6585L5.67799 41.7804H5.65555Z" fill="#E28225"/>
<path d="M93.5847 138.733C93.3603 138.733 93.1359 138.688 92.9339 138.576C92.4402 138.329 92.1484 137.835 92.1484 137.274L92.2606 33.5234C92.2606 33.0073 92.53 32.5361 92.9788 32.2669C93.4277 32.02 93.9663 31.9976 94.4151 32.2669L103.055 37.1807C104.133 37.7865 104.806 38.9532 104.806 40.1873V129.219C104.806 130.319 104.267 131.351 103.392 132.002L94.4376 138.464C94.1907 138.643 93.8989 138.733 93.5847 138.733ZM95.1333 36.0139L95.0211 134.447L101.664 129.623C101.799 129.534 101.888 129.376 101.888 129.197V40.1873C101.888 39.9854 101.776 39.8059 101.619 39.7161L95.1333 36.0364V36.0139Z" fill="#EF5C25"/>
<path d="M150.7 138.912C150.476 138.912 150.229 138.845 150.027 138.733C149.555 138.486 149.264 137.993 149.264 137.454V1.43772C149.264 0.854346 149.623 0.338283 150.139 0.113908C150.655 -0.110468 151.283 0.00172001 151.71 0.405596L161.54 9.87423C162.213 10.5249 162.594 11.4224 162.594 12.3648V129.332C162.594 130.476 162.033 131.531 161.091 132.181L151.53 138.688C151.283 138.845 150.992 138.935 150.722 138.935L150.7 138.912ZM152.136 4.84823V134.739L159.43 129.78C159.587 129.668 159.677 129.511 159.677 129.332V12.3648C159.677 12.2077 159.61 12.0731 159.52 11.9609L152.136 4.84823Z" fill="#EC3324"/>
</svg>
