<svg width="515" height="515" viewBox="0 0 515 515" fill="none" xmlns="http://www.w3.org/2000/svg">
    <g filter="url(#filter0_d_9003_81311)">
        <rect x="20" y="10" width="475" height="475" rx="237.5" fill="url(#paint0_linear_9003_81311)"/>
        <path d="M257 362.095C332.658 362.095 394 308.572 394 242.548C394 176.523 332.658 123 257 123C181.342 123 120 176.523 120 242.548C120 272.605 132.724 300.101 153.736 321.108C152.075 338.459 146.595 357.484 140.533 371.762C139.18 374.938 141.8 378.49 145.208 377.944C183.842 371.625 206.807 361.925 216.79 356.869C229.904 360.37 243.425 362.127 257 362.095Z" fill="white"/>
        <path d="M228.004 227.325L228.004 282C228.004 283.657 226.661 285 225.004 285L203.999 285C202.343 285 200.999 283.657 200.999 282L200.999 218.999C200.999 216.721 203.965 215.239 206.486 216.258L225.384 223.898C226.99 224.547 228.004 225.874 228.004 227.325Z" fill="url(#paint1_linear_9003_81311)"/>
        <path d="M284.25 211.74L284.25 282C284.25 283.657 285.593 285 287.25 285L309 285C310.657 285 312 283.657 312 282L312 202.277C312 200.586 309.714 199.487 307.772 200.243L286.941 208.35C285.292 208.992 284.25 210.304 284.25 211.74Z" fill="url(#paint2_linear_9003_81311)"/>
        <path d="M242.623 227.94L242.623 282C242.623 283.657 243.966 285 245.623 285L267.373 285C269.03 285 270.373 283.657 270.373 282L270.373 218.477C270.373 216.786 268.087 215.687 266.145 216.443L245.314 224.55C243.665 225.192 242.623 226.505 242.623 227.94Z" fill="url(#paint3_linear_9003_81311)"/>
    </g>
    <defs>
        <filter id="filter0_d_9003_81311" x="0" y="0" width="515" height="515" filterUnits="userSpaceOnUse" color-interpolation-filters="sRGB">
            <feFlood flood-opacity="0" result="BackgroundImageFix"/>
            <feColorMatrix in="SourceAlpha" type="matrix" values="0 0 0 0 0 0 0 0 0 0 0 0 0 0 0 0 0 0 127 0" result="hardAlpha"/>
            <feOffset dy="10"/>
            <feGaussianBlur stdDeviation="10"/>
            <feComposite in2="hardAlpha" operator="out"/>
            <feColorMatrix type="matrix" values="0 0 0 0 0 0 0 0 0 0 0 0 0 0 0 0 0 0 0.25 0"/>
            <feBlend mode="normal" in2="BackgroundImageFix" result="effect1_dropShadow_9003_81311"/>
            <feBlend mode="normal" in="SourceGraphic" in2="effect1_dropShadow_9003_81311" result="shape"/>
        </filter>
        <linearGradient id="paint0_linear_9003_81311" x1="226.164" y1="483.042" x2="226.327" y2="11.936" gradientUnits="userSpaceOnUse">
            <stop stop-color="#FF6931"/>
            <stop offset="1" stop-color="#FF9839"/>
        </linearGradient>
        <linearGradient id="paint1_linear_9003_81311" x1="214.506" y1="284.85" x2="193.531" y2="223.215" gradientUnits="userSpaceOnUse">
            <stop stop-color="#FF6931"/>
            <stop offset="1" stop-color="#FF9839"/>
        </linearGradient>
        <linearGradient id="paint2_linear_9003_81311" x1="298.13" y1="284.846" x2="268.527" y2="212.214" gradientUnits="userSpaceOnUse">
            <stop stop-color="#FF6931"/>
            <stop offset="1" stop-color="#FF9839"/>
        </linearGradient>
        <linearGradient id="paint3_linear_9003_81311" x1="256.503" y1="284.846" x2="236.125" y2="223.073" gradientUnits="userSpaceOnUse">
            <stop stop-color="#FF6931"/>
            <stop offset="1" stop-color="#FF9839"/>
        </linearGradient>
    </defs>
</svg>
