<svg width="34" height="17" viewBox="0 0 34 17" xmlns="http://www.w3.org/2000/svg">
    <g fill="none" fill-rule="evenodd">
        <path
                d="M.796 2.905A2 2 0 0 1 2.798.911h28.995a2 2 0 0 1 2.003 1.994v12.012a2 2 0 0 1-2.003 1.994H2.798a2 2 0 0 1-2.002-1.994V2.905z"
                fill="#D0011B"></path>
        <g fill="#fff">
            <path
                    d="M25.81 10.976h.002c0 .823.31 1.359.931 1.609v.002a.847.847 0 0 1-.63 1.572l-.002.003c-1.332-.464-1.998-1.51-1.998-3.141h.004V4.856a.846.846 0 0 1 1.693 0v6.12zM29.516 10.976h.003c0 .823.31 1.359.93 1.609v.002a.847.847 0 0 1-.63 1.572l-.002.003c-1.332-.464-1.998-1.51-1.998-3.141h.004V4.856a.846.846 0 1 1 1.693 0v6.12zM20.78 7.574c.011-.413.418-.82.918-.82.507 0 .918.418.918.837V13.3c0 .419-.41.826-.918.826-.446 0-.818-.315-.9-.676a3.57 3.57 0 0 1-2.215.768c-1.999 0-3.689-1.644-3.689-3.673 0-2.028 1.69-3.756 3.689-3.756.826 0 1.588.295 2.197.786zm-.08 2.919a2.074 2.074 0 1 0-4.146 0 2.072 2.072 0 1 0 4.145 0z"></path>
            <path
                    d="M3.8 4.645a.824.824 0 0 1 .55-.759c.478-.17.94.18 1.138.587.578 1.19 1.772 2.121 3.374 2.144 1.602.022 2.436-.96 3.057-2.124.215-.403.708-.835 1.277-.607.386.155.539.45.532.732.003.03.005.06.005.09v8.612a.846.846 0 1 1-1.693 0V7.02c-.86.813-1.891 1.333-3.206 1.311a5.477 5.477 0 0 1-3.346-1.237v6.225a.846.846 0 0 1-1.693 0V4.74c0-.032.002-.064.006-.096z"
                    fill-rule="nonzero"></path>
        </g>
    </g>
</svg>