<svg xmlns="http://www.w3.org/2000/svg" fill="none" viewBox="8 4.73 147 144.55">
  <path d="M155 77.0001C155 93.3587 149.522 108.528 140.344 120.722C135.311 127.265 129.241 133.065 122.284 137.527C111.033 144.962 97.5617 149.275 83.0542 149.275C43.2324 149.275 10.9604 116.856 10.9604 77.0001C10.9604 36.9961 43.2324 4.7251 82.9061 4.7251C97.4137 4.7251 110.885 9.03781 122.136 16.3248C129.093 20.7862 135.163 26.5861 140.196 33.1295C149.522 45.4728 155 60.4929 155 77.0001Z" fill="#EDEEF0"/>
  <path d="M15.7888 139.501C17.1212 139.501 18.3055 138.46 18.3055 136.972C18.3055 135.634 17.2692 134.444 15.7888 134.444C14.4565 134.444 13.2722 135.485 13.2722 136.972C13.2722 138.311 14.3085 139.501 15.7888 139.501Z" fill="url(#paint0_linear_1_120338)"/>
  <path d="M37.5668 25.545C38.8991 25.545 39.9354 24.504 39.9354 23.1656C39.9354 21.8271 38.8991 20.7861 37.5668 20.7861C36.2345 20.7861 35.1982 21.8271 35.1982 23.1656C35.1982 24.504 36.2345 25.545 37.5668 25.545Z" fill="url(#paint1_linear_1_120338)"/>
  <g filter="url(#filter0_d_1_120338)">
    <path d="M149.967 15.8786V136.337C149.967 138.419 147.598 139.46 146.118 137.973L143.601 135.593C142.713 134.701 141.233 134.701 140.345 135.593L135.607 140.204C134.719 141.096 133.239 141.096 132.351 140.204L127.613 135.593C126.725 134.701 125.245 134.701 124.357 135.593L119.619 140.204C118.731 141.096 117.251 141.096 116.363 140.204L111.626 135.593C110.737 134.701 109.257 134.701 108.369 135.593L103.78 140.204C102.891 141.096 101.411 141.096 100.523 140.204L95.7856 135.593C94.8974 134.701 93.417 134.701 92.5288 135.593L87.7917 140.204C86.9035 141.096 85.4231 141.096 84.5349 140.204L79.7977 135.593C78.9095 134.701 77.4291 134.701 76.5409 135.593L71.8037 140.204C70.9155 141.096 69.4352 141.096 68.5469 140.204L62.3294 133.958L61.8853 134.404L58.1844 137.973C56.704 139.46 54.3354 138.419 54.3354 136.337V15.8786C54.3354 13.7966 56.704 12.7556 58.1844 14.2427L60.701 16.6221C61.5892 17.5144 63.0696 17.5144 63.9578 16.6221L68.695 12.012C69.5832 11.1197 71.0636 11.1197 71.9518 12.012L76.6889 16.6221C77.5772 17.5144 79.0575 17.5144 79.9457 16.6221L84.6829 12.012C85.5711 11.1197 87.0515 11.1197 87.9397 12.012L92.6769 16.6221C93.5651 17.5144 95.0454 17.5144 95.9337 16.6221L100.671 12.012C101.559 11.1197 103.039 11.1197 103.928 12.012L108.517 16.6221C109.405 17.5144 110.885 17.5144 111.774 16.6221L116.511 12.012C117.399 11.1197 118.879 11.1197 119.768 12.012L124.505 16.6221C125.393 17.5144 126.873 17.5144 127.761 16.6221L132.499 12.012C133.387 11.1197 134.867 11.1197 135.755 12.012L140.493 16.6221C141.381 17.5144 142.861 17.5144 143.749 16.6221L146.266 14.2427C147.598 12.7556 149.967 13.7966 149.967 15.8786Z" fill="white"/>
  </g>
  <path d="M132.054 42.9447H121.692C120.656 42.9447 119.767 42.0524 119.767 41.0114C119.767 39.9704 120.656 39.0781 121.692 39.0781H132.054C133.091 39.0781 133.979 39.9704 133.979 41.0114C133.979 42.0524 133.091 42.9447 132.054 42.9447Z" fill="#DEDEDF"/>
  <path d="M112.218 42.9447H71.3595C70.3233 42.9447 69.4351 42.0524 69.4351 41.0114C69.4351 39.9704 70.3233 39.0781 71.3595 39.0781H112.218C113.254 39.0781 114.142 39.9704 114.142 41.0114C114.142 42.0524 113.254 42.9447 112.218 42.9447Z" fill="#DEDEDF"/>
  <path d="M132.055 61.3851H114.29C113.254 61.3851 112.366 60.4928 112.366 59.4518C112.366 58.4108 113.254 57.5186 114.29 57.5186H132.055C133.091 57.5186 133.979 58.4108 133.979 59.4518C133.979 60.4928 133.091 61.3851 132.055 61.3851Z" fill="#DEDEDF"/>
  <path d="M104.816 61.3851H86.6073C85.5711 61.3851 84.6829 60.4928 84.6829 59.4518C84.6829 58.4108 85.5711 57.5186 86.6073 57.5186H104.964C106 57.5186 106.888 58.4108 106.888 59.4518C106.888 60.4928 105.852 61.3851 104.816 61.3851Z" fill="#DEDEDF"/>
  <path d="M79.5015 61.3851H71.3595C70.3233 61.3851 69.4351 60.4928 69.4351 59.4518C69.4351 58.4108 70.3233 57.5186 71.3595 57.5186H79.5015C80.5378 57.5186 81.426 58.4108 81.426 59.4518C81.426 60.4928 80.5378 61.3851 79.5015 61.3851Z" fill="#4988FD"/>
  <path d="M101.707 79.9745H87.6437C86.6075 79.9745 85.7192 79.0822 85.7192 78.0412C85.7192 77.0002 86.6075 76.1079 87.6437 76.1079H101.707C102.743 76.1079 103.632 77.0002 103.632 78.0412C103.632 79.0822 102.743 79.9745 101.707 79.9745Z" fill="#DEDEDF"/>
  <path d="M80.0937 79.9745H71.3595C70.3233 79.9745 69.4351 79.0822 69.4351 78.0412C69.4351 77.0002 70.3233 76.1079 71.3595 76.1079H80.0937C81.1299 76.1079 82.0181 77.0002 82.0181 78.0412C82.0181 79.0822 81.1299 79.9745 80.0937 79.9745Z" fill="#4988FD"/>
  <path d="M101.707 98.4149H71.3595C70.3233 98.4149 69.4351 97.5226 69.4351 96.4816C69.4351 95.4406 70.3233 94.5483 71.3595 94.5483H101.707C102.743 94.5483 103.631 95.4406 103.631 96.4816C103.631 97.5226 102.743 98.4149 101.707 98.4149Z" fill="#DEDEDF"/>
  <path d="M101.707 113.138C91.0482 113.138 82.018 113.138 71.3594 113.138C68.8428 113.138 68.8428 116.856 71.3594 116.856C83.0543 116.856 90.16 116.856 101.707 116.856C102.743 116.856 103.631 115.963 103.631 114.922C103.631 113.881 102.743 113.138 101.707 113.138Z" fill="#DEDEDF"/>
  <path d="M126.429 118.938C124.949 118.938 123.765 117.748 123.765 116.261V113.435C121.544 113.286 119.472 112.692 117.695 111.948C116.363 111.353 115.771 109.866 116.215 108.379C116.659 107.189 117.695 106.446 118.88 106.446C119.324 106.446 119.62 106.594 120.064 106.743C121.248 107.338 123.173 107.933 125.541 107.933C128.798 107.933 131.019 106.148 131.019 103.62C131.019 101.241 129.39 99.7534 125.541 98.1175C120.656 96.1843 116.215 93.6561 116.215 88.005C116.215 83.3948 119.324 79.677 124.209 78.636V75.6617C124.209 74.1746 125.393 72.9849 126.874 72.9849C128.354 72.9849 129.538 74.1746 129.538 75.6617V78.3386C131.315 78.4873 132.795 78.7847 134.275 79.3796C135.608 79.9744 136.348 81.6103 135.756 82.9487C135.312 83.9897 134.275 84.7333 133.091 84.7333C132.647 84.7333 132.351 84.7333 132.055 84.5846C130.574 83.9897 129.094 83.6923 127.466 83.6923C123.913 83.6923 122.728 85.6256 122.728 87.4101C122.728 89.4921 124.061 90.6818 128.798 92.6151C135.016 95.1433 137.68 98.415 137.68 103.323C137.68 108.23 134.275 112.097 129.242 113.138V116.261C129.094 117.748 127.91 118.938 126.429 118.938Z" fill="#DEDEDF"/>
  <g filter="url(#filter1_d_1_120338)">
    <path d="M88.3837 56.4776V99.6047C88.3837 102.282 86.3112 104.364 83.6466 104.364H12.7372C10.0725 104.364 8 102.282 8 99.6047V56.4776C8 53.8007 10.0725 51.7188 12.7372 51.7188H83.6466C86.3112 51.7188 88.3837 53.9495 88.3837 56.4776Z" fill="url(#paint2_linear_1_120338)"/>
  </g>
  <path d="M27.2448 81.6102H16.2901C15.4019 81.6102 14.5137 80.8666 14.5137 79.8256C14.5137 78.9333 15.2539 78.041 16.2901 78.041H27.2448C28.133 78.041 29.0212 78.7846 29.0212 79.8256C28.8732 80.8666 28.133 81.6102 27.2448 81.6102Z" fill="#EB4401"/>
  <path d="M45.009 81.6102H34.0543C33.166 81.6102 32.2778 80.8666 32.2778 79.8256C32.2778 78.9333 33.018 78.041 34.0543 78.041H45.009C45.8972 78.041 46.7854 78.7846 46.7854 79.8256C46.6374 80.8666 45.8972 81.6102 45.009 81.6102Z" fill="#EB4401"/>
  <path d="M62.7734 81.6102H51.8187C50.9305 81.6102 50.0422 80.8666 50.0422 79.8256C50.0422 78.9333 50.7824 78.041 51.8187 78.041H62.7734C63.6616 78.041 64.5498 78.7846 64.5498 79.8256C64.4018 80.8666 63.6616 81.6102 62.7734 81.6102Z" fill="#EB4401"/>
  <path d="M80.5379 94.9944H60.2569C59.3687 94.9944 58.4805 94.2509 58.4805 93.2099C58.4805 92.3176 59.2206 91.4253 60.2569 91.4253H80.3898C81.2781 91.4253 82.1663 92.1689 82.1663 93.2099C82.1663 94.2509 81.4261 94.9944 80.5379 94.9944Z" fill="#EB4401"/>
  <path d="M80.5378 81.6102H69.5831C68.6949 81.6102 67.8066 80.8666 67.8066 79.8256C67.8066 78.9333 68.5468 78.041 69.5831 78.041H80.5378C81.426 78.041 82.3142 78.7846 82.3142 79.8256C82.1662 80.8666 81.426 81.6102 80.5378 81.6102Z" fill="#EB4401"/>
  <path d="M26.0604 98.1173C28.6767 98.1173 30.7976 95.9867 30.7976 93.3585C30.7976 90.7302 28.6767 88.5996 26.0604 88.5996C23.4441 88.5996 21.3232 90.7302 21.3232 93.3585C21.3232 95.9867 23.4441 98.1173 26.0604 98.1173Z" fill="#EB4401"/>
  <path d="M19.6949 98.1173C22.3112 98.1173 24.4321 95.9867 24.4321 93.3585C24.4321 90.7302 22.3112 88.5996 19.6949 88.5996C17.0787 88.5996 14.9578 90.7302 14.9578 93.3585C14.9578 95.9867 17.0787 98.1173 19.6949 98.1173Z" fill="#FB5715"/>
  <path d="M88.3837 60.4927H8V70.6052H88.3837V60.4927Z" fill="#EB4401"/>
  <defs>
    <filter id="filter0_d_1_120338" x="32.3354" y="0.342773" width="139.632" height="173.53" filterUnits="userSpaceOnUse" color-interpolation-filters="sRGB">
      <feFlood flood-opacity="0" result="BackgroundImageFix"/>
      <feColorMatrix in="SourceAlpha" type="matrix" values="0 0 0 0 0 0 0 0 0 0 0 0 0 0 0 0 0 0 127 0" result="hardAlpha"/>
      <feOffset dy="11"/>
      <feGaussianBlur stdDeviation="11"/>
      <feColorMatrix type="matrix" values="0 0 0 0 0.397708 0 0 0 0 0.47749 0 0 0 0 0.575 0 0 0 0.18 0"/>
      <feBlend mode="normal" in2="BackgroundImageFix" result="effect1_dropShadow_1_120338"/>
      <feBlend mode="normal" in="SourceGraphic" in2="effect1_dropShadow_1_120338" result="shape"/>
    </filter>
    <filter id="filter1_d_1_120338" x="0" y="48.7188" width="96.3838" height="68.645" filterUnits="userSpaceOnUse" color-interpolation-filters="sRGB">
      <feFlood flood-opacity="0" result="BackgroundImageFix"/>
      <feColorMatrix in="SourceAlpha" type="matrix" values="0 0 0 0 0 0 0 0 0 0 0 0 0 0 0 0 0 0 127 0" result="hardAlpha"/>
      <feOffset dy="5"/>
      <feGaussianBlur stdDeviation="4"/>
      <feColorMatrix type="matrix" values="0 0 0 0 1 0 0 0 0 0.5385 0 0 0 0 0.1125 0 0 0 0.22 0"/>
      <feBlend mode="normal" in2="BackgroundImageFix" result="effect1_dropShadow_1_120338"/>
      <feBlend mode="normal" in="SourceGraphic" in2="effect1_dropShadow_1_120338" result="shape"/>
    </filter>
    <linearGradient id="paint0_linear_1_120338" x1="13.3225" y1="136.748" x2="18.2721" y2="136.758" gradientUnits="userSpaceOnUse">
      <stop stop-color="#FF6931"/>
      <stop offset="1" stop-color="#FF9839"/>
    </linearGradient>
    <linearGradient id="paint1_linear_1_120338" x1="35.2456" y1="22.9541" x2="39.904" y2="22.9635" gradientUnits="userSpaceOnUse">
      <stop stop-color="#FF6931"/>
      <stop offset="1" stop-color="#FF9839"/>
    </linearGradient>
    <linearGradient id="paint2_linear_1_120338" x1="8.80384" y1="75.7014" x2="87.8507" y2="75.9469" gradientUnits="userSpaceOnUse">
      <stop stop-color="#FF6931"/>
      <stop offset="1" stop-color="#FF9839"/>
    </linearGradient>
  </defs>
</svg>