<svg xmlns="http://www.w3.org/2000/svg" width="16" height="16" viewBox="0 0 16 16" fill="none">
    <g clip-path="url(#clip0_10142_330154)">
        <path d="M8 8.06836V14.4984" stroke="#716B95" stroke-linecap="round" stroke-linejoin="round"/>
        <path d="M2.04688 4.80664L8.00313 8.06664L13.9594 4.80664" stroke="#716B95" stroke-linecap="round" stroke-linejoin="round"/>
        <path d="M13.74 11.4283L8.24 14.4396C8.16641 14.4798 8.08388 14.5009 8 14.5009C7.91612 14.5009 7.83359 14.4798 7.76 14.4396L2.26 11.4283C2.18147 11.3853 2.11591 11.3221 2.07017 11.2451C2.02444 11.1682 2.0002 11.0803 2 10.9908V5.01207C2.0002 4.92255 2.02444 4.83472 2.07017 4.75776C2.11591 4.68081 2.18147 4.61754 2.26 4.57457L7.76 1.56332C7.83359 1.52306 7.91612 1.50195 8 1.50195C8.08388 1.50195 8.16641 1.52306 8.24 1.56332L13.74 4.57457C13.8185 4.61754 13.8841 4.68081 13.9298 4.75776C13.9756 4.83472 13.9998 4.92255 14 5.01207V10.9896C14 11.0793 13.9759 11.1674 13.9301 11.2446C13.8844 11.3218 13.8187 11.3852 13.74 11.4283Z" stroke="#716B95" stroke-linecap="round" stroke-linejoin="round"/>
        <path d="M5.09375 3.01953L10.9963 6.25016V9.50016" stroke="#716B95" stroke-width="1.3" stroke-linecap="round" stroke-linejoin="round"/>
    </g>
    <defs>
        <clipPath id="clip0_10142_330154">
            <rect width="16" height="16" fill="white"/>
        </clipPath>
    </defs>
</svg>