<svg width="16" height="16" viewBox="0 0 16 16" fill="none" xmlns="http://www.w3.org/2000/svg">
    <g clip-path="url(#clip0_5103_123730)">
        <path d="M3 11.5V4.5" stroke="#716B95" stroke-width="1.3" stroke-linecap="round" stroke-linejoin="round"/>
        <path d="M13 4.5V11.5" stroke="#716B95" stroke-width="1.3" stroke-linecap="round" stroke-linejoin="round"/>
        <path d="M6 8V9" stroke="#716B95" stroke-width="1.3" stroke-linecap="round" stroke-linejoin="round"/>
        <path d="M8 7.5V9" stroke="#716B95" stroke-width="1.3" stroke-linecap="round" stroke-linejoin="round"/>
        <path d="M10 7V9" stroke="#716B95" stroke-width="1.3" stroke-linecap="round" stroke-linejoin="round"/>
        <path d="M13.5 2.5H2.5C2.22386 2.5 2 2.72386 2 3V4C2 4.27614 2.22386 4.5 2.5 4.5H13.5C13.7761 4.5 14 4.27614 14 4V3C14 2.72386 13.7761 2.5 13.5 2.5Z" stroke="#716B95" stroke-width="1.3" stroke-linecap="round" stroke-linejoin="round"/>
        <path d="M8 11.5V13.5" stroke="#716B95" stroke-width="1.3" stroke-linecap="round" stroke-linejoin="round"/>
        <path d="M8 15.5C8.55228 15.5 9 15.0523 9 14.5C9 13.9477 8.55228 13.5 8 13.5C7.44772 13.5 7 13.9477 7 14.5C7 15.0523 7.44772 15.5 8 15.5Z" stroke="#716B95" stroke-width="1.3" stroke-linecap="round" stroke-linejoin="round"/>
        <path d="M2 11.5H14" stroke="#716B95" stroke-width="1.3" stroke-linecap="round" stroke-linejoin="round"/>
    </g>
    <defs>
        <clipPath id="clip0_5103_123730">
            <rect width="16" height="16" fill="white"/>
        </clipPath>
    </defs>
</svg>
