<svg xmlns="http://www.w3.org/2000/svg" fill="none" viewBox="22.45 0.46 160.55 153.09">
  <path d="M36.3681 32.5596C39.0723 32.5596 41.2645 30.3661 41.2645 27.6604C41.2645 24.9547 39.0723 22.7612 36.3681 22.7612C33.664 22.7612 31.4718 24.9547 31.4718 27.6604C31.4718 30.3661 33.664 32.5596 36.3681 32.5596Z" fill="#EAEBEE"/>
  <path d="M170.373 47.5146C173.077 47.5146 175.269 45.3212 175.269 42.6155C175.269 39.9097 173.077 37.7163 170.373 37.7163C167.669 37.7163 165.477 39.9097 165.477 42.6155C165.477 45.3212 167.669 47.5146 170.373 47.5146Z" fill="#EAEEF9"/>
  <path d="M46.2898 15.9283C47.3572 15.9283 48.2225 15.0625 48.2225 13.9944C48.2225 12.9264 47.3572 12.0605 46.2898 12.0605C45.2223 12.0605 44.357 12.9264 44.357 13.9944C44.357 15.0625 45.2223 15.9283 46.2898 15.9283Z" fill="url(#paint0_linear_1_120533)"/>
  <path d="M164.704 26.7579C165.842 26.7579 166.765 25.8344 166.765 24.6951C166.765 23.5559 165.842 22.6323 164.704 22.6323C163.565 22.6323 162.642 23.5559 162.642 24.6951C162.642 25.8344 163.565 26.7579 164.704 26.7579Z" fill="url(#paint1_linear_1_120533)"/>
  <path d="M102.34 142.275C141.479 142.275 173.208 110.528 173.208 71.366C173.208 32.2041 141.479 0.457031 102.34 0.457031C63.2005 0.457031 31.4718 32.2041 31.4718 71.366C31.4718 110.528 63.2005 142.275 102.34 142.275Z" fill="#EAEBEE"/>
  <g filter="url(#filter0_d_1_120533)">
    <path d="M122.183 111.978L60.5923 136.86C59.5614 137.247 58.4018 136.731 58.0152 135.829L22.5813 47.7727C22.1947 46.7413 22.7101 45.5809 23.6121 45.1942L85.2028 20.3116C86.2336 19.9248 87.3932 20.4405 87.7798 21.343L123.214 109.27C123.729 110.43 123.214 111.591 122.183 111.978Z" fill="white"/>
  </g>
  <path d="M94.9952 59.8919L43.4549 80.6489C42.9395 80.9068 42.4241 80.6489 42.1664 80.1332C41.9087 79.6175 42.1664 79.1018 42.6818 78.844L94.0933 58.087C94.6087 57.8291 95.1241 58.087 95.3818 58.6027C95.6395 59.1184 95.3818 59.6341 94.9952 59.8919Z" fill="#DEDEDF"/>
  <path d="M96.9281 64.9198L45.5166 85.6768C45.0012 85.9346 44.4858 85.6768 44.2281 85.1611C43.9704 84.6454 44.2281 84.1297 44.7435 83.8718L96.155 63.1148C96.6704 62.857 97.1858 63.1148 97.4435 63.6305C97.7012 64.1462 97.4435 64.6619 96.9281 64.9198Z" fill="#DEDEDF"/>
  <path d="M98.9899 69.8192L47.5784 90.7051C47.063 90.9629 46.5476 90.7051 46.2899 90.1894C46.0322 89.6737 46.2899 89.158 46.8053 88.9001L98.2167 68.1431C98.7322 67.8853 99.2476 68.1431 99.5053 68.6589C99.763 69.0456 99.5053 69.6903 98.9899 69.8192Z" fill="#DEDEDF"/>
  <path d="M68.9677 87.8685L49.6401 95.733C49.1247 95.9908 48.6093 95.733 48.3516 95.2173C48.0939 94.7016 48.3516 94.1859 48.867 93.928L68.1946 86.0636C68.71 85.8057 69.2254 86.0636 69.4831 86.5793C69.612 87.095 69.4831 87.6107 68.9677 87.8685Z" fill="#DEDEDF"/>
  <path opacity="0.3" d="M105.69 82.5823L107.365 86.8369C107.623 87.6104 107.365 88.5129 106.592 88.7708L55.6959 109.399C54.9228 109.657 54.0209 109.399 53.7632 108.625L52.0881 104.242C51.8304 103.468 52.0881 102.566 52.8612 102.308L103.757 81.8088C104.53 81.5509 105.303 81.9377 105.69 82.5823Z" fill="#DFDFDF"/>
  <path opacity="0.3" d="M109.684 92.3807L111.359 96.6352C111.617 97.4088 111.359 98.3113 110.586 98.5691L59.6902 119.197C58.9171 119.455 58.0152 119.197 57.7575 118.424L55.9536 114.04C55.6959 113.267 55.9536 112.364 56.7267 112.106L107.623 91.6071C108.396 91.3493 109.298 91.7361 109.684 92.3807Z" fill="#DFDFDF"/>
  <path opacity="0.3" d="M113.55 102.179L115.225 106.434C115.483 107.207 115.225 108.11 114.452 108.368L63.5558 128.996C62.7827 129.254 61.8807 128.996 61.623 128.222L59.948 123.968C59.6903 123.194 59.948 122.292 60.7211 122.034L111.617 101.535C112.39 101.148 113.292 101.535 113.55 102.179Z" fill="#DFDFDF"/>
  <path d="M58.1441 100.245L60.9788 107.336L55.6959 109.399C54.9228 109.657 54.0209 109.399 53.7632 108.625L52.0881 104.242C51.8304 103.468 52.0881 102.566 52.8612 102.308L58.1441 100.245Z" fill="#CFCFCF"/>
  <path d="M56.8557 112.106L72.3178 105.789L75.1525 112.88L59.6904 119.197C58.9173 119.455 58.0153 119.197 57.7576 118.424L55.9537 114.04C55.696 113.396 56.0826 112.493 56.8557 112.106Z" fill="#CFCFCF"/>
  <path d="M60.7211 121.905L62.9115 121.002L65.7462 128.093L63.5558 128.996C62.7827 129.254 61.8807 128.996 61.623 128.222L59.948 123.968C59.6903 123.194 59.948 122.292 60.7211 121.905Z" fill="#CFCFCF"/>
  <path d="M61.4941 55.5083C61.3653 48.4174 55.567 42.6157 48.3513 42.6157H48.2225C41.0068 42.6157 35.2086 48.5463 35.2086 55.7661C35.3374 62.9859 41.2645 68.7876 48.4802 68.7876C52.4746 68.7876 55.9535 66.9826 58.4017 64.2752C60.4633 61.9545 61.623 58.9892 61.623 55.6372C61.4941 55.6372 61.4941 55.6372 61.4941 55.5083ZM48.4802 64.662C43.5839 64.662 39.5895 60.6653 39.5895 55.7661C39.5895 50.8669 43.5839 46.8703 48.4802 46.8703H48.609C53.5054 46.8703 57.3709 50.738 57.4997 55.5083C57.4997 55.6372 57.4997 55.6372 57.4997 55.7661C57.4997 57.9578 56.7266 60.0206 55.3093 61.5678C53.5054 63.5016 51.1861 64.662 48.4802 64.662Z" fill="#DEDEDF"/>
  <path d="M61.4943 55.5083H57.2422C57.2422 50.738 53.2478 46.8703 48.4804 46.8703H48.3515V42.6157H48.4804C55.5671 42.6157 61.3654 48.4174 61.4943 55.5083Z" fill="#CFCFCF"/>
  <g filter="url(#filter1_d_1_120533)">
    <path d="M147.309 131.961L85.074 108.754C84.0432 108.367 83.5278 107.207 83.9143 106.175L116.9 17.3459C117.287 16.3145 118.446 15.7988 119.477 16.1855L181.712 39.2632C182.743 39.65 183.258 40.8103 182.872 41.8417L149.886 130.8C149.499 131.832 148.34 132.347 147.309 131.961Z" fill="white"/>
  </g>
  <path opacity="0.4" d="M139.063 56.1524L134.038 54.2185L138.161 42.7441L143.186 44.5491L139.063 56.1524Z" fill="#F2F2F2"/>
  <path d="M145.892 58.602L140.738 56.6681L147.051 39.1343L152.076 41.0682L145.892 58.602Z" fill="#CFCFCF"/>
  <path d="M159.421 63.3723L154.396 61.5674L162.642 38.4897L167.796 40.2947L159.421 63.3723Z" fill="#CFCFCF"/>
  <path opacity="0.4" d="M165.864 65.6931L160.838 63.8881L163.029 57.5708L168.183 59.5047L165.864 65.6931Z" fill="#F2F2F2"/>
  <path d="M162.256 75.1044L110.2 55.7656C109.685 55.6366 109.427 54.992 109.556 54.4763C109.685 53.9606 110.329 53.7028 110.844 53.8317L162.9 73.1705C163.416 73.2994 163.673 73.944 163.544 74.4597C163.287 74.9754 162.771 75.2333 162.256 75.1044Z" fill="#DEDEDF"/>
  <path d="M160.323 80.1327L108.267 60.7939C107.752 60.665 107.494 60.0203 107.623 59.5046C107.752 58.9889 108.396 58.7311 108.911 58.86L160.967 78.1988C161.483 78.3277 161.74 78.9724 161.611 79.4881C161.483 80.0038 160.838 80.3905 160.323 80.1327Z" fill="#DEDEDF"/>
  <path d="M158.519 85.1605L106.463 65.8217C105.948 65.6928 105.69 65.0482 105.819 64.5325C105.948 64.0168 106.592 63.7589 107.108 63.8878L159.163 83.2266C159.679 83.3556 159.937 84.0002 159.808 84.5159C159.55 85.1605 159.035 85.4184 158.519 85.1605Z" fill="#DEDEDF"/>
  <path d="M124.245 78.1988L104.659 70.9789C104.144 70.85 103.886 70.2054 104.015 69.6897C104.144 69.174 104.788 68.9161 105.304 69.0451L124.889 76.2649C125.404 76.3938 125.662 77.0384 125.533 77.5541C125.276 78.0698 124.76 78.3277 124.245 78.1988Z" fill="#DDDDDD"/>
  <path opacity="0.3" d="M154.911 99.0846L153.365 103.468C153.108 104.242 152.206 104.628 151.432 104.371L140.351 100.245L99.8921 85.1607C99.119 84.9029 98.7325 84.0004 98.9902 83.2268L100.536 78.8434C100.794 78.0698 101.696 77.683 102.469 77.9409L142.671 92.8962L153.881 97.0218C154.783 97.5375 155.169 98.3111 154.911 99.0846Z" fill="#DFDFDF"/>
  <path opacity="0.3" d="M151.175 109.012L149.628 113.395C149.371 114.169 148.469 114.556 147.696 114.298L143.959 112.88L96.2841 95.2169C95.511 94.959 95.1244 94.0565 95.3821 93.283L96.9284 88.8995C97.1861 88.126 98.088 87.7392 98.8611 87.997L146.665 105.789L150.273 107.207C151.046 107.465 151.432 108.238 151.175 109.012Z" fill="#DFDFDF"/>
  <path opacity="0.3" d="M147.567 118.939L146.02 123.323C145.763 124.096 144.861 124.483 144.088 124.225L125.018 117.134L92.6761 105.144C91.903 104.886 91.5164 103.984 91.7741 103.21L93.3203 98.8268C93.578 98.0532 94.48 97.6664 95.2531 97.9243L128.368 110.172L146.665 117.005C147.438 117.263 147.824 118.166 147.567 118.939Z" fill="#DFDFDF"/>
  <path d="M95.2531 97.924L128.368 110.172L125.018 117.005L92.6761 105.015C91.903 104.757 91.5164 103.855 91.7741 103.081L93.3203 98.6976C93.578 98.053 94.48 97.6662 95.2531 97.924Z" fill="#C9CACC"/>
  <path d="M98.9902 83.3557L100.536 78.9723C100.794 78.1987 101.696 77.8119 102.469 78.0698L142.671 93.0251L140.094 100.116L99.8921 85.1607C99.119 84.9028 98.7325 84.1293 98.9902 83.3557Z" fill="#C9CACC"/>
  <path d="M146.665 105.789L143.959 112.88L96.2841 95.2169C95.511 94.959 95.1244 94.0565 95.3821 93.283L96.9284 88.8995C97.1861 88.126 98.088 87.7392 98.8611 87.997L146.665 105.789Z" fill="#C9CACC"/>
  <path d="M112.133 81.6797L109.556 88.7706L99.8921 85.1607C99.119 84.9029 98.7325 84.0004 98.9902 83.2268L100.536 78.8434C100.794 78.0698 101.696 77.683 102.469 77.9409L112.133 81.6797Z" fill="#DDDDDD"/>
  <path d="M98.8611 87.9973L108.525 91.6072L105.948 98.6981L96.2841 95.0882C95.511 94.8303 95.1244 93.9278 95.3821 93.1543L96.9284 88.7708C97.3149 88.1262 98.088 87.7394 98.8611 87.9973Z" fill="#DDDDDD"/>
  <path d="M95.2531 97.924L104.917 101.534L102.34 108.625L92.6761 105.015C91.903 104.757 91.5164 103.855 91.7741 103.081L93.3203 98.6976C93.578 98.053 94.48 97.6662 95.2531 97.924Z" fill="#DDDDDD"/>
  <g filter="url(#filter2_d_1_120533)">
    <path d="M136.228 110.43H69.8697C68.8388 110.43 67.9369 109.528 67.9369 108.496V13.6072C67.9369 12.5758 68.8388 11.6733 69.8697 11.6733H136.228C137.259 11.6733 138.161 12.5758 138.161 13.6072V108.367C138.289 109.528 137.387 110.43 136.228 110.43Z" fill="white"/>
  </g>
  <path d="M130.429 48.1583H75.0234C74.508 48.1583 73.9926 47.7717 73.9926 47.1275C73.9926 46.6121 74.3792 46.0967 75.0234 46.0967H130.429C130.945 46.0967 131.46 46.4832 131.46 47.1275C131.46 47.6429 130.945 48.1583 130.429 48.1583Z" fill="#DEDEDF"/>
  <path d="M130.429 53.4439H75.0234C74.508 53.4439 73.9926 53.0574 73.9926 52.4131C73.9926 51.8977 74.3792 51.3823 75.0234 51.3823H130.429C130.945 51.3823 131.46 51.7689 131.46 52.4131C131.46 53.0574 130.945 53.4439 130.429 53.4439Z" fill="#DEDEDF"/>
  <path d="M130.429 58.8585H75.0234C74.508 58.8585 73.9926 58.4719 73.9926 57.8277C73.9926 57.3123 74.3792 56.7969 75.0234 56.7969H130.429C130.945 56.7969 131.46 57.1834 131.46 57.8277C131.46 58.4719 130.945 58.8585 130.429 58.8585Z" fill="#DEDEDF"/>
  <path d="M130.301 79.1002H111.617C111.102 79.1002 110.586 78.7136 110.586 78.0694C110.586 77.554 110.973 77.0386 111.617 77.0386H130.301C130.816 77.0386 131.331 77.4251 131.331 78.0694C131.203 78.5848 130.816 79.1002 130.301 79.1002Z" fill="#DEDEDF"/>
  <path d="M100.15 84.645C100.021 77.5541 94.2224 71.7524 87.0067 71.7524H86.8779C79.6622 71.7524 73.864 77.683 73.864 84.9028C73.864 92.1227 79.7911 98.0532 87.0067 98.0532C91.0011 98.0532 94.4801 96.2483 96.9282 93.5408C98.9899 91.2202 100.15 88.2549 100.15 84.9028C100.15 84.7739 100.15 84.645 100.15 84.645ZM87.0067 93.6698C82.1104 93.6698 78.116 89.6731 78.116 84.7739C78.116 79.8747 82.1104 75.8781 87.0067 75.8781H87.1356C92.0319 75.8781 95.8974 79.7458 96.0263 84.5161C96.0263 84.645 96.0263 84.645 96.0263 84.7739C96.0263 86.9656 95.2532 89.0284 93.8358 90.5756C92.0319 92.5094 89.7126 93.6698 87.0067 93.6698Z" fill="#F2F2F2"/>
  <path d="M100.149 84.645H95.8974C95.7685 79.8747 91.903 76.007 87.0067 76.007H86.8778V71.7524H87.0067C94.2223 71.7524 100.021 77.4252 100.149 84.645Z" fill="#C2C2C2"/>
  <path d="M100.15 84.7739C100.15 88.126 98.99 91.0913 96.9284 93.4119L93.7072 90.7045C95.1245 89.1574 95.8976 87.0946 95.8976 84.9029C95.8976 84.7739 95.8976 84.7739 95.8976 84.645H100.15V84.7739Z" fill="#DEDEDF"/>
  <path d="M107.108 79.4882C107.89 79.4882 108.525 78.8533 108.525 78.07C108.525 77.2868 107.89 76.6519 107.108 76.6519C106.325 76.6519 105.69 77.2868 105.69 78.07C105.69 78.8533 106.325 79.4882 107.108 79.4882Z" fill="#F2F2F2"/>
  <path d="M130.301 85.0308H111.617C111.102 85.0308 110.586 84.6443 110.586 84C110.586 83.4846 110.973 82.9692 111.617 82.9692H130.301C130.816 82.9692 131.331 83.3558 131.331 84C131.203 84.5154 130.816 85.0308 130.301 85.0308Z" fill="#DEDEDF"/>
  <path d="M107.108 85.4189C107.89 85.4189 108.525 84.7839 108.525 84.0007C108.525 83.2175 107.89 82.5825 107.108 82.5825C106.325 82.5825 105.69 83.2175 105.69 84.0007C105.69 84.7839 106.325 85.4189 107.108 85.4189Z" fill="#DEDEDF"/>
  <path d="M130.301 90.961H111.617C111.102 90.961 110.586 90.5745 110.586 89.9302C110.586 89.4148 110.973 88.8994 111.617 88.8994H130.301C130.816 88.8994 131.331 89.286 131.331 89.9302C131.203 90.4456 130.816 90.961 130.301 90.961Z" fill="#DEDEDF"/>
  <path d="M107.108 91.349C107.89 91.349 108.525 90.7141 108.525 89.9309C108.525 89.1476 107.89 88.5127 107.108 88.5127C106.325 88.5127 105.69 89.1476 105.69 89.9309C105.69 90.7141 106.325 91.349 107.108 91.349Z" fill="#C2C2C2"/>
  <g filter="url(#filter3_d_1_120533)">
    <path d="M129.602 132.533C126.697 146.734 112.605 156.008 98.3689 152.965C84.1324 150.067 74.8349 136.011 77.8856 121.81C80.9363 107.609 94.8823 98.3354 109.119 101.378C114.203 102.393 118.852 104.856 122.484 108.624C128.73 114.855 131.345 123.839 129.602 132.533Z" fill="url(#paint2_linear_1_120533)"/>
  </g>
  <path d="M113.787 127.903C113.787 123.269 109.997 119.589 105.396 119.589H101.2V117.954C101.2 117.409 100.794 117 100.253 117C99.9822 117 99.8468 117.136 99.7115 117.136L95.3806 120.543C94.9746 120.816 94.8392 121.497 95.2452 121.906L95.3806 122.042L99.7115 125.45C100.118 125.722 100.659 125.722 101.065 125.313C101.2 125.177 101.2 124.904 101.2 124.768V123.133H105.396C107.967 123.133 109.997 125.177 109.997 127.766C109.997 130.356 107.967 132.4 105.396 132.4H97.0047C96.0573 132.4 95.1099 133.218 95.1099 134.172C95.1099 135.126 95.9219 136.08 96.8693 136.08H105.396C109.997 136.352 113.787 132.536 113.787 127.903Z" fill="white"/>
  <path d="M74.3792 41.0684H131.331V17.9907L122.312 22.5031L117.544 25.8552L109.04 25.7262L101.567 29.594L95.1242 30.4965L92.8048 33.075L86.1046 37.3295L79.5332 38.4899L74.3792 41.0684Z" fill="#F2F2F2"/>
  <path d="M74.3792 41.0685H131.331V23.5347L122.312 26.8867L117.544 29.4652L109.04 29.3363L101.567 32.3016L95.1242 33.0751L92.8048 34.8801L86.1046 38.2322L79.5332 39.1346L74.3792 41.0685Z" fill="#DEDEDF"/>
  <path d="M74.3792 41.0684H131.331V31.1411L122.312 33.075L117.544 34.4932H109.04L101.567 36.0403L95.1242 36.556L92.8048 37.5874L86.1046 39.3923L79.5332 39.908L74.3792 41.0684Z" fill="#D5D5D6"/>
  <defs>
    <filter id="filter0_d_1_120533" x="0.451416" y="9.18164" width="144.965" height="160.809" filterUnits="userSpaceOnUse" color-interpolation-filters="sRGB">
      <feFlood flood-opacity="0" result="BackgroundImageFix"/>
      <feColorMatrix in="SourceAlpha" type="matrix" values="0 0 0 0 0 0 0 0 0 0 0 0 0 0 0 0 0 0 127 0" result="hardAlpha"/>
      <feOffset dy="11"/>
      <feGaussianBlur stdDeviation="11"/>
      <feColorMatrix type="matrix" values="0 0 0 0 0.397708 0 0 0 0 0.47749 0 0 0 0 0.575 0 0 0 0.18 0"/>
      <feBlend mode="normal" in2="BackgroundImageFix" result="effect1_dropShadow_1_120533"/>
      <feBlend mode="normal" in="SourceGraphic" in2="effect1_dropShadow_1_120533" result="shape"/>
    </filter>
    <filter id="filter1_d_1_120533" x="61.786" y="5.05713" width="143.214" height="160.032" filterUnits="userSpaceOnUse" color-interpolation-filters="sRGB">
      <feFlood flood-opacity="0" result="BackgroundImageFix"/>
      <feColorMatrix in="SourceAlpha" type="matrix" values="0 0 0 0 0 0 0 0 0 0 0 0 0 0 0 0 0 0 127 0" result="hardAlpha"/>
      <feOffset dy="11"/>
      <feGaussianBlur stdDeviation="11"/>
      <feColorMatrix type="matrix" values="0 0 0 0 0.397708 0 0 0 0 0.47749 0 0 0 0 0.575 0 0 0 0.18 0"/>
      <feBlend mode="normal" in2="BackgroundImageFix" result="effect1_dropShadow_1_120533"/>
      <feBlend mode="normal" in="SourceGraphic" in2="effect1_dropShadow_1_120533" result="shape"/>
    </filter>
    <filter id="filter2_d_1_120533" x="45.9369" y="0.67334" width="114.236" height="142.757" filterUnits="userSpaceOnUse" color-interpolation-filters="sRGB">
      <feFlood flood-opacity="0" result="BackgroundImageFix"/>
      <feColorMatrix in="SourceAlpha" type="matrix" values="0 0 0 0 0 0 0 0 0 0 0 0 0 0 0 0 0 0 127 0" result="hardAlpha"/>
      <feOffset dy="11"/>
      <feGaussianBlur stdDeviation="11"/>
      <feColorMatrix type="matrix" values="0 0 0 0 0.397708 0 0 0 0 0.47749 0 0 0 0 0.575 0 0 0 0.18 0"/>
      <feBlend mode="normal" in2="BackgroundImageFix" result="effect1_dropShadow_1_120533"/>
      <feBlend mode="normal" in="SourceGraphic" in2="effect1_dropShadow_1_120533" result="shape"/>
    </filter>
    <filter id="filter3_d_1_120533" x="69.3055" y="97.7998" width="68.8255" height="68.7437" filterUnits="userSpaceOnUse" color-interpolation-filters="sRGB">
      <feFlood flood-opacity="0" result="BackgroundImageFix"/>
      <feColorMatrix in="SourceAlpha" type="matrix" values="0 0 0 0 0 0 0 0 0 0 0 0 0 0 0 0 0 0 127 0" result="hardAlpha"/>
      <feOffset dy="5"/>
      <feGaussianBlur stdDeviation="4"/>
      <feColorMatrix type="matrix" values="0 0 0 0 1 0 0 0 0 0.48525 0 0 0 0 0.1125 0 0 0 0.22 0"/>
      <feBlend mode="normal" in2="BackgroundImageFix" result="effect1_dropShadow_1_120533"/>
      <feBlend mode="normal" in="SourceGraphic" in2="effect1_dropShadow_1_120533" result="shape"/>
    </filter>
    <linearGradient id="paint0_linear_1_120533" x1="44.3956" y1="13.8225" x2="48.1969" y2="13.8303" gradientUnits="userSpaceOnUse">
      <stop stop-color="#FF6931"/>
      <stop offset="1" stop-color="#FF9839"/>
    </linearGradient>
    <linearGradient id="paint1_linear_1_120533" x1="162.683" y1="24.5118" x2="166.738" y2="24.52" gradientUnits="userSpaceOnUse">
      <stop stop-color="#FF6931"/>
      <stop offset="1" stop-color="#FF9839"/>
    </linearGradient>
    <linearGradient id="paint2_linear_1_120533" x1="77.8338" y1="124.827" x2="129.781" y2="124.933" gradientUnits="userSpaceOnUse">
      <stop stop-color="#FF6931"/>
      <stop offset="1" stop-color="#FF9839"/>
    </linearGradient>
  </defs>
</svg>