<svg width="16" height="16" viewBox="0 0 16 16" fill="none" xmlns="http://www.w3.org/2000/svg">
    <g clip-path="url(#clip0_10142_330148)">
        <path d="M3 8.72461V13.0002C3 13.1328 3.05268 13.26 3.14645 13.3538C3.24021 13.4476 3.36739 13.5002 3.5 13.5002H12.5C12.6326 13.5002 12.7598 13.4476 12.8536 13.3538C12.9473 13.26 13 13.1328 13 13.0002V8.72461" stroke="#716B95" stroke-linecap="round" stroke-linejoin="round"/>
        <path d="M3.375 2.5H12.625C12.7336 2.50002 12.8393 2.53541 12.926 2.60081C13.0127 2.66621 13.0758 2.75807 13.1056 2.8625L14 6H2L2.89625 2.8625C2.92603 2.75838 2.98881 2.66675 3.07514 2.60137C3.16148 2.536 3.26671 2.50043 3.375 2.5Z" stroke="#716B95" stroke-linecap="round" stroke-linejoin="round"/>
        <path d="M6 6V7C6 7.53043 5.78929 8.03914 5.41421 8.41421C5.03914 8.78929 4.53043 9 4 9C3.46957 9 2.96086 8.78929 2.58579 8.41421C2.21071 8.03914 2 7.53043 2 7V6" stroke="#716B95" stroke-linecap="round" stroke-linejoin="round"/>
        <path d="M10 6V7C10 7.53043 9.78929 8.03914 9.41421 8.41421C9.03914 8.78929 8.53043 9 8 9C7.46957 9 6.96086 8.78929 6.58579 8.41421C6.21071 8.03914 6 7.53043 6 7V6" stroke="#716B95" stroke-linecap="round" stroke-linejoin="round"/>
        <path d="M14 6V7C14 7.53043 13.7893 8.03914 13.4142 8.41421C13.0391 8.78929 12.5304 9 12 9C11.4696 9 10.9609 8.78929 10.5858 8.41421C10.2107 8.03914 10 7.53043 10 7V6" stroke="#716B95" stroke-linecap="round" stroke-linejoin="round"/>
    </g>
    <defs>
        <clipPath id="clip0_10142_330148">
            <rect width="16" height="16" fill="white"/>
        </clipPath>
    </defs>
</svg>
