<svg width="24" height="25" viewBox="0 0 24 25" fill="none" xmlns="http://www.w3.org/2000/svg">
<g id="Icon/Social" clip-path="url(#clip0_4045_3548)">
<path id="Vector" d="M20.25 3.75H3.75C3.33579 3.75 3 4.08579 3 4.5V21C3 21.4142 3.33579 21.75 3.75 21.75H20.25C20.6642 21.75 21 21.4142 21 21V4.5C21 4.08579 20.6642 3.75 20.25 3.75Z" stroke="#241E46" stroke-width="1.3" stroke-linecap="round" stroke-linejoin="round"/>
<path id="Vector_2" d="M11.25 11.25V17.25" stroke="#241E46" stroke-width="1.3" stroke-linecap="round" stroke-linejoin="round"/>
<path id="Vector_3" d="M8.25 11.25V17.25" stroke="#241E46" stroke-width="1.3" stroke-linecap="round" stroke-linejoin="round"/>
<path id="Vector_4" d="M11.25 13.875C11.25 13.1788 11.5266 12.5111 12.0188 12.0188C12.5111 11.5266 13.1788 11.25 13.875 11.25C14.5712 11.25 15.2389 11.5266 15.7312 12.0188C16.2234 12.5111 16.5 13.1788 16.5 13.875V17.25" stroke="#241E46" stroke-width="1.3" stroke-linecap="round" stroke-linejoin="round"/>
<path id="Vector_5" d="M8.25 9.75C8.87132 9.75 9.375 9.24632 9.375 8.625C9.375 8.00368 8.87132 7.5 8.25 7.5C7.62868 7.5 7.125 8.00368 7.125 8.625C7.125 9.24632 7.62868 9.75 8.25 9.75Z" fill="#241E46"/>
</g>
<defs>
<clipPath id="clip0_4045_3548">
<rect width="24" height="24" fill="white" transform="translate(0 0.75)"/>
</clipPath>
</defs>
</svg>
