<svg xmlns="http://www.w3.org/2000/svg" fill="none" viewBox="8.42 7.75 177.58 132.5">
  <path d="M165.982 74C165.982 88.9949 160.943 102.899 152.5 114.077C147.87 120.075 142.286 125.391 135.886 129.481C125.536 136.297 113.144 140.25 99.7986 140.25C63.1665 140.114 33.4795 110.397 33.4795 74C33.4795 37.3308 63.1665 7.75 99.6624 7.75C113.008 7.75 125.4 11.7032 135.75 18.3827C142.15 22.4722 147.734 27.7886 152.364 33.7865C160.943 44.9645 165.982 58.8688 165.982 74Z" fill="#EAECEE"/>
  <path d="M29.8023 122.938C31.028 122.938 32.1174 121.983 32.1174 120.62C32.1174 119.393 31.1641 118.303 29.8023 118.303C28.5767 118.303 27.4873 119.257 27.4873 120.62C27.6235 121.983 28.5767 122.938 29.8023 122.938Z" fill="url(#paint0_linear_1_120975)"/>
  <path d="M139.562 14.0205C140.788 14.0205 141.877 13.0663 141.877 11.7031C141.877 10.4763 140.924 9.38574 139.562 9.38574C138.337 9.38574 137.247 10.34 137.247 11.7031C137.247 12.93 138.337 14.0205 139.562 14.0205Z" fill="url(#paint1_linear_1_120975)"/>
  <path d="M180.553 53.6887C182.595 51.7803 182.731 48.645 180.825 46.6003C178.918 44.5555 175.786 44.4192 173.607 46.3276C171.565 48.2361 171.429 51.3714 173.335 53.4161C175.242 55.4609 178.51 55.5972 180.553 53.6887Z" fill="#EAECEE"/>
  <path d="M179.463 31.6053C180.689 31.6053 181.642 30.6511 181.642 29.4242C181.642 28.1974 180.689 27.2432 179.463 27.2432C178.237 27.2432 177.284 28.1974 177.284 29.4242C177.284 30.6511 178.237 31.6053 179.463 31.6053Z" fill="url(#paint2_linear_1_120975)"/>
  <g filter="url(#filter0_d_1_120975)">
    <path d="M147.676 41.7359L148.687 129.351C148.687 132.259 146.287 134.661 143.382 134.661H58.2553C55.3504 134.661 52.9507 132.259 52.9507 129.351V16.7031C52.9507 13.7952 55.3504 11.3931 58.2553 11.3931H120.016L147.676 41.7359Z" fill="white"/>
  </g>
  <path d="M120.016 11.5195V35.6674C120.016 38.9545 122.921 41.8624 126.331 41.8624H147.803" fill="#DEDEDF"/>
  <path d="M69.6225 55.1371C69.1173 55.1371 68.6121 54.6314 68.6121 54.1257C68.6121 53.62 69.1173 53.1143 69.6225 53.1143H130.247C130.752 53.1143 131.257 53.62 131.257 54.1257C131.257 54.6314 130.752 55.1371 130.247 55.1371H69.6225Z" fill="#DEDEDF"/>
  <path d="M69.6225 62.976C69.1173 62.976 68.6121 62.4703 68.6121 61.9646C68.6121 61.4588 69.1173 60.9531 69.6225 60.9531H130.247C130.752 60.9531 131.257 61.4588 131.257 61.9646C131.257 62.4703 130.752 62.976 130.247 62.976H69.6225Z" fill="#DEDEDF"/>
  <path d="M69.6225 70.6879C69.1173 70.6879 68.6121 70.1822 68.6121 69.6765C68.6121 69.1708 69.1173 68.665 69.6225 68.665H130.247C130.752 68.665 131.257 69.1708 131.257 69.6765C131.257 70.1822 130.752 70.6879 130.247 70.6879H69.6225Z" fill="#DEDEDF"/>
  <path d="M69.6225 78.5268C69.1173 78.5268 68.6121 78.021 68.6121 77.5153C68.6121 77.0096 69.1173 76.5039 69.6225 76.5039H130.247C130.752 76.5039 131.257 77.0096 131.257 77.5153C131.257 78.021 130.752 78.5268 130.247 78.5268H69.6225Z" fill="#DEDEDF"/>
  <path d="M69.6225 86.2387C69.1173 86.2387 68.6121 85.733 68.6121 85.2273C68.6121 84.7215 69.1173 84.2158 69.6225 84.2158H130.247C130.752 84.2158 131.257 84.7215 131.257 85.2273C131.257 85.733 130.752 86.2387 130.247 86.2387H69.6225Z" fill="#DEDEDF"/>
  <path d="M69.6225 93.9511C69.1173 93.9511 68.6121 93.4454 68.6121 92.9397C68.6121 92.4339 69.1173 91.9282 69.6225 91.9282H96.2719C96.7771 91.9282 97.2823 92.4339 97.2823 92.9397C97.2823 93.4454 96.7771 93.9511 96.2719 93.9511H69.6225Z" fill="#DEDEDF"/>
  <path d="M98.0401 35.7938H69.7488C69.1173 35.7938 68.6121 35.2881 68.6121 34.6559C68.6121 34.0238 69.1173 33.5181 69.7488 33.5181H98.0401C98.6716 33.5181 99.1768 34.0238 99.1768 34.6559C99.1768 35.1616 98.6716 35.7938 98.0401 35.7938Z" fill="#DEDEDF"/>
  <path d="M83.7681 41.7357H69.7488C69.1173 41.7357 68.6121 41.23 68.6121 40.5978C68.6121 39.9657 69.1173 39.46 69.7488 39.46H83.7681C84.3997 39.46 84.9049 39.9657 84.9049 40.5978C84.9049 41.23 84.3997 41.7357 83.7681 41.7357Z" fill="#DEDEDF"/>
  <path d="M125.447 117.593C125.195 115.823 125.069 114.559 123.806 114.053C121.785 113.548 121.153 116.203 119.132 118.352C118.501 118.984 117.617 119.49 116.859 119.995C116.606 120.122 116.101 120.375 115.975 119.869C115.47 118.352 115.975 119.11 118.122 116.708C119.132 115.57 119.764 114.18 119.511 112.41C119.385 111.398 118.753 110.513 117.743 110.134C116.733 109.755 115.722 109.881 114.964 110.766C113.196 112.915 113.701 114.306 113.575 117.467C113.575 117.72 113.449 117.973 113.196 118.099C111.428 119.11 109.534 119.743 107.26 119.995C107.26 119.869 107.26 119.869 107.26 119.869C108.397 118.352 110.67 115.57 111.175 111.019C111.428 109.249 111.428 107.479 110.544 105.835C108.902 102.801 104.355 103.18 102.334 106.847C100.314 110.893 100.692 116.961 103.471 120.501C102.84 121.007 102.334 121.513 101.703 121.892C101.324 122.145 101.198 122.777 101.45 123.156C101.703 123.662 102.461 123.788 102.966 123.409C104.987 121.765 104.86 121.892 105.113 121.765C105.492 121.639 105.871 121.765 106.25 121.765C107.639 121.765 108.523 121.639 109.534 121.513C110.039 121.386 113.449 120.122 113.575 120.122C113.575 120.122 113.575 120.248 113.701 120.375C114.08 121.765 114.838 122.271 116.354 122.145C117.49 122.018 118.501 121.513 119.385 120.754C120.395 119.743 122.037 117.72 122.921 116.455C123.174 117.34 123.174 118.099 123.427 118.858C123.932 120.248 125.321 120.501 126.205 119.363C127.216 118.225 127.595 116.708 128.731 116.076C129.11 115.95 129.363 115.57 129.363 115.191C129.363 114.433 128.605 114.053 127.973 114.306C126.963 114.938 126.205 116.203 125.447 117.593ZM105.113 119.363C104.103 118.099 103.724 116.708 103.471 115.065C102.966 112.789 103.219 110.387 104.103 108.238C104.608 107.1 105.239 106.215 106.502 105.962C107.765 105.709 108.649 105.962 108.902 107.226C110.039 111.651 108.271 115.823 105.113 119.363ZM115.849 112.663C116.606 111.145 117.49 112.536 117.364 113.168C117.112 113.927 116.733 114.559 116.354 115.191C116.101 115.57 115.849 115.823 115.47 116.203C115.343 114.938 115.343 113.8 115.849 112.663Z" fill="url(#paint3_linear_1_120975)"/>
  <path d="M80.2316 122.776C79.3475 123.661 78.0845 124.167 77.0741 123.409C75.5585 122.271 75.0533 122.018 74.0429 121.891C72.7799 121.765 71.6432 121.639 71.2643 120.248C71.138 119.869 71.138 119.616 71.138 119.236C71.0117 118.351 70.6328 117.466 70.0013 116.708C69.1172 115.696 68.4857 114.811 69.1172 113.674C69.875 112.409 70.6328 111.904 70.6328 110.386C70.6328 109.881 70.6328 109.501 70.7591 109.122C71.0117 108.111 71.8958 107.352 72.9062 107.352C73.2851 107.352 73.664 107.226 74.0429 107.226C75.3059 107.099 75.6848 106.214 77.3267 105.582C77.8319 105.329 78.3371 105.456 78.8423 105.709C79.2212 105.961 79.6001 106.214 80.1053 106.594C81.242 107.479 81.9998 107.099 83.6417 107.605C84.3996 107.858 84.7785 108.49 84.9048 109.122C84.9048 109.881 85.1574 110.766 85.41 111.398C86.0415 112.662 87.3045 113.294 87.1782 114.685C87.1782 114.938 87.0519 115.317 86.9256 115.444C86.2941 116.202 85.7889 117.214 85.41 118.225C85.2837 118.604 85.2837 118.857 85.2837 119.236C85.2837 119.995 85.0311 120.627 84.5259 121.006C83.0102 122.524 81.6209 121.386 80.2316 122.776ZM72.2747 118.099C74.2955 121.006 78.2108 121.891 81.242 119.869C84.1469 118.099 84.9048 114.053 83.1365 111.271C83.1365 111.271 83.1365 111.145 83.0102 111.145C81.1157 108.237 76.9478 107.352 74.0429 109.375C71.138 111.145 70.3802 115.191 72.1484 117.972C72.2747 117.972 72.2747 118.099 72.2747 118.099Z" fill="#DEDEDF"/>
  <path d="M74.6747 110.26C77.0744 108.616 80.4845 109.249 82.2527 111.777C83.8946 114.053 83.2631 117.34 80.9897 118.984L80.8634 119.11C78.4637 120.754 75.0536 119.995 73.2854 117.593C71.6435 115.317 72.275 112.03 74.5484 110.386C74.5484 110.26 74.5484 110.26 74.6747 110.26Z" fill="#DEDEDF"/>
  <path d="M145.555 74.1364C146.509 73.8638 147.053 72.7732 146.781 71.819C146.509 70.8648 145.419 70.3195 144.466 70.5922C143.513 70.8648 142.968 71.9553 143.24 72.9095C143.513 73.8638 144.602 74.409 145.555 74.1364Z" fill="#EAEEF9"/>
  <g filter="url(#filter1_d_1_120975)">
    <path d="M186 71.9551V132.207C186 133.161 185.455 133.979 184.638 134.388C178.51 137.115 170.339 138.887 161.215 138.887C152.228 138.887 144.057 137.251 137.793 134.388C136.976 133.979 136.431 133.161 136.431 132.207V71.9551C136.431 70.3193 137.793 69.0924 139.427 69.0924H183.004C184.638 68.9561 186 70.3193 186 71.9551Z" fill="#DCDCDD"/>
  </g>
  <path d="M186 71.9551V90.2215H136.431V71.9551C136.431 70.3193 137.793 69.0924 139.427 69.0924H183.004C184.638 68.9561 186 70.3193 186 71.9551Z" fill="#DCDCDD"/>
  <path d="M182.323 73.0459H140.107V86.2686H182.187V73.0459H182.323Z" fill="white"/>
  <path d="M181.234 74.2725V85.3141H141.197V74.2725H181.234ZM183.413 71.9551H181.234H141.197H139.018V74.1361V85.1778V87.3589H141.197H181.098H183.276V85.1778V74.1361V71.9551H183.413Z" fill="#CDCDCD"/>
  <path d="M148.551 101.264H143.513C142.559 101.264 141.878 100.582 141.878 99.6278V96.9014C141.878 95.9472 142.559 95.2656 143.513 95.2656H148.551C149.504 95.2656 150.185 95.9472 150.185 96.9014V99.6278C150.322 100.446 149.504 101.264 148.551 101.264Z" fill="url(#paint4_linear_1_120975)"/>
  <path d="M148.551 108.761H143.513C142.559 108.761 141.878 108.079 141.878 107.125V104.399C141.878 103.444 142.559 102.763 143.513 102.763H148.551C149.504 102.763 150.185 103.444 150.185 104.399V107.125C150.322 107.943 149.504 108.761 148.551 108.761Z" fill="#CDCDCD"/>
  <path d="M148.551 116.258H143.513C142.559 116.258 141.878 115.577 141.878 114.622V111.896C141.878 110.942 142.559 110.26 143.513 110.26H148.551C149.504 110.26 150.185 110.942 150.185 111.896V114.622C150.322 115.577 149.504 116.258 148.551 116.258Z" fill="#CDCDCD"/>
  <path d="M148.551 123.756H143.513C142.559 123.756 141.878 123.074 141.878 122.12V119.394C141.878 118.439 142.559 117.758 143.513 117.758H148.551C149.504 117.758 150.185 118.439 150.185 119.394V122.12C150.322 122.938 149.504 123.756 148.551 123.756Z" fill="#CDCDCD"/>
  <path d="M148.551 131.253H143.513C142.559 131.253 141.878 130.571 141.878 129.617V126.891C141.878 125.936 142.559 125.255 143.513 125.255H148.551C149.504 125.255 150.185 125.936 150.185 126.891V129.617C150.322 130.571 149.504 131.253 148.551 131.253Z" fill="#CDCDCD"/>
  <path d="M159.173 101.264H154.134C153.181 101.264 152.5 100.582 152.5 99.6278V96.9014C152.5 95.9472 153.181 95.2656 154.134 95.2656H159.173C160.126 95.2656 160.807 95.9472 160.807 96.9014V99.6278C160.807 100.446 160.126 101.264 159.173 101.264Z" fill="#CDCDCD"/>
  <path d="M159.173 108.761H154.134C153.181 108.761 152.5 108.079 152.5 107.125V104.399C152.5 103.444 153.181 102.763 154.134 102.763H159.173C160.126 102.763 160.807 103.444 160.807 104.399V107.125C160.807 107.943 160.126 108.761 159.173 108.761Z" fill="#CDCDCD"/>
  <path d="M159.173 116.258H154.134C153.181 116.258 152.5 115.577 152.5 114.622V111.896C152.5 110.942 153.181 110.26 154.134 110.26H159.173C160.126 110.26 160.807 110.942 160.807 111.896V114.622C160.807 115.577 160.126 116.258 159.173 116.258Z" fill="#CDCDCD"/>
  <path d="M159.173 123.756H154.134C153.181 123.756 152.5 123.074 152.5 122.12V119.394C152.5 118.439 153.181 117.758 154.134 117.758H159.173C160.126 117.758 160.807 118.439 160.807 119.394V122.12C160.807 122.938 160.126 123.756 159.173 123.756Z" fill="#CDCDCD"/>
  <path d="M159.173 131.253H154.134C153.181 131.253 152.5 130.571 152.5 129.617V126.891C152.5 125.936 153.181 125.255 154.134 125.255H159.173C160.126 125.255 160.807 125.936 160.807 126.891V129.617C160.807 130.571 160.126 131.253 159.173 131.253Z" fill="#CDCDCD"/>
  <path d="M169.659 101.264H164.62C163.667 101.264 162.986 100.582 162.986 99.6278V96.9014C162.986 95.9472 163.667 95.2656 164.62 95.2656H169.659C170.612 95.2656 171.293 95.9472 171.293 96.9014V99.6278C171.429 100.446 170.612 101.264 169.659 101.264Z" fill="#CDCDCD"/>
  <path d="M169.659 108.761H164.62C163.667 108.761 162.986 108.079 162.986 107.125V104.399C162.986 103.444 163.667 102.763 164.62 102.763H169.659C170.612 102.763 171.293 103.444 171.293 104.399V107.125C171.429 107.943 170.612 108.761 169.659 108.761Z" fill="#CDCDCD"/>
  <path d="M169.659 116.258H164.62C163.667 116.258 162.986 115.577 162.986 114.622V111.896C162.986 110.942 163.667 110.26 164.62 110.26H169.659C170.612 110.26 171.293 110.942 171.293 111.896V114.622C171.429 115.577 170.612 116.258 169.659 116.258Z" fill="#CDCDCD"/>
  <path d="M169.659 123.756H164.62C163.667 123.756 162.986 123.074 162.986 122.12V119.394C162.986 118.439 163.667 117.758 164.62 117.758H169.659C170.612 117.758 171.293 118.439 171.293 119.394V122.12C171.429 122.938 170.612 123.756 169.659 123.756Z" fill="#CDCDCD"/>
  <path d="M169.659 131.253H164.62C163.667 131.253 162.986 130.571 162.986 129.617V126.891C162.986 125.936 163.667 125.255 164.62 125.255H169.659C170.612 125.255 171.293 125.936 171.293 126.891V129.617C171.429 130.571 170.612 131.253 169.659 131.253Z" fill="#CDCDCD"/>
  <path d="M180.144 101.264H175.105C174.152 101.264 173.471 100.582 173.471 99.6278V96.9014C173.471 95.9472 174.152 95.2656 175.105 95.2656H180.144C181.097 95.2656 181.778 95.9472 181.778 96.9014V99.6278C181.778 100.446 181.097 101.264 180.144 101.264Z" fill="#CDCDCD"/>
  <path d="M180.144 108.761H175.105C174.152 108.761 173.471 108.079 173.471 107.125V104.399C173.471 103.444 174.152 102.763 175.105 102.763H180.144C181.097 102.763 181.778 103.444 181.778 104.399V107.125C181.778 107.943 181.097 108.761 180.144 108.761Z" fill="#CDCDCD"/>
  <path d="M180.144 116.258H175.105C174.152 116.258 173.471 115.577 173.471 114.622V111.896C173.471 110.942 174.152 110.26 175.105 110.26H180.144C181.097 110.26 181.778 110.942 181.778 111.896V114.622C181.778 115.577 181.097 116.258 180.144 116.258Z" fill="#CDCDCD"/>
  <path d="M180.144 123.756H175.105C174.152 123.756 173.471 123.074 173.471 122.12V119.394C173.471 118.439 174.152 117.758 175.105 117.758H180.144C181.097 117.758 181.778 118.439 181.778 119.394V122.12C181.778 122.938 181.097 123.756 180.144 123.756Z" fill="#CDCDCD"/>
  <path d="M180.144 131.253H175.105C174.152 131.253 173.471 130.571 173.471 129.617V126.891C173.471 125.936 174.152 125.255 175.105 125.255H180.144C181.097 125.255 181.778 125.936 181.778 126.891V129.617C181.778 130.571 181.097 131.253 180.144 131.253Z" fill="#CDCDCD"/>
  <path d="M177.829 76.4528L178.646 75.6357H174.561L175.378 76.4528H177.829Z" fill="#A3AFC2"/>
  <path d="M175.514 82.7241L174.697 83.5412H178.783L177.966 82.7241H175.514Z" fill="#A3AFC2"/>
  <path d="M177.965 80.2704V82.5877L178.782 83.4057V80.134L178.374 79.7251L177.965 80.2704Z" fill="#A3AFC2"/>
  <path d="M177.965 76.5899V79.0436L178.51 79.4525L178.919 79.0436V75.772L177.965 76.5899Z" fill="#A3AFC2"/>
  <path d="M175.378 79.0436V76.5899L174.561 75.772V79.0436L174.833 79.4525L175.378 79.0436Z" fill="#A3AFC2"/>
  <path d="M175.378 80.2704L174.833 79.7251L174.561 80.134V83.542L175.378 82.7241V80.2704Z" fill="#A3AFC2"/>
  <g filter="url(#filter2_d_1_120975)">
    <path d="M64.9366 74.6815C64.9366 78.2257 64.2557 81.7699 63.0301 84.9052C60.0342 92.8116 53.4976 98.9459 45.463 101.536C42.7395 102.49 39.7435 102.899 36.7476 102.899C21.087 103.035 8.42236 90.3579 8.42236 74.6815C8.42236 59.005 21.087 46.4639 36.7476 46.4639C52.272 46.4639 64.9366 59.1413 64.9366 74.6815Z" fill="url(#paint5_linear_1_120975)"/>
  </g>
  <path d="M44.918 65.2755L41.7859 68.5471C41.7859 68.5471 40.0156 66.5024 37.292 66.5024C35.2493 66.5024 34.0237 67.7292 34.0237 69.0924C34.0237 73.5909 46.1436 71.0009 46.1436 79.7251C46.1436 83.4057 43.8286 86.4047 39.4709 87.2226V90.6305H34.977V87.3589C30.0745 86.6773 27.6233 83.542 27.6233 83.542L30.7554 80.4067C30.7554 80.4067 32.7981 82.9967 36.4749 82.9967C39.0623 82.9967 40.5603 81.6336 40.5603 79.8614C40.5603 75.363 28.4404 77.953 28.4404 69.2287C28.4404 65.9571 30.8916 62.9582 34.8408 62.2766V58.8687H39.3347V62.2766C43.0115 62.9582 44.918 65.2755 44.918 65.2755Z" fill="white"/>
  <defs>
    <filter id="filter0_d_1_120975" x="30.9507" y="0.393066" width="139.736" height="167.268" filterUnits="userSpaceOnUse" color-interpolation-filters="sRGB">
      <feFlood flood-opacity="0" result="BackgroundImageFix"/>
      <feColorMatrix in="SourceAlpha" type="matrix" values="0 0 0 0 0 0 0 0 0 0 0 0 0 0 0 0 0 0 127 0" result="hardAlpha"/>
      <feOffset dy="11"/>
      <feGaussianBlur stdDeviation="11"/>
      <feColorMatrix type="matrix" values="0 0 0 0 0.397708 0 0 0 0 0.47749 0 0 0 0 0.575 0 0 0 0.26 0"/>
      <feBlend mode="normal" in2="BackgroundImageFix" result="effect1_dropShadow_1_120975"/>
      <feBlend mode="normal" in="SourceGraphic" in2="effect1_dropShadow_1_120975" result="shape"/>
    </filter>
    <filter id="filter1_d_1_120975" x="114.431" y="58.083" width="93.5691" height="113.804" filterUnits="userSpaceOnUse" color-interpolation-filters="sRGB">
      <feFlood flood-opacity="0" result="BackgroundImageFix"/>
      <feColorMatrix in="SourceAlpha" type="matrix" values="0 0 0 0 0 0 0 0 0 0 0 0 0 0 0 0 0 0 127 0" result="hardAlpha"/>
      <feOffset dy="11"/>
      <feGaussianBlur stdDeviation="11"/>
      <feColorMatrix type="matrix" values="0 0 0 0 0.397708 0 0 0 0 0.47749 0 0 0 0 0.575 0 0 0 0.18 0"/>
      <feBlend mode="normal" in2="BackgroundImageFix" result="effect1_dropShadow_1_120975"/>
      <feBlend mode="normal" in="SourceGraphic" in2="effect1_dropShadow_1_120975" result="shape"/>
    </filter>
    <filter id="filter2_d_1_120975" x="0.422363" y="43.4639" width="72.5142" height="72.436" filterUnits="userSpaceOnUse" color-interpolation-filters="sRGB">
      <feFlood flood-opacity="0" result="BackgroundImageFix"/>
      <feColorMatrix in="SourceAlpha" type="matrix" values="0 0 0 0 0 0 0 0 0 0 0 0 0 0 0 0 0 0 127 0" result="hardAlpha"/>
      <feOffset dy="5"/>
      <feGaussianBlur stdDeviation="4"/>
      <feColorMatrix type="matrix" values="0 0 0 0 1 0 0 0 0 0.432 0 0 0 0 0.1125 0 0 0 0.22 0"/>
      <feBlend mode="normal" in2="BackgroundImageFix" result="effect1_dropShadow_1_120975"/>
      <feBlend mode="normal" in="SourceGraphic" in2="effect1_dropShadow_1_120975" result="shape"/>
    </filter>
    <linearGradient id="paint0_linear_1_120975" x1="27.5336" y1="120.414" x2="32.0867" y2="120.423" gradientUnits="userSpaceOnUse">
      <stop stop-color="#FF6931"/>
      <stop offset="1" stop-color="#FF9839"/>
    </linearGradient>
    <linearGradient id="paint1_linear_1_120975" x1="137.294" y1="11.4971" x2="141.847" y2="11.5064" gradientUnits="userSpaceOnUse">
      <stop stop-color="#FF6931"/>
      <stop offset="1" stop-color="#FF9839"/>
    </linearGradient>
    <linearGradient id="paint2_linear_1_120975" x1="177.328" y1="29.2304" x2="181.613" y2="29.2391" gradientUnits="userSpaceOnUse">
      <stop stop-color="#FF6931"/>
      <stop offset="1" stop-color="#FF9839"/>
    </linearGradient>
    <linearGradient id="paint3_linear_1_120975" x1="101.341" y1="112.834" x2="129.175" y2="112.915" gradientUnits="userSpaceOnUse">
      <stop stop-color="#FF6931"/>
      <stop offset="1" stop-color="#FF9839"/>
    </linearGradient>
    <linearGradient id="paint4_linear_1_120975" x1="141.962" y1="97.998" x2="150.145" y2="98.0211" gradientUnits="userSpaceOnUse">
      <stop stop-color="#FF6931"/>
      <stop offset="1" stop-color="#FF9839"/>
    </linearGradient>
    <linearGradient id="paint5_linear_1_120975" x1="8.98751" y1="72.1737" x2="64.5622" y2="72.2869" gradientUnits="userSpaceOnUse">
      <stop stop-color="#FF6931"/>
      <stop offset="1" stop-color="#FF9839"/>
    </linearGradient>
  </defs>
</svg>