<svg xmlns="http://www.w3.org/2000/svg" width="212" height="198" viewBox="0 0 212 198" fill="none">
  <path
    d="M117.819 177.321C164.744 177.321 202.787 139.278 202.787 92.1855C202.787 45.093 164.576 7.05029 117.819 7.05029C70.8942 7.05029 32.8516 45.093 32.8516 92.1855C32.8516 139.278 70.8942 177.321 117.819 177.321Z"
    fill="#F3F4F4" />
  <path
    d="M197.256 36.3795C201.051 36.3795 204.128 33.3032 204.128 29.5084C204.128 25.7135 201.051 22.6372 197.256 22.6372C193.462 22.6372 190.385 25.7135 190.385 29.5084C190.385 33.3032 193.462 36.3795 197.256 36.3795Z"
    fill="#F5F5F5" />
  <path
    d="M207.306 9.56467C209.898 9.56467 211.999 7.46377 211.999 4.87218C211.999 2.28059 209.898 0.179688 207.306 0.179688C204.715 0.179688 202.614 2.28059 202.614 4.87218C202.614 7.46377 204.715 9.56467 207.306 9.56467Z"
    fill="#F5F5F5" />
  <path
    d="M37.3736 36.2119C39.9652 36.2119 42.0661 34.111 42.0661 31.5194C42.0661 28.9278 39.9652 26.8269 37.3736 26.8269C34.782 26.8269 32.6812 28.9278 32.6812 31.5194C32.6812 34.111 34.782 36.2119 37.3736 36.2119Z"
    fill="#F5F5F5" />
  <path
    d="M8.71609 126.709C13.529 126.709 17.4307 122.807 17.4307 117.994C17.4307 113.181 13.529 109.279 8.71609 109.279C3.90313 109.279 0.00146484 113.181 0.00146484 117.994C0.00146484 122.807 3.90313 126.709 8.71609 126.709Z"
    fill="#F5F5F5" />
  <g filter="url(#filter0_d_4334_33939)">
    <path
      d="M175.638 49.6177L176.979 157.545C176.979 161.232 173.962 164.081 170.275 164.081H65.0292C61.3423 164.081 58.3257 161.064 58.3257 157.545V18.7813C58.3257 15.0944 61.3423 12.2454 65.0292 12.2454H141.282L175.638 49.6177Z"
      fill="#FDFEFF" />
  </g>
  <path
    d="M109.603 142.461H88.9897C88.1518 142.461 87.4814 141.623 87.4814 140.618C87.4814 139.612 88.1518 138.774 88.9897 138.774H109.603C110.441 138.774 111.111 139.612 111.111 140.618C111.111 141.791 110.441 142.461 109.603 142.461Z"
    fill="#DEDEDF" />
  <path
    d="M97.8759 142.461H75.4189C74.581 142.461 73.9106 141.623 73.9106 140.618C73.9106 139.612 74.581 138.774 75.4189 138.774H97.8759C98.7138 138.774 99.3842 139.612 99.3842 140.618C99.3842 141.791 98.7138 142.461 97.8759 142.461Z"
    fill="#D5DDEA" />
  <path
    d="M126.534 34.87H76.0893C74.9162 34.87 73.9106 33.8645 73.9106 32.6913C73.9106 31.5182 74.9162 30.5127 76.0893 30.5127H126.534C127.707 30.5127 128.712 31.5182 128.712 32.6913C128.712 33.8645 127.707 34.87 126.534 34.87Z"
    fill="#DEDEDF" />
  <path
    d="M95.5296 46.9384H76.0893C74.9162 46.9384 73.9106 45.9328 73.9106 44.7597C73.9106 43.5866 74.9162 42.5811 76.0893 42.5811H95.362C96.5352 42.5811 97.5407 43.5866 97.5407 44.7597C97.5407 45.9328 96.5351 46.9384 95.5296 46.9384Z"
    fill="#DEDEDF" />
  <path d="M141.28 12.2449V42.0757C141.28 46.2654 144.967 49.6172 149.157 49.6172H175.636"
    fill="#DEDEDF" />
  <path
    d="M160.656 113.463H102.509H96.1002H76.7179C75.9363 113.463 75.1548 114.246 75.1548 115.342C75.1548 116.282 75.78 117.222 76.7179 117.222H96.1002H102.509H160.656C161.437 117.222 162.219 116.439 162.219 115.342C162.063 114.246 161.437 113.463 160.656 113.463Z"
    fill="#DEDEDF" />
  <path
    d="M160.499 99.833H138.929H131.582H76.7179C75.9363 99.833 75.1548 100.616 75.1548 101.713C75.1548 102.653 75.78 103.592 76.7179 103.592H131.582H138.929H160.499C161.281 103.592 162.063 102.809 162.063 101.713C161.906 100.616 161.281 99.833 160.499 99.833Z"
    fill="#DEDEDF" />
  <path
    d="M160.968 86.0493H155.341H149.714H76.7179C75.9363 86.0493 75.1548 86.8325 75.1548 87.929C75.1548 88.8689 75.78 89.8087 76.7179 89.8087H149.714H155.966H160.812C161.594 89.8087 162.375 89.0255 162.375 87.929C162.531 86.9892 161.75 86.0493 160.968 86.0493Z"
    fill="#DEDEDF" />
  <path
    d="M99.6953 143.85H76.7179C75.9363 143.85 75.1548 143.067 75.1548 141.97C75.1548 141.03 75.78 140.09 76.7179 140.09H99.6953C100.477 140.09 101.258 140.874 101.258 141.97C101.258 143.223 100.477 143.85 99.6953 143.85Z"
    fill="#E3EAF2" />
  <path
    d="M161.594 72.4229H143.305H138.772H76.7179C75.9363 72.4229 75.1548 73.2061 75.1548 74.3025C75.1548 75.2424 75.78 76.1822 76.7179 76.1822H138.772H143.305H161.437C162.531 76.1822 163.157 75.399 163.157 74.3025C163.157 73.3627 162.531 72.4229 161.594 72.4229Z"
    fill="#DEDEDF" />
  <path
    d="M77.9639 152.152H41.075C37.011 152.152 33.7285 148.863 33.7285 144.79V93.5687C33.7285 79.3144 45.2954 67.8796 59.3632 67.8796C73.431 67.8796 84.9978 79.4711 84.9978 93.5687V144.947C85.1541 148.863 81.8716 152.152 77.9639 152.152ZM48.4215 137.585H70.6174V93.5687C70.6174 87.4598 65.6155 82.4472 59.5195 82.4472C53.4234 82.4472 48.4215 87.4598 48.4215 93.5687V137.585Z"
    fill="#BDC2CB" />
  <path
    d="M93.1308 166.092H26.3869C21.854 166.092 18.1025 162.332 18.1025 157.79V113.46C18.1025 108.918 21.854 105.158 26.3869 105.158H93.1308C97.6638 105.158 101.415 108.918 101.415 113.46V157.79C101.415 162.332 97.6638 166.092 93.1308 166.092Z"
    fill="#F5F5F5" />
  <path
    d="M68.1216 128.811C68.1216 132.101 66.2459 134.92 63.5886 136.33V145.415C63.5886 147.608 61.8692 149.331 59.6809 149.331C57.4926 149.331 55.7732 147.608 55.7732 145.415V136.33C53.1159 134.92 51.2402 132.101 51.2402 128.811C51.2402 124.112 54.9916 120.353 59.6809 120.353C64.3702 120.353 68.1216 124.112 68.1216 128.811Z"
    fill="#BDC2CB" />
  <defs>
    <filter id="filter0_d_4334_33939" x="36.3257" y="1.24609" width="162.653" height="195.835"
      filterUnits="userSpaceOnUse" color-interpolation-filters="sRGB">
      <feFlood flood-opacity="0" result="BackgroundImageFix" />
      <feColorMatrix in="SourceAlpha" type="matrix"
        values="0 0 0 0 0 0 0 0 0 0 0 0 0 0 0 0 0 0 127 0" result="hardAlpha" />
      <feOffset dy="11" />
      <feGaussianBlur stdDeviation="11" />
      <feColorMatrix type="matrix"
        values="0 0 0 0 0.397708 0 0 0 0 0.47749 0 0 0 0 0.575 0 0 0 0.27 0" />
      <feBlend mode="normal" in2="BackgroundImageFix" result="effect1_dropShadow_4334_33939" />
      <feBlend mode="normal" in="SourceGraphic" in2="effect1_dropShadow_4334_33939" result="shape" />
    </filter>
  </defs>
</svg>